G75*
G70*
%OFA0B0*%
%FSLAX24Y24*%
%IPPOS*%
%LPD*%
%AMOC8*
5,1,8,0,0,1.08239X$1,22.5*
%
%ADD10C,0.0050*%
%ADD11C,0.0040*%
%ADD12C,0.0060*%
%ADD13C,0.0080*%
%ADD14C,0.0070*%
%ADD15C,0.0010*%
%ADD16C,0.0039*%
%ADD17C,0.0079*%
%ADD18C,0.0030*%
%ADD19C,0.0100*%
%ADD20C,0.0079*%
%ADD21C,0.0020*%
D10*
X000222Y000131D02*
X040222Y000131D01*
X040273Y000647D02*
X040155Y000647D01*
X040273Y000647D02*
X040273Y002615D01*
X040155Y002615D01*
X039289Y002615D02*
X039171Y002615D01*
X039171Y000647D01*
X039289Y000647D01*
X038822Y001331D02*
X038822Y001931D01*
X037622Y001931D01*
X037622Y001331D01*
X038822Y001331D01*
X038847Y002256D02*
X038847Y003006D01*
X037597Y003006D01*
X037597Y002256D01*
X038847Y002256D01*
X039722Y002131D02*
X039766Y002129D01*
X039809Y002123D01*
X039851Y002114D01*
X039893Y002101D01*
X039933Y002084D01*
X039972Y002064D01*
X040009Y002041D01*
X040043Y002014D01*
X040076Y001985D01*
X040105Y001952D01*
X040132Y001918D01*
X040155Y001881D01*
X040175Y001842D01*
X040192Y001802D01*
X040205Y001760D01*
X040214Y001718D01*
X040220Y001675D01*
X040222Y001631D01*
X040220Y001587D01*
X040214Y001544D01*
X040205Y001502D01*
X040192Y001460D01*
X040175Y001420D01*
X040155Y001381D01*
X040132Y001344D01*
X040105Y001310D01*
X040076Y001277D01*
X040043Y001248D01*
X040009Y001221D01*
X039972Y001198D01*
X039933Y001178D01*
X039893Y001161D01*
X039851Y001148D01*
X039809Y001139D01*
X039766Y001133D01*
X039722Y001131D01*
X040104Y003984D02*
X040104Y004339D01*
X039986Y004299D01*
X040104Y004339D02*
X040104Y013984D01*
X040064Y013905D01*
X040104Y013984D02*
X040104Y014417D01*
X031206Y014378D01*
X031206Y013354D01*
X030222Y013354D01*
X030222Y003984D01*
X040104Y003984D01*
X033222Y001131D02*
X033224Y001194D01*
X033230Y001256D01*
X033240Y001318D01*
X033253Y001380D01*
X033271Y001440D01*
X033292Y001499D01*
X033317Y001557D01*
X033346Y001613D01*
X033378Y001667D01*
X033413Y001719D01*
X033451Y001768D01*
X033493Y001816D01*
X033537Y001860D01*
X033585Y001902D01*
X033634Y001940D01*
X033686Y001975D01*
X033740Y002007D01*
X033796Y002036D01*
X033854Y002061D01*
X033913Y002082D01*
X033973Y002100D01*
X034035Y002113D01*
X034097Y002123D01*
X034159Y002129D01*
X034222Y002131D01*
X034285Y002129D01*
X034347Y002123D01*
X034409Y002113D01*
X034471Y002100D01*
X034531Y002082D01*
X034590Y002061D01*
X034648Y002036D01*
X034704Y002007D01*
X034758Y001975D01*
X034810Y001940D01*
X034859Y001902D01*
X034907Y001860D01*
X034951Y001816D01*
X034993Y001768D01*
X035031Y001719D01*
X035066Y001667D01*
X035098Y001613D01*
X035127Y001557D01*
X035152Y001499D01*
X035173Y001440D01*
X035191Y001380D01*
X035204Y001318D01*
X035214Y001256D01*
X035220Y001194D01*
X035222Y001131D01*
X035220Y001068D01*
X035214Y001006D01*
X035204Y000944D01*
X035191Y000882D01*
X035173Y000822D01*
X035152Y000763D01*
X035127Y000705D01*
X035098Y000649D01*
X035066Y000595D01*
X035031Y000543D01*
X034993Y000494D01*
X034951Y000446D01*
X034907Y000402D01*
X034859Y000360D01*
X034810Y000322D01*
X034758Y000287D01*
X034704Y000255D01*
X034648Y000226D01*
X034590Y000201D01*
X034531Y000180D01*
X034471Y000162D01*
X034409Y000149D01*
X034347Y000139D01*
X034285Y000133D01*
X034222Y000131D01*
X034159Y000133D01*
X034097Y000139D01*
X034035Y000149D01*
X033973Y000162D01*
X033913Y000180D01*
X033854Y000201D01*
X033796Y000226D01*
X033740Y000255D01*
X033686Y000287D01*
X033634Y000322D01*
X033585Y000360D01*
X033537Y000402D01*
X033493Y000446D01*
X033451Y000494D01*
X033413Y000543D01*
X033378Y000595D01*
X033346Y000649D01*
X033317Y000705D01*
X033292Y000763D01*
X033271Y000822D01*
X033253Y000882D01*
X033240Y000944D01*
X033230Y001006D01*
X033224Y001068D01*
X033222Y001131D01*
X027947Y004206D02*
X026697Y004206D01*
X026697Y004956D01*
X027947Y004956D01*
X027947Y004206D01*
X026647Y003617D02*
X026649Y003629D01*
X026654Y003640D01*
X026663Y003649D01*
X026674Y003654D01*
X026686Y003656D01*
X026698Y003654D01*
X026709Y003649D01*
X026718Y003640D01*
X026723Y003629D01*
X026725Y003617D01*
X026723Y003605D01*
X026718Y003594D01*
X026709Y003585D01*
X026698Y003580D01*
X026686Y003578D01*
X026674Y003580D01*
X026663Y003585D01*
X026654Y003594D01*
X026649Y003605D01*
X026647Y003617D01*
X025647Y003956D02*
X025647Y003206D01*
X024397Y003206D01*
X024397Y003956D01*
X025647Y003956D01*
X025652Y005255D02*
X025351Y005255D01*
X025276Y005330D01*
X025276Y005480D01*
X025351Y005556D01*
X025276Y005716D02*
X025276Y006016D01*
X025351Y006016D01*
X025652Y005716D01*
X025727Y005716D01*
X025652Y005556D02*
X025727Y005480D01*
X025727Y005330D01*
X025652Y005255D01*
X026322Y006856D02*
X026472Y006856D01*
X026547Y006931D01*
X026707Y006856D02*
X027007Y006856D01*
X026857Y006856D02*
X026857Y007306D01*
X026707Y007156D01*
X026547Y007231D02*
X026472Y007306D01*
X026322Y007306D01*
X026247Y007231D01*
X026247Y006931D01*
X026322Y006856D01*
X027167Y006856D02*
X027468Y007156D01*
X027468Y007231D01*
X027393Y007306D01*
X027242Y007306D01*
X027167Y007231D01*
X027167Y006856D02*
X027468Y006856D01*
X028047Y007906D02*
X028047Y009156D01*
X028797Y009156D01*
X028797Y007906D01*
X028047Y007906D01*
X024797Y007906D02*
X024047Y007906D01*
X024047Y009156D01*
X024797Y009156D01*
X024797Y007906D01*
X023997Y007756D02*
X023997Y007006D01*
X022747Y007006D01*
X022747Y007756D01*
X023997Y007756D01*
X022867Y006026D02*
X022867Y005276D01*
X021617Y005276D01*
X021617Y006026D01*
X022867Y006026D01*
X020797Y005766D02*
X020047Y005766D01*
X020047Y007016D01*
X020797Y007016D01*
X020797Y005766D01*
X020797Y007466D02*
X020047Y007466D01*
X020047Y008716D01*
X020797Y008716D01*
X020797Y007466D01*
X020847Y010006D02*
X020847Y011256D01*
X021597Y011256D01*
X021597Y010006D01*
X020847Y010006D01*
X020097Y010006D02*
X019347Y010006D01*
X019347Y011256D01*
X020097Y011256D01*
X020097Y010006D01*
X020122Y011381D02*
X021322Y011381D01*
X021322Y011981D01*
X020122Y011981D01*
X020122Y011381D01*
X020242Y012131D02*
X021242Y012131D01*
X021242Y015131D01*
X020242Y015131D01*
X020242Y012131D01*
X019742Y012131D02*
X019742Y015131D01*
X018742Y015131D01*
X018742Y012131D01*
X019742Y012131D01*
X018547Y012181D02*
X018547Y012256D01*
X018472Y012331D01*
X018096Y012331D01*
X018096Y012256D02*
X018096Y012406D01*
X018171Y012566D02*
X018096Y012641D01*
X018096Y012792D01*
X018171Y012867D01*
X018246Y012867D01*
X018322Y012792D01*
X018397Y012867D01*
X018472Y012867D01*
X018547Y012792D01*
X018547Y012641D01*
X018472Y012566D01*
X018322Y012716D02*
X018322Y012792D01*
X018547Y012181D02*
X018472Y012106D01*
X016587Y012906D02*
X016286Y012906D01*
X016587Y013206D01*
X016587Y013281D01*
X016512Y013356D01*
X016361Y013356D01*
X016286Y013281D01*
X016286Y013906D02*
X016587Y013906D01*
X016436Y013906D02*
X016436Y014356D01*
X016286Y014206D01*
X018597Y015256D02*
X018597Y016006D01*
X019847Y016006D01*
X019847Y015256D01*
X018597Y015256D01*
X020022Y015231D02*
X020022Y016031D01*
X021422Y016031D01*
X021422Y015231D01*
X020022Y015231D01*
X021396Y013871D02*
X021622Y013646D01*
X021622Y013946D01*
X021847Y013871D02*
X021396Y013871D01*
X021396Y013486D02*
X021396Y013335D01*
X021396Y013410D02*
X021772Y013410D01*
X021847Y013335D01*
X021847Y013260D01*
X021772Y013185D01*
X021672Y012731D02*
X021672Y011531D01*
X022272Y011531D01*
X022272Y012731D01*
X021672Y012731D01*
X021747Y011406D02*
X022997Y011406D01*
X022997Y010656D01*
X021747Y010656D01*
X021747Y011406D01*
X023597Y010756D02*
X023597Y010006D01*
X024847Y010006D01*
X024847Y010756D01*
X023597Y010756D01*
X027172Y012831D02*
X027172Y013431D01*
X028372Y013431D01*
X028372Y012831D01*
X027172Y012831D01*
X027147Y013756D02*
X027147Y014506D01*
X028397Y014506D01*
X028397Y013756D01*
X027147Y013756D01*
X027172Y014831D02*
X028372Y014831D01*
X028372Y015431D01*
X027172Y015431D01*
X027172Y014831D01*
X026247Y014756D02*
X026247Y015506D01*
X024997Y015506D01*
X024997Y014756D01*
X026247Y014756D01*
X026047Y015956D02*
X026047Y016706D01*
X027297Y016706D01*
X027297Y015956D01*
X026047Y015956D01*
X025297Y016556D02*
X024047Y016556D01*
X024047Y017306D01*
X025297Y017306D01*
X025297Y016556D01*
X025297Y017456D02*
X024047Y017456D01*
X024047Y018206D01*
X025297Y018206D01*
X025297Y017456D01*
X026181Y018022D02*
X026181Y016840D01*
X027362Y016840D01*
X027362Y018022D01*
X026181Y018022D01*
X026268Y017825D02*
X026270Y017845D01*
X026275Y017865D01*
X026284Y017883D01*
X026297Y017899D01*
X026312Y017913D01*
X026329Y017923D01*
X026348Y017931D01*
X026368Y017935D01*
X026388Y017935D01*
X026408Y017931D01*
X026427Y017923D01*
X026444Y017913D01*
X026459Y017899D01*
X026472Y017883D01*
X026481Y017865D01*
X026486Y017845D01*
X026488Y017825D01*
X026486Y017805D01*
X026481Y017785D01*
X026472Y017767D01*
X026459Y017751D01*
X026444Y017737D01*
X026427Y017727D01*
X026408Y017719D01*
X026388Y017715D01*
X026368Y017715D01*
X026348Y017719D01*
X026329Y017727D01*
X026312Y017737D01*
X026297Y017751D01*
X026284Y017767D01*
X026275Y017785D01*
X026270Y017805D01*
X026268Y017825D01*
X025497Y018656D02*
X025497Y019406D01*
X024247Y019406D01*
X024247Y018656D01*
X025497Y018656D01*
X023897Y018056D02*
X023147Y018056D01*
X023147Y016806D01*
X023897Y016806D01*
X023897Y018056D01*
X023022Y018031D02*
X023022Y016831D01*
X022422Y016831D01*
X022422Y018031D01*
X023022Y018031D01*
X025222Y021631D02*
X025222Y032131D01*
X025422Y031981D02*
X026022Y031981D01*
X026022Y030781D01*
X025422Y030781D01*
X025422Y031981D01*
X027122Y031381D02*
X027122Y030631D01*
X027822Y030631D01*
X027822Y031381D01*
X027122Y031381D01*
X028222Y031381D02*
X028179Y031435D01*
X028133Y031487D01*
X028084Y031536D01*
X028032Y031583D01*
X027978Y031626D01*
X027922Y031667D01*
X027863Y031704D01*
X027803Y031738D01*
X027740Y031768D01*
X027677Y031795D01*
X027611Y031819D01*
X027545Y031839D01*
X027477Y031855D01*
X027409Y031867D01*
X027340Y031875D01*
X027271Y031880D01*
X027201Y031881D01*
X027132Y031878D01*
X027063Y031871D01*
X026995Y031860D01*
X026927Y031846D01*
X026860Y031827D01*
X026794Y031805D01*
X026729Y031780D01*
X026666Y031751D01*
X026605Y031718D01*
X026546Y031682D01*
X026489Y031643D01*
X026433Y031601D01*
X026381Y031556D01*
X026331Y031508D01*
X026284Y031457D01*
X026239Y031403D01*
X026198Y031348D01*
X026160Y031290D01*
X026125Y031230D01*
X026093Y031168D01*
X026065Y031105D01*
X026041Y031040D01*
X026020Y030974D01*
X026003Y030906D01*
X025989Y030838D01*
X025980Y030769D01*
X025974Y030700D01*
X025972Y030631D01*
X025974Y030562D01*
X025980Y030493D01*
X025989Y030424D01*
X026003Y030356D01*
X026020Y030288D01*
X026041Y030222D01*
X026065Y030157D01*
X026093Y030094D01*
X026125Y030032D01*
X026160Y029972D01*
X026198Y029914D01*
X026239Y029859D01*
X026284Y029805D01*
X026331Y029754D01*
X026381Y029706D01*
X026433Y029661D01*
X026489Y029619D01*
X026546Y029580D01*
X026605Y029544D01*
X026666Y029511D01*
X026729Y029482D01*
X026794Y029457D01*
X026860Y029435D01*
X026927Y029416D01*
X026995Y029402D01*
X027063Y029391D01*
X027132Y029384D01*
X027201Y029381D01*
X027271Y029382D01*
X027340Y029387D01*
X027409Y029395D01*
X027477Y029407D01*
X027545Y029423D01*
X027611Y029443D01*
X027677Y029467D01*
X027740Y029494D01*
X027803Y029524D01*
X027863Y029558D01*
X027922Y029595D01*
X027978Y029636D01*
X028032Y029679D01*
X028084Y029726D01*
X028133Y029775D01*
X028179Y029827D01*
X028222Y029881D01*
X028222Y031381D01*
X028672Y030731D02*
X028672Y029531D01*
X029272Y029531D01*
X029272Y030731D01*
X028672Y030731D01*
X026238Y030631D02*
X026240Y030693D01*
X026246Y030756D01*
X026256Y030817D01*
X026270Y030878D01*
X026287Y030938D01*
X026308Y030997D01*
X026334Y031054D01*
X026362Y031109D01*
X026394Y031163D01*
X026430Y031214D01*
X026468Y031264D01*
X026510Y031310D01*
X026554Y031354D01*
X026602Y031395D01*
X026651Y031433D01*
X026703Y031467D01*
X026757Y031498D01*
X026813Y031526D01*
X026871Y031550D01*
X026930Y031571D01*
X026990Y031587D01*
X027051Y031600D01*
X027113Y031609D01*
X027175Y031614D01*
X027238Y031615D01*
X027300Y031612D01*
X027362Y031605D01*
X027424Y031594D01*
X027484Y031579D01*
X027544Y031561D01*
X027602Y031539D01*
X027659Y031513D01*
X027714Y031483D01*
X027767Y031450D01*
X027818Y031414D01*
X027866Y031375D01*
X027912Y031332D01*
X027955Y031287D01*
X027995Y031239D01*
X028032Y031189D01*
X028066Y031136D01*
X028097Y031082D01*
X028123Y031026D01*
X028147Y030968D01*
X028166Y030908D01*
X028182Y030848D01*
X028194Y030786D01*
X028202Y030725D01*
X028206Y030662D01*
X028206Y030600D01*
X028202Y030537D01*
X028194Y030476D01*
X028182Y030414D01*
X028166Y030354D01*
X028147Y030294D01*
X028123Y030236D01*
X028097Y030180D01*
X028066Y030126D01*
X028032Y030073D01*
X027995Y030023D01*
X027955Y029975D01*
X027912Y029930D01*
X027866Y029887D01*
X027818Y029848D01*
X027767Y029812D01*
X027714Y029779D01*
X027659Y029749D01*
X027602Y029723D01*
X027544Y029701D01*
X027484Y029683D01*
X027424Y029668D01*
X027362Y029657D01*
X027300Y029650D01*
X027238Y029647D01*
X027175Y029648D01*
X027113Y029653D01*
X027051Y029662D01*
X026990Y029675D01*
X026930Y029691D01*
X026871Y029712D01*
X026813Y029736D01*
X026757Y029764D01*
X026703Y029795D01*
X026651Y029829D01*
X026602Y029867D01*
X026554Y029908D01*
X026510Y029952D01*
X026468Y029998D01*
X026430Y030048D01*
X026394Y030099D01*
X026362Y030153D01*
X026334Y030208D01*
X026308Y030265D01*
X026287Y030324D01*
X026270Y030384D01*
X026256Y030445D01*
X026246Y030506D01*
X026240Y030569D01*
X026238Y030631D01*
X026022Y029981D02*
X025422Y029981D01*
X025422Y028781D01*
X026022Y028781D01*
X026022Y029981D01*
X025952Y027881D02*
X025952Y024881D01*
X026952Y024881D01*
X026952Y027881D01*
X025952Y027881D01*
X028247Y027531D02*
X028322Y027606D01*
X028472Y027606D01*
X028547Y027531D01*
X028547Y027456D01*
X028247Y027156D01*
X028547Y027156D01*
X028397Y026606D02*
X028397Y026156D01*
X028247Y026156D02*
X028547Y026156D01*
X028247Y026456D02*
X028397Y026606D01*
X028022Y025031D02*
X028022Y024431D01*
X029222Y024431D01*
X029222Y025031D01*
X028022Y025031D01*
X026907Y024731D02*
X026832Y024806D01*
X026682Y024806D01*
X026607Y024731D01*
X026607Y024656D01*
X026682Y024581D01*
X026907Y024581D01*
X026907Y024431D02*
X026907Y024731D01*
X026907Y024431D02*
X026832Y024356D01*
X026682Y024356D01*
X026607Y024431D01*
X026372Y024431D02*
X026372Y024806D01*
X026297Y024806D02*
X026447Y024806D01*
X026372Y024431D02*
X026297Y024356D01*
X026222Y024356D01*
X026147Y024431D01*
X025222Y022631D02*
X025224Y022694D01*
X025230Y022756D01*
X025240Y022818D01*
X025253Y022880D01*
X025271Y022940D01*
X025292Y022999D01*
X025317Y023057D01*
X025346Y023113D01*
X025378Y023167D01*
X025413Y023219D01*
X025451Y023268D01*
X025493Y023316D01*
X025537Y023360D01*
X025585Y023402D01*
X025634Y023440D01*
X025686Y023475D01*
X025740Y023507D01*
X025796Y023536D01*
X025854Y023561D01*
X025913Y023582D01*
X025973Y023600D01*
X026035Y023613D01*
X026097Y023623D01*
X026159Y023629D01*
X026222Y023631D01*
X026285Y023629D01*
X026347Y023623D01*
X026409Y023613D01*
X026471Y023600D01*
X026531Y023582D01*
X026590Y023561D01*
X026648Y023536D01*
X026704Y023507D01*
X026758Y023475D01*
X026810Y023440D01*
X026859Y023402D01*
X026907Y023360D01*
X026951Y023316D01*
X026993Y023268D01*
X027031Y023219D01*
X027066Y023167D01*
X027098Y023113D01*
X027127Y023057D01*
X027152Y022999D01*
X027173Y022940D01*
X027191Y022880D01*
X027204Y022818D01*
X027214Y022756D01*
X027220Y022694D01*
X027222Y022631D01*
X027220Y022568D01*
X027214Y022506D01*
X027204Y022444D01*
X027191Y022382D01*
X027173Y022322D01*
X027152Y022263D01*
X027127Y022205D01*
X027098Y022149D01*
X027066Y022095D01*
X027031Y022043D01*
X026993Y021994D01*
X026951Y021946D01*
X026907Y021902D01*
X026859Y021860D01*
X026810Y021822D01*
X026758Y021787D01*
X026704Y021755D01*
X026648Y021726D01*
X026590Y021701D01*
X026531Y021680D01*
X026471Y021662D01*
X026409Y021649D01*
X026347Y021639D01*
X026285Y021633D01*
X026222Y021631D01*
X026159Y021633D01*
X026097Y021639D01*
X026035Y021649D01*
X025973Y021662D01*
X025913Y021680D01*
X025854Y021701D01*
X025796Y021726D01*
X025740Y021755D01*
X025686Y021787D01*
X025634Y021822D01*
X025585Y021860D01*
X025537Y021902D01*
X025493Y021946D01*
X025451Y021994D01*
X025413Y022043D01*
X025378Y022095D01*
X025346Y022149D01*
X025317Y022205D01*
X025292Y022263D01*
X025271Y022322D01*
X025253Y022382D01*
X025240Y022444D01*
X025230Y022506D01*
X025224Y022568D01*
X025222Y022631D01*
X025222Y021631D02*
X040222Y021631D01*
X040097Y021806D02*
X039347Y021806D01*
X039347Y023056D01*
X040097Y023056D01*
X040097Y021806D01*
X038872Y020181D02*
X038872Y019581D01*
X037672Y019581D01*
X037672Y020181D01*
X038872Y020181D01*
X038897Y019256D02*
X037647Y019256D01*
X037647Y018506D01*
X038897Y018506D01*
X038897Y019256D01*
X037322Y018181D02*
X037322Y017581D01*
X036122Y017581D01*
X036122Y018181D01*
X037322Y018181D01*
X037072Y018831D02*
X036472Y018831D01*
X036472Y020031D01*
X037072Y020031D01*
X037072Y018831D01*
X037347Y017256D02*
X036097Y017256D01*
X036097Y016506D01*
X037347Y016506D01*
X037347Y017256D01*
X037322Y016181D02*
X036122Y016181D01*
X036122Y015581D01*
X037322Y015581D01*
X037322Y016181D01*
X037540Y016881D02*
X037542Y016949D01*
X037548Y017017D01*
X037558Y017084D01*
X037571Y017151D01*
X037589Y017217D01*
X037610Y017282D01*
X037635Y017345D01*
X037663Y017407D01*
X037696Y017467D01*
X037731Y017525D01*
X037770Y017581D01*
X037812Y017635D01*
X037857Y017686D01*
X037904Y017735D01*
X037955Y017780D01*
X038008Y017823D01*
X038064Y017863D01*
X038121Y017899D01*
X038181Y017932D01*
X038242Y017961D01*
X038305Y017987D01*
X038370Y018009D01*
X038435Y018028D01*
X038502Y018042D01*
X038569Y018053D01*
X038637Y018060D01*
X038705Y018063D01*
X038773Y018062D01*
X038841Y018057D01*
X038909Y018048D01*
X038976Y018035D01*
X039042Y018019D01*
X039107Y017999D01*
X039170Y017975D01*
X039233Y017947D01*
X039293Y017916D01*
X039352Y017881D01*
X039408Y017843D01*
X039463Y017802D01*
X039515Y017758D01*
X039564Y017711D01*
X039610Y017661D01*
X039654Y017608D01*
X039694Y017554D01*
X039731Y017496D01*
X039765Y017437D01*
X039795Y017376D01*
X039822Y017314D01*
X039845Y017249D01*
X039864Y017184D01*
X039880Y017118D01*
X039892Y017051D01*
X039900Y016983D01*
X039904Y016915D01*
X039904Y016847D01*
X039900Y016779D01*
X039892Y016711D01*
X039880Y016644D01*
X039864Y016578D01*
X039845Y016513D01*
X039822Y016448D01*
X039795Y016386D01*
X039765Y016325D01*
X039731Y016266D01*
X039694Y016208D01*
X039654Y016154D01*
X039610Y016101D01*
X039564Y016051D01*
X039515Y016004D01*
X039463Y015960D01*
X039408Y015919D01*
X039352Y015881D01*
X039293Y015846D01*
X039233Y015815D01*
X039170Y015787D01*
X039107Y015763D01*
X039042Y015743D01*
X038976Y015727D01*
X038909Y015714D01*
X038841Y015705D01*
X038773Y015700D01*
X038705Y015699D01*
X038637Y015702D01*
X038569Y015709D01*
X038502Y015720D01*
X038435Y015734D01*
X038370Y015753D01*
X038305Y015775D01*
X038242Y015801D01*
X038181Y015830D01*
X038121Y015863D01*
X038064Y015899D01*
X038008Y015939D01*
X037955Y015982D01*
X037904Y016027D01*
X037857Y016076D01*
X037812Y016127D01*
X037770Y016181D01*
X037731Y016237D01*
X037696Y016295D01*
X037663Y016355D01*
X037635Y016417D01*
X037610Y016480D01*
X037589Y016545D01*
X037571Y016611D01*
X037558Y016678D01*
X037548Y016745D01*
X037542Y016813D01*
X037540Y016881D01*
X034597Y017506D02*
X033847Y017506D01*
X033847Y018756D01*
X034597Y018756D01*
X034597Y017506D01*
X032322Y016931D02*
X032322Y016331D01*
X031122Y016331D01*
X031122Y016931D01*
X032322Y016931D01*
X032347Y016256D02*
X032347Y015506D01*
X031097Y015506D01*
X031097Y016256D01*
X032347Y016256D01*
X031747Y019356D02*
X030997Y019356D01*
X030997Y020606D01*
X031747Y020606D01*
X031747Y019356D01*
X030772Y019381D02*
X030172Y019381D01*
X030172Y020581D01*
X030772Y020581D01*
X030772Y019381D01*
X033722Y020131D02*
X033724Y020194D01*
X033730Y020256D01*
X033740Y020318D01*
X033753Y020380D01*
X033771Y020440D01*
X033792Y020499D01*
X033817Y020557D01*
X033846Y020613D01*
X033878Y020667D01*
X033913Y020719D01*
X033951Y020768D01*
X033993Y020816D01*
X034037Y020860D01*
X034085Y020902D01*
X034134Y020940D01*
X034186Y020975D01*
X034240Y021007D01*
X034296Y021036D01*
X034354Y021061D01*
X034413Y021082D01*
X034473Y021100D01*
X034535Y021113D01*
X034597Y021123D01*
X034659Y021129D01*
X034722Y021131D01*
X034785Y021129D01*
X034847Y021123D01*
X034909Y021113D01*
X034971Y021100D01*
X035031Y021082D01*
X035090Y021061D01*
X035148Y021036D01*
X035204Y021007D01*
X035258Y020975D01*
X035310Y020940D01*
X035359Y020902D01*
X035407Y020860D01*
X035451Y020816D01*
X035493Y020768D01*
X035531Y020719D01*
X035566Y020667D01*
X035598Y020613D01*
X035627Y020557D01*
X035652Y020499D01*
X035673Y020440D01*
X035691Y020380D01*
X035704Y020318D01*
X035714Y020256D01*
X035720Y020194D01*
X035722Y020131D01*
X035720Y020068D01*
X035714Y020006D01*
X035704Y019944D01*
X035691Y019882D01*
X035673Y019822D01*
X035652Y019763D01*
X035627Y019705D01*
X035598Y019649D01*
X035566Y019595D01*
X035531Y019543D01*
X035493Y019494D01*
X035451Y019446D01*
X035407Y019402D01*
X035359Y019360D01*
X035310Y019322D01*
X035258Y019287D01*
X035204Y019255D01*
X035148Y019226D01*
X035090Y019201D01*
X035031Y019180D01*
X034971Y019162D01*
X034909Y019149D01*
X034847Y019139D01*
X034785Y019133D01*
X034722Y019131D01*
X034659Y019133D01*
X034597Y019139D01*
X034535Y019149D01*
X034473Y019162D01*
X034413Y019180D01*
X034354Y019201D01*
X034296Y019226D01*
X034240Y019255D01*
X034186Y019287D01*
X034134Y019322D01*
X034085Y019360D01*
X034037Y019402D01*
X033993Y019446D01*
X033951Y019494D01*
X033913Y019543D01*
X033878Y019595D01*
X033846Y019649D01*
X033817Y019705D01*
X033792Y019763D01*
X033771Y019822D01*
X033753Y019882D01*
X033740Y019944D01*
X033730Y020006D01*
X033724Y020068D01*
X033722Y020131D01*
X034022Y024431D02*
X035222Y024431D01*
X035222Y025031D01*
X034022Y025031D01*
X034022Y024431D01*
X033107Y025381D02*
X033107Y025456D01*
X033032Y025531D01*
X032807Y025531D01*
X032807Y025381D01*
X032882Y025306D01*
X033032Y025306D01*
X033107Y025381D01*
X032957Y025681D02*
X032807Y025531D01*
X032957Y025681D02*
X033107Y025756D01*
X032497Y025756D02*
X032497Y025306D01*
X032347Y025306D02*
X032647Y025306D01*
X032347Y025606D02*
X032497Y025756D01*
X032222Y025031D02*
X031022Y025031D01*
X031022Y024431D01*
X032222Y024431D01*
X032222Y025031D01*
X031822Y028681D02*
X030622Y028681D01*
X030622Y029281D01*
X031822Y029281D01*
X031822Y028681D01*
X033622Y028681D02*
X033622Y029281D01*
X034822Y029281D01*
X034822Y028681D01*
X033622Y028681D01*
X035922Y029081D02*
X035922Y029681D01*
X037122Y029681D01*
X037122Y029081D01*
X035922Y029081D01*
X036172Y030531D02*
X036772Y030531D01*
X036772Y031731D01*
X036172Y031731D01*
X036172Y030531D01*
X038122Y030631D02*
X038122Y031381D01*
X038822Y031381D01*
X038822Y030631D01*
X038122Y030631D01*
X039222Y031381D02*
X039179Y031435D01*
X039133Y031487D01*
X039084Y031536D01*
X039032Y031583D01*
X038978Y031626D01*
X038922Y031667D01*
X038863Y031704D01*
X038803Y031738D01*
X038740Y031768D01*
X038677Y031795D01*
X038611Y031819D01*
X038545Y031839D01*
X038477Y031855D01*
X038409Y031867D01*
X038340Y031875D01*
X038271Y031880D01*
X038201Y031881D01*
X038132Y031878D01*
X038063Y031871D01*
X037995Y031860D01*
X037927Y031846D01*
X037860Y031827D01*
X037794Y031805D01*
X037729Y031780D01*
X037666Y031751D01*
X037605Y031718D01*
X037546Y031682D01*
X037489Y031643D01*
X037433Y031601D01*
X037381Y031556D01*
X037331Y031508D01*
X037284Y031457D01*
X037239Y031403D01*
X037198Y031348D01*
X037160Y031290D01*
X037125Y031230D01*
X037093Y031168D01*
X037065Y031105D01*
X037041Y031040D01*
X037020Y030974D01*
X037003Y030906D01*
X036989Y030838D01*
X036980Y030769D01*
X036974Y030700D01*
X036972Y030631D01*
X036974Y030562D01*
X036980Y030493D01*
X036989Y030424D01*
X037003Y030356D01*
X037020Y030288D01*
X037041Y030222D01*
X037065Y030157D01*
X037093Y030094D01*
X037125Y030032D01*
X037160Y029972D01*
X037198Y029914D01*
X037239Y029859D01*
X037284Y029805D01*
X037331Y029754D01*
X037381Y029706D01*
X037433Y029661D01*
X037489Y029619D01*
X037546Y029580D01*
X037605Y029544D01*
X037666Y029511D01*
X037729Y029482D01*
X037794Y029457D01*
X037860Y029435D01*
X037927Y029416D01*
X037995Y029402D01*
X038063Y029391D01*
X038132Y029384D01*
X038201Y029381D01*
X038271Y029382D01*
X038340Y029387D01*
X038409Y029395D01*
X038477Y029407D01*
X038545Y029423D01*
X038611Y029443D01*
X038677Y029467D01*
X038740Y029494D01*
X038803Y029524D01*
X038863Y029558D01*
X038922Y029595D01*
X038978Y029636D01*
X039032Y029679D01*
X039084Y029726D01*
X039133Y029775D01*
X039179Y029827D01*
X039222Y029881D01*
X039222Y031381D01*
X039422Y031731D02*
X040022Y031731D01*
X040022Y030531D01*
X039422Y030531D01*
X039422Y031731D01*
X037238Y030631D02*
X037240Y030693D01*
X037246Y030756D01*
X037256Y030817D01*
X037270Y030878D01*
X037287Y030938D01*
X037308Y030997D01*
X037334Y031054D01*
X037362Y031109D01*
X037394Y031163D01*
X037430Y031214D01*
X037468Y031264D01*
X037510Y031310D01*
X037554Y031354D01*
X037602Y031395D01*
X037651Y031433D01*
X037703Y031467D01*
X037757Y031498D01*
X037813Y031526D01*
X037871Y031550D01*
X037930Y031571D01*
X037990Y031587D01*
X038051Y031600D01*
X038113Y031609D01*
X038175Y031614D01*
X038238Y031615D01*
X038300Y031612D01*
X038362Y031605D01*
X038424Y031594D01*
X038484Y031579D01*
X038544Y031561D01*
X038602Y031539D01*
X038659Y031513D01*
X038714Y031483D01*
X038767Y031450D01*
X038818Y031414D01*
X038866Y031375D01*
X038912Y031332D01*
X038955Y031287D01*
X038995Y031239D01*
X039032Y031189D01*
X039066Y031136D01*
X039097Y031082D01*
X039123Y031026D01*
X039147Y030968D01*
X039166Y030908D01*
X039182Y030848D01*
X039194Y030786D01*
X039202Y030725D01*
X039206Y030662D01*
X039206Y030600D01*
X039202Y030537D01*
X039194Y030476D01*
X039182Y030414D01*
X039166Y030354D01*
X039147Y030294D01*
X039123Y030236D01*
X039097Y030180D01*
X039066Y030126D01*
X039032Y030073D01*
X038995Y030023D01*
X038955Y029975D01*
X038912Y029930D01*
X038866Y029887D01*
X038818Y029848D01*
X038767Y029812D01*
X038714Y029779D01*
X038659Y029749D01*
X038602Y029723D01*
X038544Y029701D01*
X038484Y029683D01*
X038424Y029668D01*
X038362Y029657D01*
X038300Y029650D01*
X038238Y029647D01*
X038175Y029648D01*
X038113Y029653D01*
X038051Y029662D01*
X037990Y029675D01*
X037930Y029691D01*
X037871Y029712D01*
X037813Y029736D01*
X037757Y029764D01*
X037703Y029795D01*
X037651Y029829D01*
X037602Y029867D01*
X037554Y029908D01*
X037510Y029952D01*
X037468Y029998D01*
X037430Y030048D01*
X037394Y030099D01*
X037362Y030153D01*
X037334Y030208D01*
X037308Y030265D01*
X037287Y030324D01*
X037270Y030384D01*
X037256Y030445D01*
X037246Y030506D01*
X037240Y030569D01*
X037238Y030631D01*
X038222Y028531D02*
X038224Y028594D01*
X038230Y028656D01*
X038240Y028718D01*
X038253Y028780D01*
X038271Y028840D01*
X038292Y028899D01*
X038317Y028957D01*
X038346Y029013D01*
X038378Y029067D01*
X038413Y029119D01*
X038451Y029168D01*
X038493Y029216D01*
X038537Y029260D01*
X038585Y029302D01*
X038634Y029340D01*
X038686Y029375D01*
X038740Y029407D01*
X038796Y029436D01*
X038854Y029461D01*
X038913Y029482D01*
X038973Y029500D01*
X039035Y029513D01*
X039097Y029523D01*
X039159Y029529D01*
X039222Y029531D01*
X039285Y029529D01*
X039347Y029523D01*
X039409Y029513D01*
X039471Y029500D01*
X039531Y029482D01*
X039590Y029461D01*
X039648Y029436D01*
X039704Y029407D01*
X039758Y029375D01*
X039810Y029340D01*
X039859Y029302D01*
X039907Y029260D01*
X039951Y029216D01*
X039993Y029168D01*
X040031Y029119D01*
X040066Y029067D01*
X040098Y029013D01*
X040127Y028957D01*
X040152Y028899D01*
X040173Y028840D01*
X040191Y028780D01*
X040204Y028718D01*
X040214Y028656D01*
X040220Y028594D01*
X040222Y028531D01*
X040220Y028468D01*
X040214Y028406D01*
X040204Y028344D01*
X040191Y028282D01*
X040173Y028222D01*
X040152Y028163D01*
X040127Y028105D01*
X040098Y028049D01*
X040066Y027995D01*
X040031Y027943D01*
X039993Y027894D01*
X039951Y027846D01*
X039907Y027802D01*
X039859Y027760D01*
X039810Y027722D01*
X039758Y027687D01*
X039704Y027655D01*
X039648Y027626D01*
X039590Y027601D01*
X039531Y027580D01*
X039471Y027562D01*
X039409Y027549D01*
X039347Y027539D01*
X039285Y027533D01*
X039222Y027531D01*
X039159Y027533D01*
X039097Y027539D01*
X039035Y027549D01*
X038973Y027562D01*
X038913Y027580D01*
X038854Y027601D01*
X038796Y027626D01*
X038740Y027655D01*
X038686Y027687D01*
X038634Y027722D01*
X038585Y027760D01*
X038537Y027802D01*
X038493Y027846D01*
X038451Y027894D01*
X038413Y027943D01*
X038378Y027995D01*
X038346Y028049D01*
X038317Y028105D01*
X038292Y028163D01*
X038271Y028222D01*
X038253Y028282D01*
X038240Y028344D01*
X038230Y028406D01*
X038224Y028468D01*
X038222Y028531D01*
X038597Y027006D02*
X038597Y026256D01*
X039847Y026256D01*
X039847Y027006D01*
X038597Y027006D01*
X038947Y025417D02*
X038949Y025429D01*
X038954Y025440D01*
X038963Y025449D01*
X038974Y025454D01*
X038986Y025456D01*
X038998Y025454D01*
X039009Y025449D01*
X039018Y025440D01*
X039023Y025429D01*
X039025Y025417D01*
X039023Y025405D01*
X039018Y025394D01*
X039009Y025385D01*
X038998Y025380D01*
X038986Y025378D01*
X038974Y025380D01*
X038963Y025385D01*
X038954Y025394D01*
X038949Y025405D01*
X038947Y025417D01*
X038222Y025031D02*
X038222Y024431D01*
X037022Y024431D01*
X037022Y025031D01*
X038222Y025031D01*
X022622Y031031D02*
X022624Y031094D01*
X022630Y031156D01*
X022640Y031218D01*
X022653Y031280D01*
X022671Y031340D01*
X022692Y031399D01*
X022717Y031457D01*
X022746Y031513D01*
X022778Y031567D01*
X022813Y031619D01*
X022851Y031668D01*
X022893Y031716D01*
X022937Y031760D01*
X022985Y031802D01*
X023034Y031840D01*
X023086Y031875D01*
X023140Y031907D01*
X023196Y031936D01*
X023254Y031961D01*
X023313Y031982D01*
X023373Y032000D01*
X023435Y032013D01*
X023497Y032023D01*
X023559Y032029D01*
X023622Y032031D01*
X023685Y032029D01*
X023747Y032023D01*
X023809Y032013D01*
X023871Y032000D01*
X023931Y031982D01*
X023990Y031961D01*
X024048Y031936D01*
X024104Y031907D01*
X024158Y031875D01*
X024210Y031840D01*
X024259Y031802D01*
X024307Y031760D01*
X024351Y031716D01*
X024393Y031668D01*
X024431Y031619D01*
X024466Y031567D01*
X024498Y031513D01*
X024527Y031457D01*
X024552Y031399D01*
X024573Y031340D01*
X024591Y031280D01*
X024604Y031218D01*
X024614Y031156D01*
X024620Y031094D01*
X024622Y031031D01*
X024620Y030968D01*
X024614Y030906D01*
X024604Y030844D01*
X024591Y030782D01*
X024573Y030722D01*
X024552Y030663D01*
X024527Y030605D01*
X024498Y030549D01*
X024466Y030495D01*
X024431Y030443D01*
X024393Y030394D01*
X024351Y030346D01*
X024307Y030302D01*
X024259Y030260D01*
X024210Y030222D01*
X024158Y030187D01*
X024104Y030155D01*
X024048Y030126D01*
X023990Y030101D01*
X023931Y030080D01*
X023871Y030062D01*
X023809Y030049D01*
X023747Y030039D01*
X023685Y030033D01*
X023622Y030031D01*
X023559Y030033D01*
X023497Y030039D01*
X023435Y030049D01*
X023373Y030062D01*
X023313Y030080D01*
X023254Y030101D01*
X023196Y030126D01*
X023140Y030155D01*
X023086Y030187D01*
X023034Y030222D01*
X022985Y030260D01*
X022937Y030302D01*
X022893Y030346D01*
X022851Y030394D01*
X022813Y030443D01*
X022778Y030495D01*
X022746Y030549D01*
X022717Y030605D01*
X022692Y030663D01*
X022671Y030722D01*
X022653Y030782D01*
X022640Y030844D01*
X022630Y030906D01*
X022624Y030968D01*
X022622Y031031D01*
X011947Y026342D02*
X011947Y026191D01*
X011872Y026116D01*
X011797Y026116D01*
X011722Y026191D01*
X011722Y026342D01*
X011797Y026417D01*
X011872Y026417D01*
X011947Y026342D01*
X011722Y026342D02*
X011646Y026417D01*
X011571Y026417D01*
X011496Y026342D01*
X011496Y026191D01*
X011571Y026116D01*
X011646Y026116D01*
X011722Y026191D01*
X011496Y025956D02*
X011496Y025806D01*
X011496Y025881D02*
X011872Y025881D01*
X011947Y025806D01*
X011947Y025731D01*
X011872Y025656D01*
X010952Y025631D02*
X010952Y025131D01*
X008452Y025131D01*
X008452Y029131D01*
X010952Y029131D01*
X010952Y028631D01*
X010372Y028631D01*
X010372Y025631D01*
X010952Y025631D01*
X010952Y028631D01*
X005722Y024361D02*
X005722Y021861D01*
X002722Y021861D01*
X002722Y024361D01*
X003222Y024361D01*
X003222Y023781D01*
X005222Y023781D01*
X005222Y024361D01*
X003222Y024361D01*
X004326Y024981D02*
X004401Y024906D01*
X004476Y024906D01*
X004551Y024981D01*
X004551Y025356D01*
X004476Y025356D02*
X004626Y025356D01*
X004786Y025356D02*
X005087Y025356D01*
X005087Y025281D01*
X004786Y024981D01*
X004786Y024906D01*
X005222Y024361D02*
X005722Y024361D01*
X008322Y022731D02*
X008324Y022794D01*
X008330Y022856D01*
X008340Y022918D01*
X008353Y022980D01*
X008371Y023040D01*
X008392Y023099D01*
X008417Y023157D01*
X008446Y023213D01*
X008478Y023267D01*
X008513Y023319D01*
X008551Y023368D01*
X008593Y023416D01*
X008637Y023460D01*
X008685Y023502D01*
X008734Y023540D01*
X008786Y023575D01*
X008840Y023607D01*
X008896Y023636D01*
X008954Y023661D01*
X009013Y023682D01*
X009073Y023700D01*
X009135Y023713D01*
X009197Y023723D01*
X009259Y023729D01*
X009322Y023731D01*
X009385Y023729D01*
X009447Y023723D01*
X009509Y023713D01*
X009571Y023700D01*
X009631Y023682D01*
X009690Y023661D01*
X009748Y023636D01*
X009804Y023607D01*
X009858Y023575D01*
X009910Y023540D01*
X009959Y023502D01*
X010007Y023460D01*
X010051Y023416D01*
X010093Y023368D01*
X010131Y023319D01*
X010166Y023267D01*
X010198Y023213D01*
X010227Y023157D01*
X010252Y023099D01*
X010273Y023040D01*
X010291Y022980D01*
X010304Y022918D01*
X010314Y022856D01*
X010320Y022794D01*
X010322Y022731D01*
X010320Y022668D01*
X010314Y022606D01*
X010304Y022544D01*
X010291Y022482D01*
X010273Y022422D01*
X010252Y022363D01*
X010227Y022305D01*
X010198Y022249D01*
X010166Y022195D01*
X010131Y022143D01*
X010093Y022094D01*
X010051Y022046D01*
X010007Y022002D01*
X009959Y021960D01*
X009910Y021922D01*
X009858Y021887D01*
X009804Y021855D01*
X009748Y021826D01*
X009690Y021801D01*
X009631Y021780D01*
X009571Y021762D01*
X009509Y021749D01*
X009447Y021739D01*
X009385Y021733D01*
X009322Y021731D01*
X009259Y021733D01*
X009197Y021739D01*
X009135Y021749D01*
X009073Y021762D01*
X009013Y021780D01*
X008954Y021801D01*
X008896Y021826D01*
X008840Y021855D01*
X008786Y021887D01*
X008734Y021922D01*
X008685Y021960D01*
X008637Y022002D01*
X008593Y022046D01*
X008551Y022094D01*
X008513Y022143D01*
X008478Y022195D01*
X008446Y022249D01*
X008417Y022305D01*
X008392Y022363D01*
X008371Y022422D01*
X008353Y022482D01*
X008340Y022544D01*
X008330Y022606D01*
X008324Y022668D01*
X008322Y022731D01*
X009422Y018431D02*
X009422Y017231D01*
X010022Y017231D01*
X010022Y018431D01*
X009422Y018431D01*
X011876Y015206D02*
X011876Y014756D01*
X011726Y014756D02*
X012026Y014756D01*
X012186Y014831D02*
X012261Y014756D01*
X012411Y014756D01*
X012487Y014831D01*
X012487Y014906D01*
X012411Y014981D01*
X012186Y014981D01*
X012186Y014831D01*
X012186Y014981D02*
X012336Y015131D01*
X012487Y015206D01*
X011876Y015206D02*
X011726Y015056D01*
X014422Y017231D02*
X015022Y017231D01*
X015022Y018431D01*
X014422Y018431D01*
X014422Y017231D01*
X013147Y011606D02*
X011897Y011606D01*
X011897Y010856D01*
X013147Y010856D01*
X013147Y011606D01*
X011222Y011231D02*
X010622Y011231D01*
X010622Y010031D01*
X011222Y010031D01*
X011222Y011231D01*
X010522Y011231D02*
X009922Y011231D01*
X009922Y010031D01*
X010522Y010031D01*
X010522Y011231D01*
X009747Y010806D02*
X009747Y010056D01*
X008497Y010056D01*
X008497Y010806D01*
X009747Y010806D01*
X011047Y009016D02*
X011797Y009016D01*
X011797Y007766D01*
X011047Y007766D01*
X011047Y009016D01*
X012297Y008766D02*
X012297Y008016D01*
X013547Y008016D01*
X013547Y008766D01*
X012297Y008766D01*
X011797Y007016D02*
X011047Y007016D01*
X011047Y005766D01*
X011797Y005766D01*
X011797Y007016D01*
X012297Y005766D02*
X012297Y005016D01*
X013547Y005016D01*
X013547Y005766D01*
X012297Y005766D01*
X010722Y004401D02*
X006722Y004401D01*
X006722Y001901D01*
X007222Y001901D01*
X007222Y002481D01*
X010222Y002481D01*
X010222Y001901D01*
X010722Y001901D01*
X010722Y004401D01*
X010222Y001901D02*
X007222Y001901D01*
X007397Y001356D02*
X007547Y001356D01*
X007472Y001356D02*
X007472Y000981D01*
X007397Y000906D01*
X007322Y000906D01*
X007247Y000981D01*
X007707Y000906D02*
X008007Y000906D01*
X007857Y000906D02*
X007857Y001356D01*
X007707Y001206D01*
X003722Y001131D02*
X003724Y001194D01*
X003730Y001256D01*
X003740Y001318D01*
X003753Y001380D01*
X003771Y001440D01*
X003792Y001499D01*
X003817Y001557D01*
X003846Y001613D01*
X003878Y001667D01*
X003913Y001719D01*
X003951Y001768D01*
X003993Y001816D01*
X004037Y001860D01*
X004085Y001902D01*
X004134Y001940D01*
X004186Y001975D01*
X004240Y002007D01*
X004296Y002036D01*
X004354Y002061D01*
X004413Y002082D01*
X004473Y002100D01*
X004535Y002113D01*
X004597Y002123D01*
X004659Y002129D01*
X004722Y002131D01*
X004785Y002129D01*
X004847Y002123D01*
X004909Y002113D01*
X004971Y002100D01*
X005031Y002082D01*
X005090Y002061D01*
X005148Y002036D01*
X005204Y002007D01*
X005258Y001975D01*
X005310Y001940D01*
X005359Y001902D01*
X005407Y001860D01*
X005451Y001816D01*
X005493Y001768D01*
X005531Y001719D01*
X005566Y001667D01*
X005598Y001613D01*
X005627Y001557D01*
X005652Y001499D01*
X005673Y001440D01*
X005691Y001380D01*
X005704Y001318D01*
X005714Y001256D01*
X005720Y001194D01*
X005722Y001131D01*
X005720Y001068D01*
X005714Y001006D01*
X005704Y000944D01*
X005691Y000882D01*
X005673Y000822D01*
X005652Y000763D01*
X005627Y000705D01*
X005598Y000649D01*
X005566Y000595D01*
X005531Y000543D01*
X005493Y000494D01*
X005451Y000446D01*
X005407Y000402D01*
X005359Y000360D01*
X005310Y000322D01*
X005258Y000287D01*
X005204Y000255D01*
X005148Y000226D01*
X005090Y000201D01*
X005031Y000180D01*
X004971Y000162D01*
X004909Y000149D01*
X004847Y000139D01*
X004785Y000133D01*
X004722Y000131D01*
X004659Y000133D01*
X004597Y000139D01*
X004535Y000149D01*
X004473Y000162D01*
X004413Y000180D01*
X004354Y000201D01*
X004296Y000226D01*
X004240Y000255D01*
X004186Y000287D01*
X004134Y000322D01*
X004085Y000360D01*
X004037Y000402D01*
X003993Y000446D01*
X003951Y000494D01*
X003913Y000543D01*
X003878Y000595D01*
X003846Y000649D01*
X003817Y000705D01*
X003792Y000763D01*
X003771Y000822D01*
X003753Y000882D01*
X003740Y000944D01*
X003730Y001006D01*
X003724Y001068D01*
X003722Y001131D01*
X001297Y000906D02*
X000547Y000906D01*
X000547Y002156D01*
X001297Y002156D01*
X001297Y000906D01*
X006222Y004531D02*
X006222Y005131D01*
X007422Y005131D01*
X007422Y004531D01*
X006222Y004531D01*
X006222Y005231D02*
X006222Y005831D01*
X007422Y005831D01*
X007422Y005231D01*
X006222Y005231D01*
X006222Y005931D02*
X007422Y005931D01*
X007422Y006531D01*
X006222Y006531D01*
X006222Y005931D01*
X005822Y006231D02*
X005822Y006831D01*
X004622Y006831D01*
X004622Y006231D01*
X005822Y006231D01*
X005822Y006881D02*
X005822Y007481D01*
X004622Y007481D01*
X004622Y006881D01*
X005822Y006881D01*
X001522Y010131D02*
X000922Y010131D01*
X000922Y011331D01*
X001522Y011331D01*
X001522Y010131D01*
X005447Y014006D02*
X005447Y015256D01*
X006197Y015256D01*
X006197Y014006D01*
X005447Y014006D01*
X001522Y016281D02*
X001522Y017481D01*
X000922Y017481D01*
X000922Y016281D01*
X001522Y016281D01*
X001222Y020131D02*
X001224Y020194D01*
X001230Y020256D01*
X001240Y020318D01*
X001253Y020380D01*
X001271Y020440D01*
X001292Y020499D01*
X001317Y020557D01*
X001346Y020613D01*
X001378Y020667D01*
X001413Y020719D01*
X001451Y020768D01*
X001493Y020816D01*
X001537Y020860D01*
X001585Y020902D01*
X001634Y020940D01*
X001686Y020975D01*
X001740Y021007D01*
X001796Y021036D01*
X001854Y021061D01*
X001913Y021082D01*
X001973Y021100D01*
X002035Y021113D01*
X002097Y021123D01*
X002159Y021129D01*
X002222Y021131D01*
X002285Y021129D01*
X002347Y021123D01*
X002409Y021113D01*
X002471Y021100D01*
X002531Y021082D01*
X002590Y021061D01*
X002648Y021036D01*
X002704Y021007D01*
X002758Y020975D01*
X002810Y020940D01*
X002859Y020902D01*
X002907Y020860D01*
X002951Y020816D01*
X002993Y020768D01*
X003031Y020719D01*
X003066Y020667D01*
X003098Y020613D01*
X003127Y020557D01*
X003152Y020499D01*
X003173Y020440D01*
X003191Y020380D01*
X003204Y020318D01*
X003214Y020256D01*
X003220Y020194D01*
X003222Y020131D01*
X003220Y020068D01*
X003214Y020006D01*
X003204Y019944D01*
X003191Y019882D01*
X003173Y019822D01*
X003152Y019763D01*
X003127Y019705D01*
X003098Y019649D01*
X003066Y019595D01*
X003031Y019543D01*
X002993Y019494D01*
X002951Y019446D01*
X002907Y019402D01*
X002859Y019360D01*
X002810Y019322D01*
X002758Y019287D01*
X002704Y019255D01*
X002648Y019226D01*
X002590Y019201D01*
X002531Y019180D01*
X002471Y019162D01*
X002409Y019149D01*
X002347Y019139D01*
X002285Y019133D01*
X002222Y019131D01*
X002159Y019133D01*
X002097Y019139D01*
X002035Y019149D01*
X001973Y019162D01*
X001913Y019180D01*
X001854Y019201D01*
X001796Y019226D01*
X001740Y019255D01*
X001686Y019287D01*
X001634Y019322D01*
X001585Y019360D01*
X001537Y019402D01*
X001493Y019446D01*
X001451Y019494D01*
X001413Y019543D01*
X001378Y019595D01*
X001346Y019649D01*
X001317Y019705D01*
X001292Y019763D01*
X001271Y019822D01*
X001253Y019882D01*
X001240Y019944D01*
X001230Y020006D01*
X001224Y020068D01*
X001222Y020131D01*
X001321Y028106D02*
X001622Y028106D01*
X001697Y028181D01*
X001697Y028331D01*
X001622Y028406D01*
X001622Y028566D02*
X001697Y028641D01*
X001697Y028792D01*
X001622Y028867D01*
X001547Y028867D01*
X001472Y028792D01*
X001472Y028716D01*
X001472Y028792D02*
X001396Y028867D01*
X001321Y028867D01*
X001246Y028792D01*
X001246Y028641D01*
X001321Y028566D01*
X001321Y028406D02*
X001246Y028331D01*
X001246Y028181D01*
X001321Y028106D01*
X001321Y029027D02*
X001396Y029027D01*
X001472Y029102D01*
X001472Y029327D01*
X001622Y029327D02*
X001321Y029327D01*
X001246Y029252D01*
X001246Y029102D01*
X001321Y029027D01*
X001622Y029027D02*
X001697Y029102D01*
X001697Y029252D01*
X001622Y029327D01*
X040065Y013905D02*
X039852Y012959D01*
X039684Y012005D01*
X039562Y011043D01*
X039486Y010076D01*
X039455Y009107D01*
X039470Y008138D01*
X039530Y007170D01*
X039637Y006206D01*
X039789Y005249D01*
X039986Y004299D01*
D11*
X037009Y002785D02*
X036932Y002861D01*
X036779Y002861D01*
X036702Y002785D01*
X036549Y002785D02*
X036472Y002861D01*
X036318Y002861D01*
X036242Y002785D01*
X036242Y002478D01*
X036318Y002401D01*
X036472Y002401D01*
X036549Y002478D01*
X036702Y002401D02*
X037009Y002708D01*
X037009Y002785D01*
X037009Y002401D02*
X036702Y002401D01*
X036856Y001861D02*
X036856Y001401D01*
X037009Y001401D02*
X036702Y001401D01*
X036549Y001401D02*
X036395Y001554D01*
X036472Y001554D02*
X036242Y001554D01*
X036242Y001401D02*
X036242Y001861D01*
X036472Y001861D01*
X036549Y001785D01*
X036549Y001631D01*
X036472Y001554D01*
X036702Y001708D02*
X036856Y001861D01*
X037950Y000949D02*
X038103Y000949D01*
X038027Y000949D02*
X038027Y000488D01*
X038103Y000488D02*
X037950Y000488D01*
X038257Y000565D02*
X038334Y000488D01*
X038487Y000488D01*
X038564Y000565D01*
X038717Y000488D02*
X039024Y000488D01*
X038871Y000488D02*
X038871Y000949D01*
X038717Y000795D01*
X038564Y000872D02*
X038487Y000949D01*
X038334Y000949D01*
X038257Y000872D01*
X038257Y000565D01*
X033312Y003308D02*
X033236Y003308D01*
X033082Y003154D01*
X033082Y003001D02*
X033082Y003308D01*
X032929Y003231D02*
X032929Y003154D01*
X032622Y003154D01*
X032622Y003078D02*
X032622Y003231D01*
X032699Y003308D01*
X032852Y003308D01*
X032929Y003231D01*
X032852Y003001D02*
X032699Y003001D01*
X032622Y003078D01*
X032469Y003001D02*
X032392Y003078D01*
X032392Y003385D01*
X032315Y003308D02*
X032469Y003308D01*
X032162Y003231D02*
X032162Y003154D01*
X031855Y003154D01*
X031855Y003078D02*
X031855Y003231D01*
X031931Y003308D01*
X032085Y003308D01*
X032162Y003231D01*
X032085Y003001D02*
X031931Y003001D01*
X031855Y003078D01*
X031701Y003001D02*
X031701Y003231D01*
X031625Y003308D01*
X031548Y003231D01*
X031548Y003001D01*
X031394Y003001D02*
X031394Y003308D01*
X031471Y003308D01*
X031548Y003231D01*
X031241Y003231D02*
X031164Y003308D01*
X031011Y003308D01*
X030934Y003231D01*
X030934Y003078D01*
X031011Y003001D01*
X031164Y003001D01*
X031241Y003078D01*
X031241Y003231D01*
X030781Y003308D02*
X030704Y003308D01*
X030550Y003154D01*
X030550Y003001D02*
X030550Y003308D01*
X030397Y003231D02*
X030397Y003154D01*
X030090Y003154D01*
X030090Y003078D02*
X030090Y003231D01*
X030167Y003308D01*
X030320Y003308D01*
X030397Y003231D01*
X030320Y003001D02*
X030167Y003001D01*
X030090Y003078D01*
X029937Y003001D02*
X029783Y003001D01*
X029860Y003001D02*
X029860Y003461D01*
X029783Y003461D01*
X029630Y003231D02*
X029630Y003154D01*
X029323Y003154D01*
X029323Y003078D02*
X029323Y003231D01*
X029399Y003308D01*
X029553Y003308D01*
X029630Y003231D01*
X029553Y003001D02*
X029399Y003001D01*
X029323Y003078D01*
X029169Y003001D02*
X028939Y003001D01*
X028862Y003078D01*
X028862Y003231D01*
X028939Y003308D01*
X029169Y003308D01*
X028709Y003308D02*
X028479Y003308D01*
X028402Y003231D01*
X028402Y003078D01*
X028479Y003001D01*
X028709Y003001D01*
X028249Y003001D02*
X028018Y003001D01*
X027942Y003078D01*
X028018Y003154D01*
X028249Y003154D01*
X028249Y003231D02*
X028249Y003001D01*
X028249Y003231D02*
X028172Y003308D01*
X028018Y003308D01*
X028422Y002388D02*
X028422Y002311D01*
X028422Y002158D02*
X028422Y001851D01*
X028345Y001851D02*
X028499Y001851D01*
X028652Y001928D02*
X028729Y001851D01*
X028959Y001851D01*
X029113Y001851D02*
X029343Y001851D01*
X029419Y001928D01*
X029343Y002004D01*
X029189Y002004D01*
X029113Y002081D01*
X029189Y002158D01*
X029419Y002158D01*
X028959Y002158D02*
X028729Y002158D01*
X028652Y002081D01*
X028652Y001928D01*
X028422Y002158D02*
X028345Y002158D01*
X028192Y002158D02*
X028038Y002158D01*
X028115Y002235D02*
X028115Y001928D01*
X028192Y001851D01*
X027885Y001928D02*
X027885Y002081D01*
X027808Y002158D01*
X027655Y002158D01*
X027578Y002081D01*
X027578Y001928D01*
X027655Y001851D01*
X027808Y001851D01*
X027885Y001928D01*
X027425Y001928D02*
X027425Y002081D01*
X027348Y002158D01*
X027118Y002158D01*
X027118Y002311D02*
X027118Y001851D01*
X027348Y001851D01*
X027425Y001928D01*
X026964Y001928D02*
X026964Y002081D01*
X026888Y002158D01*
X026734Y002158D01*
X026657Y002081D01*
X026657Y001928D01*
X026734Y001851D01*
X026888Y001851D01*
X026964Y001928D01*
X026504Y001851D02*
X026350Y002004D01*
X026427Y002004D02*
X026197Y002004D01*
X026197Y001851D02*
X026197Y002311D01*
X026427Y002311D01*
X026504Y002235D01*
X026504Y002081D01*
X026427Y002004D01*
X025583Y001851D02*
X025430Y001851D01*
X025506Y001851D02*
X025506Y002158D01*
X025430Y002158D01*
X025506Y002311D02*
X025506Y002388D01*
X025282Y002551D02*
X025129Y002551D01*
X025052Y002628D01*
X024899Y002628D02*
X024822Y002551D01*
X024668Y002551D01*
X024592Y002628D01*
X024592Y002935D01*
X024668Y003011D01*
X024822Y003011D01*
X024899Y002935D01*
X025052Y002935D02*
X025129Y003011D01*
X025282Y003011D01*
X025359Y002935D01*
X025359Y002858D01*
X025282Y002781D01*
X025359Y002704D01*
X025359Y002628D01*
X025282Y002551D01*
X025282Y002781D02*
X025206Y002781D01*
X025200Y002158D02*
X025123Y002081D01*
X025123Y001851D01*
X025276Y001851D02*
X025276Y002081D01*
X025200Y002158D01*
X025123Y002081D02*
X025046Y002158D01*
X024969Y002158D01*
X024969Y001851D01*
X024816Y001851D02*
X024586Y001851D01*
X024509Y001928D01*
X024586Y002004D01*
X024816Y002004D01*
X024816Y002081D02*
X024816Y001851D01*
X024816Y002081D02*
X024739Y002158D01*
X024586Y002158D01*
X024356Y002158D02*
X024125Y002158D01*
X024049Y002081D01*
X024049Y001928D01*
X024125Y001851D01*
X024356Y001851D01*
X024356Y001774D02*
X024356Y002158D01*
X024356Y001774D02*
X024279Y001698D01*
X024202Y001698D01*
X023895Y001851D02*
X023742Y001851D01*
X023819Y001851D02*
X023819Y002158D01*
X023742Y002158D01*
X023588Y002158D02*
X023512Y002158D01*
X023358Y002004D01*
X023358Y001851D02*
X023358Y002158D01*
X023205Y002235D02*
X023128Y002311D01*
X022975Y002311D01*
X022898Y002235D01*
X022898Y001928D01*
X022975Y001851D01*
X023128Y001851D01*
X023205Y001928D01*
X023205Y002235D01*
X023819Y002311D02*
X023819Y002388D01*
X022284Y002235D02*
X022207Y002311D01*
X022054Y002311D01*
X021977Y002235D01*
X022284Y002235D02*
X022284Y002158D01*
X021977Y001851D01*
X022284Y001851D01*
X021824Y001851D02*
X021517Y001851D01*
X021670Y001851D02*
X021670Y002311D01*
X021517Y002158D01*
X021363Y002235D02*
X021056Y001928D01*
X021133Y001851D01*
X021287Y001851D01*
X021363Y001928D01*
X021363Y002235D01*
X021287Y002311D01*
X021133Y002311D01*
X021056Y002235D01*
X021056Y001928D01*
X020903Y001851D02*
X020596Y001851D01*
X020903Y002158D01*
X020903Y002235D01*
X020826Y002311D01*
X020673Y002311D01*
X020596Y002235D01*
X019982Y002158D02*
X019829Y002311D01*
X019982Y002158D02*
X019982Y002004D01*
X019829Y001851D01*
X019675Y001851D02*
X019445Y001851D01*
X019369Y001928D01*
X019369Y002081D01*
X019445Y002158D01*
X019675Y002158D01*
X019215Y002311D02*
X019062Y002158D01*
X019062Y002004D01*
X019215Y001851D01*
X018448Y001851D02*
X018371Y001928D01*
X018371Y002235D01*
X018294Y002158D02*
X018448Y002158D01*
X018141Y002081D02*
X018141Y001851D01*
X018141Y002081D02*
X018064Y002158D01*
X017911Y002158D01*
X017834Y002081D01*
X017681Y002158D02*
X017681Y001774D01*
X017604Y001698D01*
X017527Y001698D01*
X017450Y001851D02*
X017681Y001851D01*
X017834Y001851D02*
X017834Y002311D01*
X017681Y002158D02*
X017450Y002158D01*
X017374Y002081D01*
X017374Y001928D01*
X017450Y001851D01*
X017220Y001851D02*
X017067Y001851D01*
X017143Y001851D02*
X017143Y002158D01*
X017067Y002158D01*
X016913Y002158D02*
X016837Y002158D01*
X016683Y002004D01*
X016683Y001851D02*
X016683Y002158D01*
X016530Y002158D02*
X016530Y001774D01*
X016453Y001698D01*
X016376Y001698D01*
X016299Y001851D02*
X016530Y001851D01*
X016299Y001851D02*
X016223Y001928D01*
X016223Y002158D01*
X016069Y002081D02*
X016069Y001928D01*
X015993Y001851D01*
X015762Y001851D01*
X015762Y001698D02*
X015762Y002158D01*
X015993Y002158D01*
X016069Y002081D01*
X015609Y002081D02*
X015609Y001928D01*
X015532Y001851D01*
X015379Y001851D01*
X015302Y001928D01*
X015302Y002081D01*
X015379Y002158D01*
X015532Y002158D01*
X015609Y002081D01*
X015149Y002158D02*
X014918Y002158D01*
X014842Y002081D01*
X014842Y001928D01*
X014918Y001851D01*
X015149Y001851D01*
X017143Y002311D02*
X017143Y002388D01*
X013709Y004488D02*
X013632Y004411D01*
X013479Y004411D01*
X013402Y004488D01*
X013402Y004641D02*
X013556Y004718D01*
X013632Y004718D01*
X013709Y004641D01*
X013709Y004488D01*
X013402Y004641D02*
X013402Y004871D01*
X013709Y004871D01*
X013249Y004795D02*
X013172Y004871D01*
X013018Y004871D01*
X012942Y004795D01*
X012942Y004488D01*
X013018Y004411D01*
X013172Y004411D01*
X013249Y004488D01*
X011569Y005228D02*
X011492Y005151D01*
X011339Y005151D01*
X011262Y005228D01*
X011262Y005304D01*
X011339Y005381D01*
X011492Y005381D01*
X011569Y005304D01*
X011569Y005228D01*
X011492Y005381D02*
X011569Y005458D01*
X011569Y005535D01*
X011492Y005611D01*
X011339Y005611D01*
X011262Y005535D01*
X011262Y005458D01*
X011339Y005381D01*
X011109Y005228D02*
X011032Y005151D01*
X010878Y005151D01*
X010802Y005228D01*
X010802Y005535D01*
X010878Y005611D01*
X011032Y005611D01*
X011109Y005535D01*
X011058Y007151D02*
X011212Y007151D01*
X011289Y007228D01*
X011442Y007151D02*
X011749Y007151D01*
X011596Y007151D02*
X011596Y007611D01*
X011442Y007458D01*
X011289Y007535D02*
X011212Y007611D01*
X011058Y007611D01*
X010982Y007535D01*
X010982Y007228D01*
X011058Y007151D01*
X011902Y007228D02*
X011979Y007151D01*
X012133Y007151D01*
X012209Y007228D01*
X012209Y007304D01*
X012133Y007381D01*
X012056Y007381D01*
X012133Y007381D02*
X012209Y007458D01*
X012209Y007535D01*
X012133Y007611D01*
X011979Y007611D01*
X011902Y007535D01*
X012432Y007661D02*
X012585Y007661D01*
X012508Y007661D02*
X012508Y007201D01*
X012432Y007201D02*
X012585Y007201D01*
X012739Y007278D02*
X012815Y007201D01*
X012969Y007201D01*
X013046Y007278D01*
X013199Y007431D02*
X013429Y007661D01*
X013429Y007201D01*
X013506Y007431D02*
X013199Y007431D01*
X013046Y007585D02*
X012969Y007661D01*
X012815Y007661D01*
X012739Y007585D01*
X012739Y007278D01*
X013642Y007888D02*
X013718Y007811D01*
X013872Y007811D01*
X013949Y007888D01*
X014102Y007811D02*
X014409Y007811D01*
X014256Y007811D02*
X014256Y008271D01*
X014102Y008118D01*
X013949Y008195D02*
X013872Y008271D01*
X013718Y008271D01*
X013642Y008195D01*
X013642Y007888D01*
X014562Y008041D02*
X014793Y008271D01*
X014793Y007811D01*
X014869Y008041D02*
X014562Y008041D01*
X015091Y008591D02*
X015091Y008821D01*
X015168Y008898D01*
X015322Y008898D01*
X015398Y008821D01*
X015398Y008591D01*
X015398Y008744D02*
X015552Y008898D01*
X015475Y009051D02*
X015398Y009051D01*
X015322Y009128D01*
X015322Y009282D01*
X015398Y009358D01*
X015475Y009358D01*
X015552Y009282D01*
X015552Y009128D01*
X015475Y009051D01*
X015322Y009128D02*
X015245Y009051D01*
X015168Y009051D01*
X015091Y009128D01*
X015091Y009282D01*
X015168Y009358D01*
X015245Y009358D01*
X015322Y009282D01*
X015795Y009242D02*
X015795Y009088D01*
X015948Y009088D02*
X015948Y009318D01*
X015872Y009318D02*
X016102Y009318D01*
X016102Y009088D01*
X016025Y009011D01*
X015948Y009088D01*
X015795Y009242D02*
X015872Y009318D01*
X015795Y009472D02*
X015795Y009625D01*
X015718Y009548D02*
X016025Y009548D01*
X016102Y009625D01*
X016025Y009855D02*
X016102Y009932D01*
X016025Y009855D02*
X015718Y009855D01*
X015795Y009779D02*
X015795Y009932D01*
X015702Y010040D02*
X015625Y010040D01*
X015318Y010347D01*
X015241Y010347D01*
X015241Y010040D01*
X015625Y010500D02*
X015625Y010577D01*
X015702Y010577D01*
X015702Y010500D01*
X015625Y010500D01*
X015795Y010546D02*
X016102Y010546D01*
X015948Y010546D02*
X015795Y010699D01*
X015795Y010776D01*
X015702Y010807D02*
X015625Y010730D01*
X015702Y010807D02*
X015702Y010960D01*
X015625Y011037D01*
X015472Y011037D01*
X015395Y010960D01*
X015395Y010884D01*
X015472Y010730D01*
X015241Y010730D01*
X015241Y011037D01*
X015241Y011191D02*
X015548Y011191D01*
X015702Y011344D01*
X015548Y011497D01*
X015241Y011497D01*
X014569Y011351D02*
X014262Y011351D01*
X014569Y011658D01*
X014569Y011735D01*
X014493Y011811D01*
X014339Y011811D01*
X014262Y011735D01*
X014109Y011735D02*
X014032Y011811D01*
X013879Y011811D01*
X013802Y011735D01*
X013649Y011735D02*
X013572Y011811D01*
X013418Y011811D01*
X013342Y011735D01*
X013342Y011428D01*
X013418Y011351D01*
X013572Y011351D01*
X013649Y011428D01*
X013802Y011351D02*
X014109Y011658D01*
X014109Y011735D01*
X014109Y011351D02*
X013802Y011351D01*
X013506Y010561D02*
X013506Y010485D01*
X013199Y010178D01*
X013199Y010101D01*
X013046Y010178D02*
X012969Y010101D01*
X012815Y010101D01*
X012739Y010178D01*
X012739Y010485D01*
X012815Y010561D01*
X012969Y010561D01*
X013046Y010485D01*
X013199Y010561D02*
X013506Y010561D01*
X012585Y010561D02*
X012432Y010561D01*
X012508Y010561D02*
X012508Y010101D01*
X012432Y010101D02*
X012585Y010101D01*
X011752Y010208D02*
X011598Y010054D01*
X011598Y010131D02*
X011598Y009901D01*
X011752Y009901D02*
X011291Y009901D01*
X011291Y010131D01*
X011368Y010208D01*
X011522Y010208D01*
X011598Y010131D01*
X011445Y010361D02*
X011291Y010515D01*
X011752Y010515D01*
X011752Y010668D02*
X011752Y010361D01*
X011675Y010822D02*
X011368Y010822D01*
X011291Y010898D01*
X011291Y011052D01*
X011368Y011129D01*
X011675Y010822D01*
X011752Y010898D01*
X011752Y011052D01*
X011675Y011129D01*
X011368Y011129D01*
X010159Y011378D02*
X010159Y011685D01*
X010082Y011761D01*
X009929Y011761D01*
X009852Y011685D01*
X009852Y011608D01*
X009929Y011531D01*
X010159Y011531D01*
X010159Y011378D02*
X010082Y011301D01*
X009929Y011301D01*
X009852Y011378D01*
X009699Y011301D02*
X009545Y011454D01*
X009622Y011454D02*
X009392Y011454D01*
X009392Y011301D02*
X009392Y011761D01*
X009622Y011761D01*
X009699Y011685D01*
X009699Y011531D01*
X009622Y011454D01*
X008369Y010535D02*
X008369Y010458D01*
X008293Y010381D01*
X008139Y010381D01*
X008062Y010458D01*
X008062Y010535D01*
X008139Y010611D01*
X008293Y010611D01*
X008369Y010535D01*
X008293Y010381D02*
X008369Y010304D01*
X008369Y010228D01*
X008293Y010151D01*
X008139Y010151D01*
X008062Y010228D01*
X008062Y010304D01*
X008139Y010381D01*
X007909Y010151D02*
X007602Y010151D01*
X007756Y010151D02*
X007756Y010611D01*
X007602Y010458D01*
X007449Y010535D02*
X007372Y010611D01*
X007218Y010611D01*
X007142Y010535D01*
X007142Y010228D01*
X007218Y010151D01*
X007372Y010151D01*
X007449Y010228D01*
X007895Y009529D02*
X007895Y009299D01*
X007972Y009223D01*
X008048Y009299D01*
X008048Y009453D01*
X008125Y009529D01*
X008202Y009453D01*
X008202Y009223D01*
X007895Y009069D02*
X007895Y008992D01*
X008048Y008839D01*
X007895Y008839D02*
X008202Y008839D01*
X008125Y008686D02*
X007972Y008686D01*
X007895Y008609D01*
X007895Y008455D01*
X007972Y008379D01*
X008125Y008379D01*
X008202Y008455D01*
X008202Y008609D01*
X008125Y008686D01*
X008202Y008225D02*
X008125Y008148D01*
X007818Y008148D01*
X007895Y008072D02*
X007895Y008225D01*
X007972Y007918D02*
X007895Y007842D01*
X007895Y007688D01*
X007972Y007611D01*
X008125Y007611D01*
X008202Y007688D01*
X008202Y007842D01*
X008125Y007918D01*
X007972Y007918D01*
X007702Y007860D02*
X007702Y007619D01*
X007462Y007860D01*
X007401Y007860D01*
X007341Y007799D01*
X007341Y007679D01*
X007401Y007619D01*
X007341Y007491D02*
X007341Y007371D01*
X007341Y007431D02*
X007642Y007431D01*
X007702Y007371D01*
X007702Y007311D01*
X007642Y007251D01*
X007895Y007228D02*
X007972Y007304D01*
X007895Y007381D01*
X007972Y007458D01*
X008202Y007458D01*
X008202Y007304D02*
X007972Y007304D01*
X007895Y007228D02*
X007895Y007151D01*
X008202Y007151D01*
X007259Y006831D02*
X006952Y006831D01*
X007182Y007061D01*
X007182Y006601D01*
X006799Y006601D02*
X006645Y006754D01*
X006722Y006754D02*
X006492Y006754D01*
X006492Y006601D02*
X006492Y007061D01*
X006722Y007061D01*
X006799Y006985D01*
X006799Y006831D01*
X006722Y006754D01*
X007542Y005761D02*
X007772Y005761D01*
X007849Y005685D01*
X007849Y005531D01*
X007772Y005454D01*
X007542Y005454D01*
X007542Y005301D02*
X007542Y005761D01*
X007695Y005454D02*
X007849Y005301D01*
X008002Y005378D02*
X008079Y005301D01*
X008232Y005301D01*
X008309Y005378D01*
X008309Y005454D01*
X008232Y005531D01*
X008156Y005531D01*
X008232Y005531D02*
X008309Y005608D01*
X008309Y005685D01*
X008232Y005761D01*
X008079Y005761D01*
X008002Y005685D01*
X008079Y005111D02*
X008002Y005035D01*
X008079Y005111D02*
X008232Y005111D01*
X008309Y005035D01*
X008309Y004958D01*
X008002Y004651D01*
X008309Y004651D01*
X007849Y004651D02*
X007695Y004804D01*
X007772Y004804D02*
X007542Y004804D01*
X007542Y004651D02*
X007542Y005111D01*
X007772Y005111D01*
X007849Y005035D01*
X007849Y004881D01*
X007772Y004804D01*
X004552Y005830D02*
X004091Y005830D01*
X004091Y006060D01*
X004168Y006137D01*
X004322Y006137D01*
X004398Y006060D01*
X004398Y005830D01*
X004398Y005984D02*
X004552Y006137D01*
X004475Y006291D02*
X004552Y006367D01*
X004552Y006521D01*
X004475Y006598D01*
X004398Y006598D01*
X004322Y006521D01*
X004322Y006291D01*
X004475Y006291D01*
X004322Y006291D02*
X004168Y006444D01*
X004091Y006598D01*
X004041Y007051D02*
X004041Y007281D01*
X004118Y007358D01*
X004272Y007358D01*
X004348Y007281D01*
X004348Y007051D01*
X004348Y007204D02*
X004502Y007358D01*
X004502Y007511D02*
X004425Y007511D01*
X004118Y007818D01*
X004041Y007818D01*
X004041Y007511D01*
X004041Y007051D02*
X004502Y007051D01*
X001402Y009201D02*
X000941Y009201D01*
X000941Y009431D01*
X001018Y009508D01*
X001172Y009508D01*
X001248Y009431D01*
X001248Y009201D01*
X001248Y009354D02*
X001402Y009508D01*
X001402Y009661D02*
X001402Y009968D01*
X001402Y009815D02*
X000941Y009815D01*
X001095Y009661D01*
X001095Y010122D02*
X000941Y010275D01*
X001402Y010275D01*
X001402Y010122D02*
X001402Y010429D01*
X004918Y013951D02*
X005225Y013951D01*
X005302Y014028D01*
X005302Y014181D01*
X005225Y014258D01*
X005302Y014411D02*
X004995Y014718D01*
X004918Y014718D01*
X004841Y014642D01*
X004841Y014488D01*
X004918Y014411D01*
X004918Y014258D02*
X004841Y014181D01*
X004841Y014028D01*
X004918Y013951D01*
X005302Y014411D02*
X005302Y014718D01*
X005072Y014872D02*
X004841Y015102D01*
X005302Y015102D01*
X005072Y015179D02*
X005072Y014872D01*
X006142Y015598D02*
X006142Y016058D01*
X006372Y016058D01*
X006449Y015981D01*
X006449Y015828D01*
X006372Y015751D01*
X006142Y015751D01*
X006602Y015751D02*
X006602Y016211D01*
X006679Y016058D02*
X006832Y016058D01*
X006909Y015981D01*
X006909Y015751D01*
X007062Y015828D02*
X007062Y015981D01*
X007139Y016058D01*
X007293Y016058D01*
X007369Y015981D01*
X007369Y015828D01*
X007293Y015751D01*
X007139Y015751D01*
X007062Y015828D01*
X006679Y016058D02*
X006602Y015981D01*
X007523Y016058D02*
X007676Y016058D01*
X007599Y016135D02*
X007599Y015828D01*
X007676Y015751D01*
X007830Y015828D02*
X007830Y015981D01*
X007906Y016058D01*
X008060Y016058D01*
X008137Y015981D01*
X008137Y015828D01*
X008060Y015751D01*
X007906Y015751D01*
X007830Y015828D01*
X008750Y015904D02*
X008904Y016058D01*
X008981Y016058D01*
X009134Y016058D02*
X009287Y016058D01*
X009211Y016135D02*
X009211Y015828D01*
X009287Y015751D01*
X008750Y015751D02*
X008750Y016058D01*
X010241Y017351D02*
X010241Y017581D01*
X010318Y017658D01*
X010472Y017658D01*
X010548Y017581D01*
X010548Y017351D01*
X010548Y017504D02*
X010702Y017658D01*
X010702Y017811D02*
X010395Y018118D01*
X010318Y018118D01*
X010241Y018042D01*
X010241Y017888D01*
X010318Y017811D01*
X010702Y017811D02*
X010702Y018118D01*
X010625Y018272D02*
X010318Y018579D01*
X010625Y018579D01*
X010702Y018502D01*
X010702Y018348D01*
X010625Y018272D01*
X010318Y018272D01*
X010241Y018348D01*
X010241Y018502D01*
X010318Y018579D01*
X010241Y017351D02*
X010702Y017351D01*
X011302Y016311D02*
X011302Y015851D01*
X011149Y015928D02*
X011072Y015851D01*
X010842Y015851D01*
X010842Y015698D02*
X010842Y016158D01*
X011072Y016158D01*
X011149Y016081D01*
X011149Y015928D01*
X011302Y016081D02*
X011379Y016158D01*
X011532Y016158D01*
X011609Y016081D01*
X011609Y015851D01*
X011762Y015928D02*
X011839Y015851D01*
X011993Y015851D01*
X012069Y015928D01*
X012069Y016081D01*
X011993Y016158D01*
X011839Y016158D01*
X011762Y016081D01*
X011762Y015928D01*
X012223Y016158D02*
X012376Y016158D01*
X012299Y016235D02*
X012299Y015928D01*
X012376Y015851D01*
X012530Y015928D02*
X012606Y015851D01*
X012760Y015851D01*
X012837Y015928D01*
X012837Y016081D01*
X012760Y016158D01*
X012606Y016158D01*
X012530Y016081D01*
X012530Y015928D01*
X013450Y015851D02*
X013604Y015851D01*
X013527Y015851D02*
X013527Y016311D01*
X013450Y016311D01*
X013757Y016081D02*
X013834Y016158D01*
X013987Y016158D01*
X014064Y016081D01*
X014064Y016004D01*
X013757Y016004D01*
X013757Y015928D02*
X013757Y016081D01*
X013757Y015928D02*
X013834Y015851D01*
X013987Y015851D01*
X014294Y015851D02*
X014294Y016235D01*
X014371Y016311D01*
X014525Y016158D02*
X014678Y016158D01*
X014601Y016235D02*
X014601Y015928D01*
X014678Y015851D01*
X014371Y016081D02*
X014218Y016081D01*
X015241Y017351D02*
X015241Y017581D01*
X015318Y017658D01*
X015472Y017658D01*
X015548Y017581D01*
X015548Y017351D01*
X015548Y017504D02*
X015702Y017658D01*
X015702Y017811D02*
X015395Y018118D01*
X015318Y018118D01*
X015241Y018042D01*
X015241Y017888D01*
X015318Y017811D01*
X015702Y017811D02*
X015702Y018118D01*
X015702Y018272D02*
X015702Y018579D01*
X015702Y018425D02*
X015241Y018425D01*
X015395Y018272D01*
X015241Y017351D02*
X015702Y017351D01*
X016695Y017325D02*
X016695Y017095D01*
X017002Y017095D01*
X017002Y016942D02*
X017002Y016711D01*
X016925Y016635D01*
X016848Y016711D01*
X016848Y016942D01*
X016772Y016942D02*
X017002Y016942D01*
X016772Y016942D02*
X016695Y016865D01*
X016695Y016711D01*
X016695Y016481D02*
X016695Y016404D01*
X016848Y016251D01*
X016695Y016251D02*
X017002Y016251D01*
X017072Y015861D02*
X016918Y015861D01*
X016842Y015785D01*
X016842Y015478D01*
X016918Y015401D01*
X017072Y015401D01*
X017149Y015478D01*
X017302Y015401D02*
X017609Y015708D01*
X017609Y015785D01*
X017532Y015861D01*
X017379Y015861D01*
X017302Y015785D01*
X017149Y015785D02*
X017072Y015861D01*
X017302Y015401D02*
X017609Y015401D01*
X017762Y015478D02*
X017762Y015631D01*
X017993Y015631D01*
X018069Y015554D01*
X018069Y015478D01*
X017993Y015401D01*
X017839Y015401D01*
X017762Y015478D01*
X017762Y015631D02*
X017916Y015785D01*
X018069Y015861D01*
X018295Y015069D02*
X018295Y014916D01*
X018218Y014992D02*
X018525Y014992D01*
X018602Y015069D01*
X018602Y014762D02*
X018372Y014762D01*
X018295Y014686D01*
X018295Y014455D01*
X018602Y014455D01*
X018525Y014302D02*
X018602Y014225D01*
X018602Y014072D01*
X018525Y013995D01*
X018372Y013995D01*
X018295Y014072D01*
X018295Y014225D01*
X018372Y014302D01*
X018525Y014302D01*
X018295Y013842D02*
X018295Y013765D01*
X018448Y013611D01*
X018295Y013611D02*
X018602Y013611D01*
X018372Y013304D02*
X018372Y013151D01*
X018602Y013151D02*
X018141Y013151D01*
X018141Y013458D01*
X018411Y011811D02*
X018641Y011811D01*
X018717Y011735D01*
X018717Y011581D01*
X018641Y011504D01*
X018411Y011504D01*
X018411Y011351D02*
X018411Y011811D01*
X018564Y011504D02*
X018717Y011351D01*
X018871Y011351D02*
X019178Y011351D01*
X019331Y011351D02*
X019638Y011658D01*
X019638Y011735D01*
X019561Y011811D01*
X019408Y011811D01*
X019331Y011735D01*
X019024Y011811D02*
X019024Y011351D01*
X019331Y011351D02*
X019638Y011351D01*
X019024Y011811D02*
X018871Y011658D01*
X018019Y011201D02*
X017778Y011201D01*
X017898Y011201D02*
X017898Y011561D01*
X017778Y011441D01*
X017650Y011381D02*
X017590Y011321D01*
X017410Y011321D01*
X017410Y011201D02*
X017410Y011561D01*
X017590Y011561D01*
X017650Y011501D01*
X017650Y011381D01*
X017282Y011561D02*
X017162Y011561D01*
X017222Y011561D02*
X017222Y011261D01*
X017162Y011201D01*
X017102Y011201D01*
X017042Y011261D01*
X016255Y011160D02*
X016255Y011083D01*
X016255Y011160D02*
X016178Y011236D01*
X015795Y011236D01*
X015795Y010929D02*
X016025Y010929D01*
X016102Y011006D01*
X016102Y011236D01*
X015948Y010392D02*
X015948Y010086D01*
X015872Y010086D02*
X015795Y010162D01*
X015795Y010316D01*
X015872Y010392D01*
X015948Y010392D01*
X016102Y010316D02*
X016102Y010162D01*
X016025Y010086D01*
X015872Y010086D01*
X015872Y008858D02*
X015795Y008781D01*
X015795Y008551D01*
X015641Y008551D02*
X016102Y008551D01*
X016102Y008781D01*
X016025Y008858D01*
X015872Y008858D01*
X015552Y008591D02*
X015091Y008591D01*
X015091Y006558D02*
X015091Y006251D01*
X015322Y006251D01*
X015245Y006404D01*
X015245Y006481D01*
X015322Y006558D01*
X015475Y006558D01*
X015552Y006481D01*
X015552Y006327D01*
X015475Y006251D01*
X015552Y006097D02*
X015398Y005944D01*
X015398Y006020D02*
X015398Y005790D01*
X015552Y005790D02*
X015091Y005790D01*
X015091Y006020D01*
X015168Y006097D01*
X015322Y006097D01*
X015398Y006020D01*
X017582Y005801D02*
X017735Y005801D01*
X017658Y005801D02*
X017658Y006261D01*
X017582Y006261D02*
X017735Y006261D01*
X017889Y006185D02*
X017889Y005878D01*
X017965Y005801D01*
X018119Y005801D01*
X018196Y005878D01*
X018349Y005878D02*
X018426Y005801D01*
X018579Y005801D01*
X018656Y005878D01*
X018656Y006031D01*
X018579Y006108D01*
X018502Y006108D01*
X018349Y006031D01*
X018349Y006261D01*
X018656Y006261D01*
X018196Y006185D02*
X018119Y006261D01*
X017965Y006261D01*
X017889Y006185D01*
X019441Y007557D02*
X019518Y007480D01*
X019825Y007480D01*
X019902Y007557D01*
X019902Y007710D01*
X019825Y007787D01*
X019902Y007940D02*
X019902Y008247D01*
X019902Y008094D02*
X019441Y008094D01*
X019595Y007940D01*
X019518Y007787D02*
X019441Y007710D01*
X019441Y007557D01*
X019595Y008401D02*
X019441Y008554D01*
X019902Y008554D01*
X019902Y008401D02*
X019902Y008707D01*
X020042Y008801D02*
X020272Y008801D01*
X020349Y008878D01*
X020349Y009185D01*
X020272Y009261D01*
X020042Y009261D01*
X020042Y008801D01*
X020502Y008878D02*
X020579Y008801D01*
X020732Y008801D01*
X020809Y008878D01*
X020809Y008954D01*
X020732Y009031D01*
X020656Y009031D01*
X020732Y009031D02*
X020809Y009108D01*
X020809Y009185D01*
X020732Y009261D01*
X020579Y009261D01*
X020502Y009185D01*
X020418Y010051D02*
X020725Y010051D01*
X020802Y010128D01*
X020802Y010281D01*
X020725Y010358D01*
X020802Y010511D02*
X020495Y010818D01*
X020418Y010818D01*
X020341Y010742D01*
X020341Y010588D01*
X020418Y010511D01*
X020418Y010358D02*
X020341Y010281D01*
X020341Y010128D01*
X020418Y010051D01*
X020802Y010511D02*
X020802Y010818D01*
X020725Y010972D02*
X020418Y010972D01*
X020341Y011048D01*
X020341Y011202D01*
X020418Y011279D01*
X020725Y010972D01*
X020802Y011048D01*
X020802Y011202D01*
X020725Y011279D01*
X020418Y011279D01*
X019202Y010702D02*
X019202Y010548D01*
X019125Y010472D01*
X018972Y010548D02*
X018972Y010779D01*
X019125Y010779D02*
X018818Y010779D01*
X018741Y010702D01*
X018741Y010548D01*
X018818Y010472D01*
X018895Y010472D01*
X018972Y010548D01*
X019202Y010702D02*
X019125Y010779D01*
X019202Y010318D02*
X019202Y010011D01*
X019202Y010165D02*
X018741Y010165D01*
X018895Y010011D01*
X018818Y009858D02*
X018741Y009781D01*
X018741Y009628D01*
X018818Y009551D01*
X019125Y009551D01*
X019202Y009628D01*
X019202Y009781D01*
X019125Y009858D01*
X021491Y009788D02*
X021491Y009635D01*
X021568Y009558D01*
X021875Y009558D01*
X021952Y009635D01*
X021952Y009788D01*
X021875Y009865D01*
X021875Y010018D02*
X021798Y010018D01*
X021722Y010095D01*
X021722Y010248D01*
X021798Y010325D01*
X021875Y010325D01*
X021952Y010248D01*
X021952Y010095D01*
X021875Y010018D01*
X021722Y010095D02*
X021645Y010018D01*
X021568Y010018D01*
X021491Y010095D01*
X021491Y010248D01*
X021568Y010325D01*
X021645Y010325D01*
X021722Y010248D01*
X021568Y009865D02*
X021491Y009788D01*
X021491Y009404D02*
X021491Y009251D01*
X021491Y009328D02*
X021952Y009328D01*
X021952Y009404D02*
X021952Y009251D01*
X021891Y008175D02*
X021968Y008022D01*
X022122Y007868D01*
X022122Y008098D01*
X022198Y008175D01*
X022275Y008175D01*
X022352Y008098D01*
X022352Y007945D01*
X022275Y007868D01*
X022122Y007868D01*
X022275Y007715D02*
X022352Y007638D01*
X022352Y007485D01*
X022275Y007408D01*
X021968Y007408D01*
X021891Y007485D01*
X021891Y007638D01*
X021968Y007715D01*
X021702Y007318D02*
X021702Y007011D01*
X021395Y007318D01*
X021318Y007318D01*
X021241Y007242D01*
X021241Y007088D01*
X021318Y007011D01*
X021318Y006858D02*
X021241Y006781D01*
X021241Y006551D01*
X021702Y006551D01*
X021702Y006781D01*
X021625Y006858D01*
X021318Y006858D01*
X021172Y006561D02*
X020942Y006561D01*
X020942Y006101D01*
X021172Y006101D01*
X021249Y006178D01*
X021249Y006485D01*
X021172Y006561D01*
X021402Y006408D02*
X021556Y006561D01*
X021556Y006101D01*
X021709Y006101D02*
X021402Y006101D01*
X020849Y005485D02*
X020772Y005561D01*
X020619Y005561D01*
X020542Y005485D01*
X020542Y005408D01*
X020619Y005331D01*
X020849Y005331D01*
X020849Y005178D02*
X020849Y005485D01*
X020849Y005178D02*
X020772Y005101D01*
X020619Y005101D01*
X020542Y005178D01*
X020389Y005178D02*
X020312Y005101D01*
X020158Y005101D01*
X020082Y005178D01*
X020082Y005485D01*
X020158Y005561D01*
X020312Y005561D01*
X020389Y005485D01*
X021722Y005115D02*
X021722Y004808D01*
X021798Y004731D01*
X021952Y004731D01*
X022029Y004808D01*
X022182Y004808D02*
X022259Y004731D01*
X022412Y004731D01*
X022489Y004808D01*
X022489Y004884D01*
X022412Y004961D01*
X022182Y004961D01*
X022182Y004808D01*
X022182Y004961D02*
X022336Y005115D01*
X022489Y005191D01*
X022029Y005115D02*
X021952Y005191D01*
X021798Y005191D01*
X021722Y005115D01*
X022587Y006401D02*
X022741Y006401D01*
X022817Y006478D01*
X022971Y006401D02*
X023278Y006401D01*
X023124Y006401D02*
X023124Y006861D01*
X022971Y006708D01*
X022817Y006785D02*
X022741Y006861D01*
X022587Y006861D01*
X022511Y006785D01*
X022511Y006478D01*
X022587Y006401D01*
X022352Y007101D02*
X022352Y007254D01*
X022352Y007178D02*
X021891Y007178D01*
X021891Y007254D02*
X021891Y007101D01*
X023431Y006785D02*
X023431Y006478D01*
X023738Y006785D01*
X023738Y006478D01*
X023661Y006401D01*
X023508Y006401D01*
X023431Y006478D01*
X023431Y006785D02*
X023508Y006861D01*
X023661Y006861D01*
X023738Y006785D01*
X024891Y007978D02*
X024968Y007901D01*
X025275Y007901D01*
X025352Y007978D01*
X025352Y008131D01*
X025275Y008208D01*
X025352Y008361D02*
X025352Y008668D01*
X025352Y008515D02*
X024891Y008515D01*
X025045Y008361D01*
X024968Y008208D02*
X024891Y008131D01*
X024891Y007978D01*
X024891Y008822D02*
X025122Y008822D01*
X025045Y008975D01*
X025045Y009052D01*
X025122Y009129D01*
X025275Y009129D01*
X025352Y009052D01*
X025352Y008898D01*
X025275Y008822D01*
X024891Y008822D02*
X024891Y009129D01*
X025741Y009851D02*
X025741Y010081D01*
X025818Y010158D01*
X026125Y010158D01*
X026202Y010081D01*
X026202Y009851D01*
X025741Y009851D01*
X025972Y010311D02*
X025741Y010542D01*
X026202Y010542D01*
X025972Y010618D02*
X025972Y010311D01*
X025112Y010851D02*
X025112Y010928D01*
X025419Y011235D01*
X025419Y011311D01*
X025112Y011311D01*
X024806Y011311D02*
X024806Y010851D01*
X024959Y010851D02*
X024652Y010851D01*
X024499Y010928D02*
X024422Y010851D01*
X024268Y010851D01*
X024192Y010928D01*
X024192Y011235D01*
X024268Y011311D01*
X024422Y011311D01*
X024499Y011235D01*
X024652Y011158D02*
X024806Y011311D01*
X023669Y011501D02*
X023362Y011501D01*
X023209Y011501D02*
X022902Y011501D01*
X023209Y011808D01*
X023209Y011885D01*
X023132Y011961D01*
X022979Y011961D01*
X022902Y011885D01*
X022749Y011885D02*
X022672Y011961D01*
X022518Y011961D01*
X022442Y011885D01*
X022442Y011578D01*
X022518Y011501D01*
X022672Y011501D01*
X022749Y011578D01*
X023362Y011808D02*
X023516Y011961D01*
X023516Y011501D01*
X023543Y012351D02*
X023389Y012351D01*
X023312Y012428D01*
X023159Y012351D02*
X022852Y012351D01*
X022699Y012351D02*
X022545Y012504D01*
X022622Y012504D02*
X022392Y012504D01*
X022392Y012351D02*
X022392Y012811D01*
X022622Y012811D01*
X022699Y012735D01*
X022699Y012581D01*
X022622Y012504D01*
X022852Y012658D02*
X023006Y012811D01*
X023006Y012351D01*
X023312Y012735D02*
X023389Y012811D01*
X023543Y012811D01*
X023619Y012735D01*
X023619Y012658D01*
X023543Y012581D01*
X023619Y012504D01*
X023619Y012428D01*
X023543Y012351D01*
X023543Y012581D02*
X023466Y012581D01*
X022402Y013251D02*
X022402Y013481D01*
X022325Y013558D01*
X022248Y013558D01*
X022172Y013481D01*
X022172Y013251D01*
X022402Y013251D02*
X021941Y013251D01*
X021941Y013481D01*
X022018Y013558D01*
X022095Y013558D01*
X022172Y013481D01*
X022325Y013711D02*
X022248Y013788D01*
X022248Y014018D01*
X022172Y014018D02*
X022402Y014018D01*
X022402Y013788D01*
X022325Y013711D01*
X022095Y013788D02*
X022095Y013942D01*
X022172Y014018D01*
X022172Y014172D02*
X022325Y014172D01*
X022402Y014248D01*
X022402Y014479D01*
X022402Y014632D02*
X021941Y014632D01*
X022095Y014479D02*
X022095Y014248D01*
X022172Y014172D01*
X022248Y014632D02*
X022095Y014862D01*
X022248Y014632D02*
X022402Y014862D01*
X022412Y015351D02*
X022719Y015351D01*
X022566Y015351D02*
X022566Y015811D01*
X022412Y015658D01*
X022259Y015658D02*
X022182Y015581D01*
X021952Y015581D01*
X021952Y015351D02*
X021952Y015811D01*
X022182Y015811D01*
X022259Y015735D01*
X022259Y015658D01*
X022182Y015581D02*
X022259Y015504D01*
X022259Y015428D01*
X022182Y015351D01*
X021952Y015351D01*
X021645Y015581D02*
X021492Y015581D01*
X021492Y015351D02*
X021492Y015811D01*
X021799Y015811D01*
X021968Y016851D02*
X022275Y016851D01*
X022352Y016928D01*
X022352Y017081D01*
X022275Y017158D01*
X022275Y017311D02*
X022352Y017388D01*
X022352Y017542D01*
X022275Y017618D01*
X022198Y017618D01*
X022122Y017542D01*
X022122Y017465D01*
X022122Y017542D02*
X022045Y017618D01*
X021968Y017618D01*
X021891Y017542D01*
X021891Y017388D01*
X021968Y017311D01*
X021968Y017158D02*
X021891Y017081D01*
X021891Y016928D01*
X021968Y016851D01*
X022045Y017772D02*
X021891Y017925D01*
X022352Y017925D01*
X022352Y017772D02*
X022352Y018079D01*
X023068Y018801D02*
X023222Y018801D01*
X023299Y018878D01*
X023452Y018878D02*
X023529Y018801D01*
X023682Y018801D01*
X023759Y018878D01*
X023759Y018954D01*
X023682Y019031D01*
X023606Y019031D01*
X023682Y019031D02*
X023759Y019108D01*
X023759Y019185D01*
X023682Y019261D01*
X023529Y019261D01*
X023452Y019185D01*
X023299Y019185D02*
X023222Y019261D01*
X023068Y019261D01*
X022992Y019185D01*
X022992Y018878D01*
X023068Y018801D01*
X023912Y018878D02*
X023989Y018801D01*
X024143Y018801D01*
X024219Y018878D01*
X024219Y019031D01*
X024143Y019108D01*
X024066Y019108D01*
X023912Y019031D01*
X023912Y019261D01*
X024219Y019261D01*
X024218Y018761D02*
X024142Y018685D01*
X024142Y018378D01*
X024218Y018301D01*
X024372Y018301D01*
X024449Y018378D01*
X024602Y018378D02*
X024679Y018301D01*
X024832Y018301D01*
X024909Y018378D01*
X024909Y018454D01*
X024832Y018531D01*
X024756Y018531D01*
X024832Y018531D02*
X024909Y018608D01*
X024909Y018685D01*
X024832Y018761D01*
X024679Y018761D01*
X024602Y018685D01*
X024449Y018685D02*
X024372Y018761D01*
X024218Y018761D01*
X025062Y018685D02*
X025139Y018761D01*
X025293Y018761D01*
X025369Y018685D01*
X025369Y018608D01*
X025062Y018301D01*
X025369Y018301D01*
X026192Y018180D02*
X026345Y018180D01*
X026268Y018180D02*
X026268Y018640D01*
X026192Y018640D02*
X026345Y018640D01*
X026499Y018563D02*
X026499Y018256D01*
X026575Y018180D01*
X026729Y018180D01*
X026806Y018256D01*
X026959Y018180D02*
X027266Y018180D01*
X027419Y018180D02*
X027726Y018180D01*
X027573Y018180D02*
X027573Y018640D01*
X027419Y018487D01*
X027112Y018640D02*
X027112Y018180D01*
X026959Y018487D02*
X027112Y018640D01*
X026806Y018563D02*
X026729Y018640D01*
X026575Y018640D01*
X026499Y018563D01*
X028542Y019011D02*
X028602Y018951D01*
X028662Y018951D01*
X028722Y019011D01*
X028722Y019311D01*
X028662Y019311D02*
X028782Y019311D01*
X028910Y019131D02*
X029090Y019131D01*
X029150Y019071D01*
X029150Y019011D01*
X029090Y018951D01*
X028970Y018951D01*
X028910Y019011D01*
X028910Y019131D01*
X029030Y019251D01*
X029150Y019311D01*
X029491Y019351D02*
X029491Y019581D01*
X029568Y019658D01*
X029722Y019658D01*
X029798Y019581D01*
X029798Y019351D01*
X029798Y019504D02*
X029952Y019658D01*
X029952Y019811D02*
X029645Y020118D01*
X029568Y020118D01*
X029491Y020042D01*
X029491Y019888D01*
X029568Y019811D01*
X029952Y019811D02*
X029952Y020118D01*
X029875Y020272D02*
X029952Y020348D01*
X029952Y020502D01*
X029875Y020579D01*
X029722Y020579D01*
X029645Y020502D01*
X029645Y020425D01*
X029722Y020272D01*
X029491Y020272D01*
X029491Y020579D01*
X029491Y019351D02*
X029952Y019351D01*
X030992Y019285D02*
X030992Y018978D01*
X031068Y018901D01*
X031222Y018901D01*
X031299Y018978D01*
X031452Y018978D02*
X031529Y018901D01*
X031682Y018901D01*
X031759Y018978D01*
X031759Y019054D01*
X031682Y019131D01*
X031606Y019131D01*
X031682Y019131D02*
X031759Y019208D01*
X031759Y019285D01*
X031682Y019361D01*
X031529Y019361D01*
X031452Y019285D01*
X031299Y019285D02*
X031222Y019361D01*
X031068Y019361D01*
X030992Y019285D01*
X031912Y019131D02*
X032143Y019131D01*
X032219Y019054D01*
X032219Y018978D01*
X032143Y018901D01*
X031989Y018901D01*
X031912Y018978D01*
X031912Y019131D01*
X032066Y019285D01*
X032219Y019361D01*
X032548Y019718D02*
X032548Y019948D01*
X032624Y020025D01*
X032931Y020025D01*
X033008Y019948D01*
X033008Y019718D01*
X032548Y019718D01*
X032548Y020178D02*
X032778Y020178D01*
X032701Y020332D01*
X032701Y020408D01*
X032778Y020485D01*
X032931Y020485D01*
X033008Y020408D01*
X033008Y020255D01*
X032931Y020178D01*
X032548Y020178D02*
X032548Y020485D01*
X033441Y022721D02*
X033441Y022841D01*
X033441Y022781D02*
X033742Y022781D01*
X033802Y022721D01*
X033802Y022661D01*
X033742Y022601D01*
X033802Y022969D02*
X033441Y022969D01*
X033441Y023149D01*
X033501Y023210D01*
X033622Y023210D01*
X033682Y023149D01*
X033682Y022969D01*
X033742Y023338D02*
X033802Y023398D01*
X033802Y023518D01*
X033742Y023578D01*
X033682Y023578D01*
X033622Y023518D01*
X033622Y023338D01*
X033742Y023338D01*
X033622Y023338D02*
X033501Y023458D01*
X033441Y023578D01*
X033212Y024501D02*
X033212Y024578D01*
X033519Y024885D01*
X033519Y024961D01*
X033212Y024961D01*
X033059Y024885D02*
X032982Y024961D01*
X032829Y024961D01*
X032752Y024885D01*
X032599Y024885D02*
X032599Y024731D01*
X032522Y024654D01*
X032292Y024654D01*
X032292Y024501D02*
X032292Y024961D01*
X032522Y024961D01*
X032599Y024885D01*
X032445Y024654D02*
X032599Y024501D01*
X032752Y024501D02*
X033059Y024808D01*
X033059Y024885D01*
X033059Y024501D02*
X032752Y024501D01*
X030802Y023413D02*
X030802Y023293D01*
X030742Y023233D01*
X030622Y023233D02*
X030562Y023353D01*
X030562Y023413D01*
X030622Y023473D01*
X030742Y023473D01*
X030802Y023413D01*
X030622Y023233D02*
X030441Y023233D01*
X030441Y023473D01*
X030501Y023105D02*
X030622Y023105D01*
X030682Y023045D01*
X030682Y022864D01*
X030802Y022864D02*
X030441Y022864D01*
X030441Y023045D01*
X030501Y023105D01*
X030441Y022736D02*
X030441Y022616D01*
X030441Y022676D02*
X030742Y022676D01*
X030802Y022616D01*
X030802Y022556D01*
X030742Y022496D01*
X030443Y024501D02*
X030519Y024578D01*
X030519Y024654D01*
X030443Y024731D01*
X030212Y024731D01*
X030212Y024578D01*
X030289Y024501D01*
X030443Y024501D01*
X030212Y024731D02*
X030366Y024885D01*
X030519Y024961D01*
X030059Y024885D02*
X029982Y024961D01*
X029829Y024961D01*
X029752Y024885D01*
X029599Y024885D02*
X029599Y024731D01*
X029522Y024654D01*
X029292Y024654D01*
X029292Y024501D02*
X029292Y024961D01*
X029522Y024961D01*
X029599Y024885D01*
X029445Y024654D02*
X029599Y024501D01*
X029752Y024501D02*
X030059Y024808D01*
X030059Y024885D01*
X030059Y024501D02*
X029752Y024501D01*
X027802Y023568D02*
X027441Y023568D01*
X027622Y023388D01*
X027622Y023628D01*
X027622Y023260D02*
X027501Y023260D01*
X027441Y023199D01*
X027441Y023019D01*
X027802Y023019D01*
X027682Y023019D02*
X027682Y023199D01*
X027622Y023260D01*
X027441Y022891D02*
X027441Y022771D01*
X027441Y022831D02*
X027742Y022831D01*
X027802Y022771D01*
X027802Y022711D01*
X027742Y022651D01*
X026593Y023851D02*
X026439Y023851D01*
X026362Y023928D01*
X026362Y024081D01*
X026439Y024158D01*
X026593Y024158D01*
X026669Y024081D01*
X026669Y024004D01*
X026362Y024004D01*
X026209Y023851D02*
X025979Y023851D01*
X025902Y023928D01*
X025902Y024158D01*
X025749Y024311D02*
X025442Y024311D01*
X025442Y023851D01*
X025749Y023851D01*
X025595Y024081D02*
X025442Y024081D01*
X026056Y023698D02*
X026132Y023698D01*
X026209Y023774D01*
X026209Y024158D01*
X026091Y028251D02*
X026091Y028481D01*
X026168Y028558D01*
X026322Y028558D01*
X026398Y028481D01*
X026398Y028251D01*
X026398Y028404D02*
X026552Y028558D01*
X026475Y028711D02*
X026552Y028788D01*
X026552Y028942D01*
X026475Y029018D01*
X026398Y029018D01*
X026322Y028942D01*
X026322Y028865D01*
X026322Y028942D02*
X026245Y029018D01*
X026168Y029018D01*
X026091Y028942D01*
X026091Y028788D01*
X026168Y028711D01*
X026322Y029172D02*
X026322Y029479D01*
X026552Y029402D02*
X026091Y029402D01*
X026322Y029172D01*
X026692Y029361D02*
X026692Y028901D01*
X026999Y028901D01*
X027152Y028901D02*
X027459Y028901D01*
X027612Y028901D02*
X027612Y029361D01*
X027843Y029361D01*
X027919Y029285D01*
X027919Y028978D01*
X027843Y028901D01*
X027612Y028901D01*
X027306Y029131D02*
X027152Y029131D01*
X027152Y029361D02*
X027152Y028901D01*
X027152Y029361D02*
X027459Y029361D01*
X028073Y029208D02*
X028226Y029361D01*
X028226Y028901D01*
X028073Y028901D02*
X028380Y028901D01*
X026552Y028251D02*
X026091Y028251D01*
X028391Y030751D02*
X028391Y030981D01*
X028468Y031058D01*
X028622Y031058D01*
X028698Y030981D01*
X028698Y030751D01*
X028698Y030904D02*
X028852Y031058D01*
X028775Y031211D02*
X028852Y031288D01*
X028852Y031442D01*
X028775Y031518D01*
X028698Y031518D01*
X028622Y031442D01*
X028622Y031365D01*
X028622Y031442D02*
X028545Y031518D01*
X028468Y031518D01*
X028391Y031442D01*
X028391Y031288D01*
X028468Y031211D01*
X028391Y030751D02*
X028852Y030751D01*
X028775Y031672D02*
X028852Y031748D01*
X028852Y031902D01*
X028775Y031979D01*
X028698Y031979D01*
X028622Y031902D01*
X028622Y031672D01*
X028775Y031672D01*
X028622Y031672D02*
X028468Y031825D01*
X028391Y031979D01*
X027269Y031885D02*
X027269Y031578D01*
X027193Y031501D01*
X027039Y031501D01*
X026962Y031578D01*
X026809Y031578D02*
X026732Y031501D01*
X026579Y031501D01*
X026502Y031578D01*
X026349Y031501D02*
X026195Y031654D01*
X026272Y031654D02*
X026042Y031654D01*
X026042Y031501D02*
X026042Y031961D01*
X026272Y031961D01*
X026349Y031885D01*
X026349Y031731D01*
X026272Y031654D01*
X026502Y031885D02*
X026579Y031961D01*
X026732Y031961D01*
X026809Y031885D01*
X026809Y031808D01*
X026732Y031731D01*
X026809Y031654D01*
X026809Y031578D01*
X026732Y031731D02*
X026656Y031731D01*
X026962Y031808D02*
X027039Y031731D01*
X027269Y031731D01*
X027269Y031885D02*
X027193Y031961D01*
X027039Y031961D01*
X026962Y031885D01*
X026962Y031808D01*
X029991Y031218D02*
X030051Y031278D01*
X030112Y031278D01*
X030172Y031218D01*
X030172Y031098D01*
X030112Y031038D01*
X030051Y031038D01*
X029991Y031098D01*
X029991Y031218D01*
X030172Y031218D02*
X030232Y031278D01*
X030292Y031278D01*
X030352Y031218D01*
X030352Y031098D01*
X030292Y031038D01*
X030232Y031038D01*
X030172Y031098D01*
X030172Y030910D02*
X030051Y030910D01*
X029991Y030849D01*
X029991Y030669D01*
X030352Y030669D01*
X030232Y030669D02*
X030232Y030849D01*
X030172Y030910D01*
X029991Y030541D02*
X029991Y030421D01*
X029991Y030481D02*
X030292Y030481D01*
X030352Y030421D01*
X030352Y030361D01*
X030292Y030301D01*
X031842Y029261D02*
X031842Y028801D01*
X031842Y028954D02*
X032072Y028954D01*
X032149Y029031D01*
X032149Y029185D01*
X032072Y029261D01*
X031842Y029261D01*
X031995Y028954D02*
X032149Y028801D01*
X032302Y028878D02*
X032379Y028801D01*
X032532Y028801D01*
X032609Y028878D01*
X032609Y028954D01*
X032532Y029031D01*
X032456Y029031D01*
X032532Y029031D02*
X032609Y029108D01*
X032609Y029185D01*
X032532Y029261D01*
X032379Y029261D01*
X032302Y029185D01*
X032762Y029185D02*
X032839Y029261D01*
X032993Y029261D01*
X033069Y029185D01*
X033069Y029108D01*
X032762Y028801D01*
X033069Y028801D01*
X034842Y028751D02*
X034842Y029211D01*
X035072Y029211D01*
X035149Y029135D01*
X035149Y028981D01*
X035072Y028904D01*
X034842Y028904D01*
X034995Y028904D02*
X035149Y028751D01*
X035302Y028828D02*
X035379Y028751D01*
X035532Y028751D01*
X035609Y028828D01*
X035609Y028904D01*
X035532Y028981D01*
X035456Y028981D01*
X035532Y028981D02*
X035609Y029058D01*
X035609Y029135D01*
X035532Y029211D01*
X035379Y029211D01*
X035302Y029135D01*
X035762Y029135D02*
X035839Y029211D01*
X035993Y029211D01*
X036069Y029135D01*
X036069Y029058D01*
X035993Y028981D01*
X036069Y028904D01*
X036069Y028828D01*
X035993Y028751D01*
X035839Y028751D01*
X035762Y028828D01*
X035916Y028981D02*
X035993Y028981D01*
X035842Y029751D02*
X035842Y030211D01*
X036072Y030211D01*
X036149Y030135D01*
X036149Y029981D01*
X036072Y029904D01*
X035842Y029904D01*
X035995Y029904D02*
X036149Y029751D01*
X036302Y029828D02*
X036379Y029751D01*
X036532Y029751D01*
X036609Y029828D01*
X036609Y029904D01*
X036532Y029981D01*
X036456Y029981D01*
X036532Y029981D02*
X036609Y030058D01*
X036609Y030135D01*
X036532Y030211D01*
X036379Y030211D01*
X036302Y030135D01*
X036152Y030451D02*
X035691Y030451D01*
X035691Y030681D01*
X035768Y030758D01*
X035922Y030758D01*
X035998Y030681D01*
X035998Y030451D01*
X035998Y030604D02*
X036152Y030758D01*
X036075Y030911D02*
X036152Y030988D01*
X036152Y031142D01*
X036075Y031218D01*
X035998Y031218D01*
X035922Y031142D01*
X035922Y031065D01*
X035922Y031142D02*
X035845Y031218D01*
X035768Y031218D01*
X035691Y031142D01*
X035691Y030988D01*
X035768Y030911D01*
X035691Y031372D02*
X035691Y031679D01*
X035768Y031679D01*
X036075Y031372D01*
X036152Y031372D01*
X036762Y030211D02*
X036762Y029981D01*
X036916Y030058D01*
X036993Y030058D01*
X037069Y029981D01*
X037069Y029828D01*
X036993Y029751D01*
X036839Y029751D01*
X036762Y029828D01*
X036762Y030211D02*
X037069Y030211D01*
X037092Y029361D02*
X037092Y028901D01*
X037399Y028901D01*
X037552Y028901D02*
X037552Y029361D01*
X037859Y029361D01*
X038012Y029361D02*
X038012Y028901D01*
X038243Y028901D01*
X038319Y028978D01*
X038319Y029285D01*
X038243Y029361D01*
X038012Y029361D01*
X037706Y029131D02*
X037552Y029131D01*
X037552Y028901D02*
X037859Y028901D01*
X038473Y028901D02*
X038780Y029208D01*
X038780Y029285D01*
X038703Y029361D01*
X038549Y029361D01*
X038473Y029285D01*
X038473Y028901D02*
X038780Y028901D01*
X039541Y029301D02*
X039541Y029531D01*
X039618Y029608D01*
X039772Y029608D01*
X039848Y029531D01*
X039848Y029301D01*
X039848Y029454D02*
X040002Y029608D01*
X039925Y029761D02*
X040002Y029838D01*
X040002Y029992D01*
X039925Y030068D01*
X039848Y030068D01*
X039772Y029992D01*
X039772Y029915D01*
X039772Y029992D02*
X039695Y030068D01*
X039618Y030068D01*
X039541Y029992D01*
X039541Y029838D01*
X039618Y029761D01*
X039618Y030222D02*
X039541Y030298D01*
X039541Y030452D01*
X039618Y030529D01*
X039695Y030529D01*
X039772Y030452D01*
X039772Y030298D01*
X039695Y030222D01*
X039618Y030222D01*
X039772Y030298D02*
X039848Y030222D01*
X039925Y030222D01*
X040002Y030298D01*
X040002Y030452D01*
X039925Y030529D01*
X039848Y030529D01*
X039772Y030452D01*
X040002Y029301D02*
X039541Y029301D01*
X039443Y027561D02*
X039519Y027485D01*
X039519Y027408D01*
X039443Y027331D01*
X039289Y027331D01*
X039212Y027408D01*
X039212Y027485D01*
X039289Y027561D01*
X039443Y027561D01*
X039443Y027331D02*
X039519Y027254D01*
X039519Y027178D01*
X039443Y027101D01*
X039289Y027101D01*
X039212Y027178D01*
X039212Y027254D01*
X039289Y027331D01*
X039059Y027254D02*
X039059Y027178D01*
X038982Y027101D01*
X038829Y027101D01*
X038752Y027178D01*
X038599Y027178D02*
X038522Y027101D01*
X038368Y027101D01*
X038292Y027178D01*
X038292Y027485D01*
X038368Y027561D01*
X038522Y027561D01*
X038599Y027485D01*
X038752Y027485D02*
X038829Y027561D01*
X038982Y027561D01*
X039059Y027485D01*
X039059Y027408D01*
X038982Y027331D01*
X039059Y027254D01*
X038982Y027331D02*
X038906Y027331D01*
X037343Y024961D02*
X037189Y024961D01*
X037112Y024885D01*
X037112Y024808D01*
X037189Y024731D01*
X037419Y024731D01*
X037419Y024578D02*
X037419Y024885D01*
X037343Y024961D01*
X037419Y024578D02*
X037343Y024501D01*
X037189Y024501D01*
X037112Y024578D01*
X036959Y024501D02*
X036652Y024501D01*
X036959Y024808D01*
X036959Y024885D01*
X036882Y024961D01*
X036729Y024961D01*
X036652Y024885D01*
X036519Y024885D02*
X036519Y024808D01*
X036443Y024731D01*
X036289Y024731D01*
X036212Y024808D01*
X036212Y024885D01*
X036289Y024961D01*
X036443Y024961D01*
X036519Y024885D01*
X036499Y024885D02*
X036499Y024731D01*
X036422Y024654D01*
X036192Y024654D01*
X036212Y024654D02*
X036289Y024731D01*
X036345Y024654D02*
X036499Y024501D01*
X036443Y024501D02*
X036289Y024501D01*
X036212Y024578D01*
X036212Y024654D01*
X036192Y024501D02*
X036192Y024961D01*
X036422Y024961D01*
X036499Y024885D01*
X036443Y024731D02*
X036519Y024654D01*
X036519Y024578D01*
X036443Y024501D01*
X036059Y024501D02*
X035752Y024501D01*
X036059Y024808D01*
X036059Y024885D01*
X035982Y024961D01*
X035829Y024961D01*
X035752Y024885D01*
X035599Y024885D02*
X035599Y024731D01*
X035522Y024654D01*
X035292Y024654D01*
X035292Y024501D02*
X035292Y024961D01*
X035522Y024961D01*
X035599Y024885D01*
X035445Y024654D02*
X035599Y024501D01*
X036441Y023628D02*
X036501Y023628D01*
X036742Y023388D01*
X036802Y023388D01*
X036622Y023260D02*
X036682Y023199D01*
X036682Y023019D01*
X036802Y023019D02*
X036441Y023019D01*
X036441Y023199D01*
X036501Y023260D01*
X036622Y023260D01*
X036441Y023388D02*
X036441Y023628D01*
X036441Y022891D02*
X036441Y022771D01*
X036441Y022831D02*
X036742Y022831D01*
X036802Y022771D01*
X036802Y022711D01*
X036742Y022651D01*
X036729Y020611D02*
X036652Y020535D01*
X036729Y020611D02*
X036882Y020611D01*
X036959Y020535D01*
X036959Y020458D01*
X036652Y020151D01*
X036959Y020151D01*
X037112Y020228D02*
X037189Y020151D01*
X037343Y020151D01*
X037419Y020228D01*
X037419Y020304D01*
X037343Y020381D01*
X037266Y020381D01*
X037343Y020381D02*
X037419Y020458D01*
X037419Y020535D01*
X037343Y020611D01*
X037189Y020611D01*
X037112Y020535D01*
X036499Y020535D02*
X036499Y020381D01*
X036422Y020304D01*
X036192Y020304D01*
X036192Y020151D02*
X036192Y020611D01*
X036422Y020611D01*
X036499Y020535D01*
X036345Y020304D02*
X036499Y020151D01*
X037961Y020301D02*
X037961Y020761D01*
X038191Y020761D01*
X038267Y020685D01*
X038267Y020531D01*
X038191Y020454D01*
X037961Y020454D01*
X038114Y020454D02*
X038267Y020301D01*
X038421Y020301D02*
X038728Y020608D01*
X038728Y020685D01*
X038651Y020761D01*
X038498Y020761D01*
X038421Y020685D01*
X038421Y020301D02*
X038728Y020301D01*
X038881Y020531D02*
X039188Y020531D01*
X039111Y020301D02*
X039111Y020761D01*
X038881Y020531D01*
X039222Y019729D02*
X039222Y019422D01*
X038991Y019652D01*
X039452Y019652D01*
X039375Y019268D02*
X039452Y019192D01*
X039452Y019038D01*
X039375Y018961D01*
X039375Y018808D02*
X039452Y018731D01*
X039452Y018578D01*
X039375Y018501D01*
X039068Y018501D01*
X038991Y018578D01*
X038991Y018731D01*
X039068Y018808D01*
X039068Y018961D02*
X038991Y019038D01*
X038991Y019192D01*
X039068Y019268D01*
X039145Y019268D01*
X039222Y019192D01*
X039298Y019268D01*
X039375Y019268D01*
X039222Y019192D02*
X039222Y019115D01*
X037319Y018585D02*
X037243Y018661D01*
X037089Y018661D01*
X037012Y018585D01*
X036859Y018585D02*
X036782Y018661D01*
X036629Y018661D01*
X036552Y018585D01*
X036399Y018585D02*
X036399Y018431D01*
X036322Y018354D01*
X036092Y018354D01*
X036092Y018201D02*
X036092Y018661D01*
X036322Y018661D01*
X036399Y018585D01*
X036245Y018354D02*
X036399Y018201D01*
X036552Y018201D02*
X036859Y018508D01*
X036859Y018585D01*
X036859Y018201D02*
X036552Y018201D01*
X037012Y018201D02*
X037319Y018508D01*
X037319Y018585D01*
X037319Y018201D02*
X037012Y018201D01*
X036052Y017402D02*
X035975Y017479D01*
X035668Y017479D01*
X035591Y017402D01*
X035591Y017248D01*
X035668Y017172D01*
X035745Y017172D01*
X035822Y017248D01*
X035822Y017479D01*
X036052Y017402D02*
X036052Y017248D01*
X035975Y017172D01*
X036052Y017018D02*
X036052Y016711D01*
X035745Y017018D01*
X035668Y017018D01*
X035591Y016942D01*
X035591Y016788D01*
X035668Y016711D01*
X035668Y016558D02*
X035591Y016481D01*
X035591Y016328D01*
X035668Y016251D01*
X035975Y016251D01*
X036052Y016328D01*
X036052Y016481D01*
X035975Y016558D01*
X035892Y015511D02*
X036122Y015511D01*
X036199Y015435D01*
X036199Y015281D01*
X036122Y015204D01*
X035892Y015204D01*
X035892Y015051D02*
X035892Y015511D01*
X036045Y015204D02*
X036199Y015051D01*
X036324Y015111D02*
X036324Y014651D01*
X036170Y014728D02*
X036170Y014881D01*
X036093Y014958D01*
X035863Y014958D01*
X035863Y014498D01*
X035863Y014651D02*
X036093Y014651D01*
X036170Y014728D01*
X036324Y014881D02*
X036400Y014958D01*
X036554Y014958D01*
X036631Y014881D01*
X036631Y014651D01*
X036784Y014728D02*
X036784Y014881D01*
X036861Y014958D01*
X037014Y014958D01*
X037091Y014881D01*
X037091Y014728D01*
X037014Y014651D01*
X036861Y014651D01*
X036784Y014728D01*
X036889Y015051D02*
X037043Y015051D01*
X037119Y015128D01*
X037119Y015204D01*
X037043Y015281D01*
X036812Y015281D01*
X036812Y015128D01*
X036889Y015051D01*
X036659Y015051D02*
X036352Y015051D01*
X036506Y015051D02*
X036506Y015511D01*
X036352Y015358D01*
X036812Y015281D02*
X036966Y015435D01*
X037119Y015511D01*
X037244Y014958D02*
X037475Y014958D01*
X037551Y014881D01*
X037551Y014651D01*
X037705Y014728D02*
X037705Y014881D01*
X037781Y014958D01*
X037935Y014958D01*
X038012Y014881D01*
X038012Y014804D01*
X037705Y014804D01*
X037705Y014728D02*
X037781Y014651D01*
X037935Y014651D01*
X037244Y014651D02*
X037244Y014958D01*
X035710Y014881D02*
X035710Y014728D01*
X035633Y014651D01*
X035480Y014651D01*
X035403Y014728D01*
X035403Y014881D01*
X035480Y014958D01*
X035633Y014958D01*
X035710Y014881D01*
X035249Y014958D02*
X035173Y014958D01*
X035019Y014804D01*
X035019Y014651D02*
X035019Y014958D01*
X034866Y014958D02*
X034636Y014958D01*
X034559Y014881D01*
X034559Y014728D01*
X034636Y014651D01*
X034866Y014651D01*
X034406Y014651D02*
X034252Y014651D01*
X034329Y014651D02*
X034329Y014958D01*
X034252Y014958D01*
X034329Y015111D02*
X034329Y015188D01*
X034099Y014881D02*
X034099Y014651D01*
X033945Y014651D02*
X033945Y014881D01*
X034022Y014958D01*
X034099Y014881D01*
X033945Y014881D02*
X033868Y014958D01*
X033792Y014958D01*
X033792Y014651D01*
X032469Y015285D02*
X032162Y014978D01*
X032162Y014901D01*
X032009Y014901D02*
X031702Y014901D01*
X032009Y015208D01*
X032009Y015285D01*
X031932Y015361D01*
X031779Y015361D01*
X031702Y015285D01*
X031549Y015285D02*
X031472Y015361D01*
X031318Y015361D01*
X031242Y015285D01*
X031242Y014978D01*
X031318Y014901D01*
X031472Y014901D01*
X031549Y014978D01*
X032162Y015361D02*
X032469Y015361D01*
X032469Y015285D01*
X030957Y015758D02*
X030881Y015758D01*
X030727Y015604D01*
X030727Y015451D02*
X030727Y015758D01*
X030574Y015681D02*
X030574Y015604D01*
X030267Y015604D01*
X030267Y015528D02*
X030267Y015681D01*
X030343Y015758D01*
X030497Y015758D01*
X030574Y015681D01*
X030497Y015451D02*
X030343Y015451D01*
X030267Y015528D01*
X030113Y015451D02*
X029883Y015604D01*
X030113Y015758D01*
X029883Y015911D02*
X029883Y015451D01*
X029730Y015451D02*
X029499Y015451D01*
X029423Y015528D01*
X029499Y015604D01*
X029730Y015604D01*
X029730Y015681D02*
X029730Y015451D01*
X029730Y015681D02*
X029653Y015758D01*
X029499Y015758D01*
X029269Y015681D02*
X029269Y015604D01*
X028962Y015604D01*
X028962Y015528D02*
X028962Y015681D01*
X029039Y015758D01*
X029193Y015758D01*
X029269Y015681D01*
X029193Y015451D02*
X029039Y015451D01*
X028962Y015528D01*
X028809Y015528D02*
X028732Y015451D01*
X028502Y015451D01*
X028502Y015298D02*
X028502Y015758D01*
X028732Y015758D01*
X028809Y015681D01*
X028809Y015528D01*
X028349Y015528D02*
X028272Y015451D01*
X028042Y015451D01*
X028118Y015604D02*
X028042Y015681D01*
X028118Y015758D01*
X028349Y015758D01*
X028272Y015604D02*
X028118Y015604D01*
X028272Y015604D02*
X028349Y015528D01*
X027902Y015628D02*
X027902Y015781D01*
X027825Y015858D01*
X027902Y016011D02*
X027595Y016318D01*
X027518Y016318D01*
X027441Y016242D01*
X027441Y016088D01*
X027518Y016011D01*
X027518Y015858D02*
X027441Y015781D01*
X027441Y015628D01*
X027518Y015551D01*
X027825Y015551D01*
X027902Y015628D01*
X027902Y016011D02*
X027902Y016318D01*
X027825Y016472D02*
X027748Y016472D01*
X027672Y016548D01*
X027672Y016702D01*
X027748Y016779D01*
X027825Y016779D01*
X027902Y016702D01*
X027902Y016548D01*
X027825Y016472D01*
X027672Y016548D02*
X027595Y016472D01*
X027518Y016472D01*
X027441Y016548D01*
X027441Y016702D01*
X027518Y016779D01*
X027595Y016779D01*
X027672Y016702D01*
X026069Y016011D02*
X025762Y016011D01*
X025762Y015781D01*
X025916Y015858D01*
X025993Y015858D01*
X026069Y015781D01*
X026069Y015628D01*
X025993Y015551D01*
X025839Y015551D01*
X025762Y015628D01*
X025609Y015551D02*
X025302Y015551D01*
X025609Y015858D01*
X025609Y015935D01*
X025532Y016011D01*
X025379Y016011D01*
X025302Y015935D01*
X025149Y015935D02*
X025072Y016011D01*
X024918Y016011D01*
X024842Y015935D01*
X024842Y015628D01*
X024918Y015551D01*
X025072Y015551D01*
X025149Y015628D01*
X025043Y016051D02*
X024889Y016051D01*
X024812Y016128D01*
X025119Y016435D01*
X025119Y016128D01*
X025043Y016051D01*
X024812Y016128D02*
X024812Y016435D01*
X024889Y016511D01*
X025043Y016511D01*
X025119Y016435D01*
X024659Y016435D02*
X024582Y016511D01*
X024429Y016511D01*
X024352Y016435D01*
X024199Y016435D02*
X024122Y016511D01*
X023968Y016511D01*
X023892Y016435D01*
X023892Y016128D01*
X023968Y016051D01*
X024122Y016051D01*
X024199Y016128D01*
X024352Y016128D02*
X024429Y016051D01*
X024582Y016051D01*
X024659Y016128D01*
X024659Y016204D01*
X024582Y016281D01*
X024506Y016281D01*
X024582Y016281D02*
X024659Y016358D01*
X024659Y016435D01*
X023752Y016548D02*
X023675Y016472D01*
X023752Y016548D02*
X023752Y016702D01*
X023675Y016779D01*
X023368Y016779D01*
X023291Y016702D01*
X023291Y016548D01*
X023368Y016472D01*
X023445Y016472D01*
X023522Y016548D01*
X023522Y016779D01*
X023752Y016318D02*
X023752Y016011D01*
X023752Y015858D02*
X023598Y015704D01*
X023598Y015781D02*
X023598Y015551D01*
X023752Y015551D02*
X023291Y015551D01*
X023291Y015781D01*
X023368Y015858D01*
X023522Y015858D01*
X023598Y015781D01*
X023445Y016011D02*
X023291Y016165D01*
X023752Y016165D01*
X023742Y015261D02*
X023895Y015261D01*
X023818Y015261D02*
X023818Y014801D01*
X023742Y014801D02*
X023895Y014801D01*
X024049Y014878D02*
X024125Y014801D01*
X024279Y014801D01*
X024356Y014878D01*
X024509Y014878D02*
X024586Y014801D01*
X024739Y014801D01*
X024816Y014878D01*
X024816Y015185D01*
X024739Y015261D01*
X024586Y015261D01*
X024509Y015185D01*
X024509Y015108D01*
X024586Y015031D01*
X024816Y015031D01*
X024356Y015185D02*
X024279Y015261D01*
X024125Y015261D01*
X024049Y015185D01*
X024049Y014878D01*
X027192Y012761D02*
X027422Y012761D01*
X027499Y012685D01*
X027499Y012531D01*
X027422Y012454D01*
X027192Y012454D01*
X027192Y012301D02*
X027192Y012761D01*
X027345Y012454D02*
X027499Y012301D01*
X027652Y012301D02*
X027959Y012301D01*
X027806Y012301D02*
X027806Y012761D01*
X027652Y012608D01*
X028112Y012531D02*
X028419Y012531D01*
X028343Y012301D02*
X028343Y012761D01*
X028112Y012531D01*
X028518Y013501D02*
X028672Y013501D01*
X028749Y013578D01*
X028902Y013501D02*
X029209Y013808D01*
X029209Y013885D01*
X029132Y013961D01*
X028979Y013961D01*
X028902Y013885D01*
X028749Y013885D02*
X028672Y013961D01*
X028518Y013961D01*
X028442Y013885D01*
X028442Y013578D01*
X028518Y013501D01*
X028902Y013501D02*
X029209Y013501D01*
X029362Y013578D02*
X029439Y013501D01*
X029593Y013501D01*
X029669Y013578D01*
X029669Y013654D01*
X029593Y013731D01*
X029516Y013731D01*
X029593Y013731D02*
X029669Y013808D01*
X029669Y013885D01*
X029593Y013961D01*
X029439Y013961D01*
X029362Y013885D01*
X029439Y014601D02*
X029362Y014678D01*
X029439Y014601D02*
X029593Y014601D01*
X029669Y014678D01*
X029669Y014831D01*
X029593Y014908D01*
X029516Y014908D01*
X029362Y014831D01*
X029362Y015061D01*
X029669Y015061D01*
X029056Y015061D02*
X029056Y014601D01*
X029209Y014601D02*
X028902Y014601D01*
X028749Y014601D02*
X028595Y014754D01*
X028672Y014754D02*
X028442Y014754D01*
X028442Y014601D02*
X028442Y015061D01*
X028672Y015061D01*
X028749Y014985D01*
X028749Y014831D01*
X028672Y014754D01*
X028902Y014908D02*
X029056Y015061D01*
X030892Y017051D02*
X030892Y017511D01*
X031122Y017511D01*
X031199Y017435D01*
X031199Y017281D01*
X031122Y017204D01*
X030892Y017204D01*
X031045Y017204D02*
X031199Y017051D01*
X031352Y017051D02*
X031659Y017051D01*
X031812Y017051D02*
X031812Y017128D01*
X032119Y017435D01*
X032119Y017511D01*
X031812Y017511D01*
X031506Y017511D02*
X031352Y017358D01*
X031506Y017511D02*
X031506Y017051D01*
X032192Y017351D02*
X032345Y017351D01*
X032268Y017351D02*
X032268Y017811D01*
X032192Y017811D02*
X032345Y017811D01*
X032499Y017735D02*
X032499Y017428D01*
X032575Y017351D01*
X032729Y017351D01*
X032806Y017428D01*
X032959Y017351D02*
X033266Y017351D01*
X033112Y017351D02*
X033112Y017811D01*
X032959Y017658D01*
X032806Y017735D02*
X032729Y017811D01*
X032575Y017811D01*
X032499Y017735D01*
X033419Y017735D02*
X033419Y017428D01*
X033726Y017735D01*
X033726Y017428D01*
X033649Y017351D01*
X033496Y017351D01*
X033419Y017428D01*
X033419Y017735D02*
X033496Y017811D01*
X033649Y017811D01*
X033726Y017735D01*
X034741Y017781D02*
X034741Y017628D01*
X034818Y017551D01*
X035125Y017551D01*
X035202Y017628D01*
X035202Y017781D01*
X035125Y017858D01*
X035125Y018011D02*
X035202Y018088D01*
X035202Y018242D01*
X035125Y018318D01*
X035048Y018318D01*
X034972Y018242D01*
X034972Y018165D01*
X034972Y018242D02*
X034895Y018318D01*
X034818Y018318D01*
X034741Y018242D01*
X034741Y018088D01*
X034818Y018011D01*
X034818Y017858D02*
X034741Y017781D01*
X034818Y018472D02*
X034741Y018548D01*
X034741Y018702D01*
X034818Y018779D01*
X034895Y018779D01*
X034972Y018702D01*
X035048Y018779D01*
X035125Y018779D01*
X035202Y018702D01*
X035202Y018548D01*
X035125Y018472D01*
X034972Y018625D02*
X034972Y018702D01*
X039491Y023228D02*
X039568Y023151D01*
X039875Y023151D01*
X039952Y023228D01*
X039952Y023381D01*
X039875Y023458D01*
X039875Y023611D02*
X039952Y023688D01*
X039952Y023842D01*
X039875Y023918D01*
X039798Y023918D01*
X039722Y023842D01*
X039722Y023765D01*
X039722Y023842D02*
X039645Y023918D01*
X039568Y023918D01*
X039491Y023842D01*
X039491Y023688D01*
X039568Y023611D01*
X039568Y023458D02*
X039491Y023381D01*
X039491Y023228D01*
X039491Y024072D02*
X039491Y024379D01*
X039568Y024379D01*
X039875Y024072D01*
X039952Y024072D01*
X033302Y030511D02*
X033302Y030571D01*
X033242Y030631D01*
X032941Y030631D01*
X032941Y030571D02*
X032941Y030691D01*
X032941Y030819D02*
X032941Y030999D01*
X033001Y031060D01*
X033122Y031060D01*
X033182Y030999D01*
X033182Y030819D01*
X033302Y030819D02*
X032941Y030819D01*
X033001Y031188D02*
X032941Y031248D01*
X032941Y031368D01*
X033001Y031428D01*
X033242Y031428D01*
X033302Y031368D01*
X033302Y031248D01*
X033242Y031188D01*
X033122Y031248D02*
X033122Y031428D01*
X033122Y031248D02*
X033062Y031188D01*
X033001Y031188D01*
X033302Y030511D02*
X033242Y030451D01*
X020100Y019261D02*
X019860Y019261D01*
X019860Y019081D01*
X019980Y019141D01*
X020040Y019141D01*
X020100Y019081D01*
X020100Y018961D01*
X020040Y018901D01*
X019920Y018901D01*
X019860Y018961D01*
X019672Y018961D02*
X019672Y019261D01*
X019612Y019261D02*
X019732Y019261D01*
X019672Y018961D02*
X019612Y018901D01*
X019552Y018901D01*
X019492Y018961D01*
X017002Y018246D02*
X017002Y018092D01*
X016925Y018016D01*
X016772Y018016D01*
X016695Y018092D01*
X016695Y018246D01*
X016772Y018323D01*
X016848Y018323D01*
X016848Y018016D01*
X016695Y017862D02*
X016695Y017632D01*
X016772Y017555D01*
X016925Y017555D01*
X017002Y017632D01*
X017002Y017862D01*
X017078Y017862D02*
X016695Y017862D01*
X017078Y017862D02*
X017155Y017786D01*
X017155Y017709D01*
X017002Y017402D02*
X016772Y017402D01*
X016695Y017325D01*
X013219Y019261D02*
X013158Y019201D01*
X013038Y019201D01*
X012978Y019261D01*
X013098Y019381D02*
X013158Y019381D01*
X013219Y019321D01*
X013219Y019261D01*
X013158Y019381D02*
X013219Y019441D01*
X013219Y019501D01*
X013158Y019561D01*
X013038Y019561D01*
X012978Y019501D01*
X012850Y019501D02*
X012850Y019381D01*
X012790Y019321D01*
X012610Y019321D01*
X012610Y019201D02*
X012610Y019561D01*
X012790Y019561D01*
X012850Y019501D01*
X012482Y019561D02*
X012362Y019561D01*
X012422Y019561D02*
X012422Y019261D01*
X012362Y019201D01*
X012302Y019201D01*
X012242Y019261D01*
X008019Y019241D02*
X008019Y019301D01*
X007958Y019361D01*
X007838Y019361D01*
X007778Y019301D01*
X007650Y019301D02*
X007650Y019181D01*
X007590Y019121D01*
X007410Y019121D01*
X007410Y019001D02*
X007410Y019361D01*
X007590Y019361D01*
X007650Y019301D01*
X007778Y019001D02*
X008019Y019241D01*
X008019Y019001D02*
X007778Y019001D01*
X007222Y019061D02*
X007222Y019361D01*
X007162Y019361D02*
X007282Y019361D01*
X007222Y019061D02*
X007162Y019001D01*
X007102Y019001D01*
X007042Y019061D01*
X001402Y016102D02*
X001402Y015948D01*
X001325Y015872D01*
X001248Y015872D01*
X001172Y015948D01*
X001172Y016102D01*
X001248Y016179D01*
X001325Y016179D01*
X001402Y016102D01*
X001172Y016102D02*
X001095Y016179D01*
X001018Y016179D01*
X000941Y016102D01*
X000941Y015948D01*
X001018Y015872D01*
X001095Y015872D01*
X001172Y015948D01*
X001402Y015718D02*
X001402Y015411D01*
X001402Y015258D02*
X001248Y015104D01*
X001248Y015181D02*
X001248Y014951D01*
X001402Y014951D02*
X000941Y014951D01*
X000941Y015181D01*
X001018Y015258D01*
X001172Y015258D01*
X001248Y015181D01*
X001095Y015411D02*
X000941Y015565D01*
X001402Y015565D01*
X001002Y022351D02*
X000695Y022351D01*
X000541Y022504D01*
X000695Y022658D01*
X001002Y022658D01*
X000925Y022811D02*
X000695Y022811D01*
X000772Y022658D02*
X000772Y022351D01*
X000925Y022811D02*
X001002Y022888D01*
X001002Y023118D01*
X000695Y023118D01*
X000772Y023272D02*
X000695Y023348D01*
X000695Y023579D01*
X000695Y023732D02*
X000695Y023809D01*
X001002Y023809D01*
X001002Y023732D02*
X001002Y023886D01*
X000925Y024039D02*
X001002Y024116D01*
X001002Y024269D01*
X000925Y024346D01*
X000772Y024346D01*
X000695Y024269D01*
X000695Y024116D01*
X000772Y024039D01*
X000925Y024039D01*
X000541Y023809D02*
X000465Y023809D01*
X000541Y023579D02*
X001002Y023579D01*
X001002Y023348D01*
X000925Y023272D01*
X000772Y023272D01*
X000848Y024960D02*
X000848Y025190D01*
X000772Y025267D01*
X000618Y025267D01*
X000541Y025190D01*
X000541Y024960D01*
X001002Y024960D01*
X001002Y025420D02*
X000541Y025420D01*
X000541Y025727D02*
X001002Y025727D01*
X000848Y025573D01*
X001002Y025420D01*
X001002Y025880D02*
X000541Y025880D01*
X000695Y026034D01*
X000541Y026187D01*
X001002Y026187D01*
X001002Y026955D02*
X000541Y026955D01*
X000541Y027108D02*
X000541Y026801D01*
X000772Y027261D02*
X000695Y027338D01*
X000695Y027492D01*
X000772Y027568D01*
X000848Y027568D01*
X000848Y027261D01*
X000772Y027261D02*
X000925Y027261D01*
X001002Y027338D01*
X001002Y027492D01*
X001002Y027722D02*
X001002Y027952D01*
X000925Y028029D01*
X000848Y027952D01*
X000848Y027799D01*
X000772Y027722D01*
X000695Y027799D01*
X000695Y028029D01*
X000695Y028182D02*
X000695Y028336D01*
X000618Y028259D02*
X000925Y028259D01*
X001002Y028336D01*
X003241Y026552D02*
X003318Y026629D01*
X003625Y026322D01*
X003702Y026398D01*
X003702Y026552D01*
X003625Y026629D01*
X003318Y026629D01*
X003241Y026552D02*
X003241Y026398D01*
X003318Y026322D01*
X003625Y026322D01*
X003625Y026168D02*
X003702Y026092D01*
X003702Y025938D01*
X003625Y025861D01*
X003702Y025708D02*
X003548Y025554D01*
X003548Y025631D02*
X003548Y025401D01*
X003702Y025401D02*
X003241Y025401D01*
X003241Y025631D01*
X003318Y025708D01*
X003472Y025708D01*
X003548Y025631D01*
X003318Y025861D02*
X003241Y025938D01*
X003241Y026092D01*
X003318Y026168D01*
X003395Y026168D01*
X003472Y026092D01*
X003548Y026168D01*
X003625Y026168D01*
X003472Y026092D02*
X003472Y026015D01*
X002452Y025592D02*
X002375Y025668D01*
X002298Y025668D01*
X002222Y025592D01*
X002222Y025361D01*
X002375Y025361D01*
X002452Y025438D01*
X002452Y025592D01*
X002222Y025361D02*
X002068Y025515D01*
X001991Y025668D01*
X002068Y025208D02*
X001991Y025131D01*
X001991Y024901D01*
X002452Y024901D01*
X002452Y025131D01*
X002375Y025208D01*
X002068Y025208D01*
X005741Y026520D02*
X005741Y026750D01*
X005818Y026827D01*
X005972Y026827D01*
X006048Y026750D01*
X006048Y026520D01*
X006048Y026673D02*
X006202Y026827D01*
X006125Y026980D02*
X006202Y027057D01*
X006202Y027210D01*
X006125Y027287D01*
X006048Y027287D01*
X005972Y027210D01*
X005972Y027134D01*
X005972Y027210D02*
X005895Y027287D01*
X005818Y027287D01*
X005741Y027210D01*
X005741Y027057D01*
X005818Y026980D01*
X005741Y026520D02*
X006202Y026520D01*
X006202Y027441D02*
X006202Y027747D01*
X006202Y027594D02*
X005741Y027594D01*
X005895Y027441D01*
X006292Y029546D02*
X006352Y029606D01*
X006352Y029666D01*
X006292Y029726D01*
X005991Y029726D01*
X005991Y029666D02*
X005991Y029786D01*
X006112Y029914D02*
X005991Y030034D01*
X006352Y030034D01*
X006352Y029914D02*
X006352Y030155D01*
X006292Y030283D02*
X006051Y030523D01*
X006292Y030523D01*
X006352Y030463D01*
X006352Y030343D01*
X006292Y030283D01*
X006051Y030283D01*
X005991Y030343D01*
X005991Y030463D01*
X006051Y030523D01*
X008741Y030648D02*
X008741Y030802D01*
X008818Y030879D01*
X009125Y030572D01*
X009202Y030648D01*
X009202Y030802D01*
X009125Y030879D01*
X008818Y030879D01*
X008741Y030648D02*
X008818Y030572D01*
X009125Y030572D01*
X008972Y030418D02*
X008972Y030111D01*
X008741Y030342D01*
X009202Y030342D01*
X009125Y029958D02*
X009202Y029881D01*
X009202Y029728D01*
X009125Y029651D01*
X008818Y029651D01*
X008741Y029728D01*
X008741Y029881D01*
X008818Y029958D01*
X012265Y028176D02*
X012341Y028176D01*
X012495Y028176D02*
X012802Y028176D01*
X012802Y028100D02*
X012802Y028253D01*
X012725Y028407D02*
X012572Y028407D01*
X012495Y028483D01*
X012495Y028637D01*
X012572Y028713D01*
X012648Y028713D01*
X012648Y028407D01*
X012725Y028407D02*
X012802Y028483D01*
X012802Y028637D01*
X012802Y028867D02*
X012495Y028867D01*
X012648Y028867D02*
X012495Y029020D01*
X012495Y029097D01*
X012495Y028176D02*
X012495Y028100D01*
X012495Y027946D02*
X012495Y027869D01*
X012648Y027716D01*
X012495Y027716D02*
X012802Y027716D01*
X012495Y027563D02*
X012495Y027486D01*
X012648Y027332D01*
X012648Y027179D02*
X012648Y026949D01*
X012725Y026872D01*
X012802Y026949D01*
X012802Y027179D01*
X012572Y027179D01*
X012495Y027102D01*
X012495Y026949D01*
X012418Y026719D02*
X012341Y026642D01*
X012341Y026488D01*
X012418Y026412D01*
X012725Y026412D01*
X012802Y026488D01*
X012802Y026642D01*
X012725Y026719D01*
X012802Y027332D02*
X012495Y027332D01*
X012495Y025798D02*
X012878Y025798D01*
X012955Y025721D01*
X012955Y025644D01*
X012802Y025568D02*
X012802Y025798D01*
X012802Y025568D02*
X012725Y025491D01*
X012495Y025491D01*
X012341Y025261D02*
X012802Y025261D01*
X012802Y025184D02*
X012802Y025338D01*
X012572Y024877D02*
X012572Y024724D01*
X012802Y024724D02*
X012341Y024724D01*
X012341Y025031D01*
X012341Y025184D02*
X012341Y025261D01*
X012341Y024494D02*
X012265Y024494D01*
X012495Y024494D02*
X012495Y024417D01*
X012495Y024494D02*
X012802Y024494D01*
X012802Y024570D02*
X012802Y024417D01*
X012802Y024263D02*
X012341Y024263D01*
X012341Y023957D02*
X012802Y023957D01*
X012648Y024110D01*
X012802Y024263D01*
X027642Y009635D02*
X027642Y009328D01*
X027718Y009251D01*
X027872Y009251D01*
X027949Y009328D01*
X028102Y009251D02*
X028409Y009251D01*
X028256Y009251D02*
X028256Y009711D01*
X028102Y009558D01*
X027949Y009635D02*
X027872Y009711D01*
X027718Y009711D01*
X027642Y009635D01*
X028562Y009481D02*
X028793Y009481D01*
X028869Y009404D01*
X028869Y009328D01*
X028793Y009251D01*
X028639Y009251D01*
X028562Y009328D01*
X028562Y009481D01*
X028716Y009635D01*
X028869Y009711D01*
X027582Y005511D02*
X027352Y005281D01*
X027659Y005281D01*
X027582Y005051D02*
X027582Y005511D01*
X027199Y005435D02*
X027122Y005511D01*
X026968Y005511D01*
X026892Y005435D01*
X026892Y005128D01*
X026968Y005051D01*
X027122Y005051D01*
X027199Y005128D01*
X030033Y002311D02*
X030033Y001851D01*
X030340Y001851D01*
X030494Y001851D02*
X030801Y001851D01*
X030954Y001928D02*
X030954Y002235D01*
X031031Y002311D01*
X031184Y002311D01*
X031261Y002235D01*
X031261Y001928D02*
X031184Y001851D01*
X031031Y001851D01*
X030954Y001928D01*
X030494Y001851D02*
X030494Y002311D01*
X000802Y002428D02*
X000802Y002581D01*
X000725Y002658D01*
X000802Y002811D02*
X000802Y003118D01*
X000802Y002965D02*
X000341Y002965D01*
X000495Y002811D01*
X000418Y002658D02*
X000341Y002581D01*
X000341Y002428D01*
X000418Y002351D01*
X000725Y002351D01*
X000802Y002428D01*
D12*
X001722Y002381D02*
X001722Y001881D01*
X001972Y001631D01*
X001722Y002381D02*
X001972Y002631D01*
X003472Y002631D01*
X003722Y002381D01*
X003722Y001881D01*
X003472Y001631D01*
X003472Y002631D02*
X003722Y002881D01*
X003722Y003381D01*
X003472Y003631D01*
X001972Y003631D01*
X001722Y003381D01*
X001722Y002881D01*
X001972Y002631D01*
X001972Y003631D02*
X001722Y003881D01*
X001722Y004381D01*
X001972Y004631D01*
X003472Y004631D01*
X003722Y004381D01*
X003722Y003881D01*
X003472Y003631D01*
X003472Y004631D02*
X003722Y004881D01*
X003722Y005381D02*
X003472Y005631D01*
X001972Y005631D01*
X001722Y005381D01*
X001722Y004881D01*
X001972Y004631D01*
X001972Y005631D02*
X001722Y005881D01*
X001722Y006381D01*
X001972Y006631D01*
X003472Y006631D01*
X003722Y006381D01*
X003722Y005881D01*
X003472Y005631D01*
X003472Y006631D02*
X003722Y006881D01*
X003722Y007381D01*
X003472Y007631D01*
X001972Y007631D01*
X001722Y007381D01*
X001722Y006881D01*
X001972Y006631D01*
X001972Y007631D02*
X001722Y007881D01*
X001722Y008381D01*
X001972Y008631D01*
X003472Y008631D01*
X003722Y008381D01*
X003722Y007881D01*
X003472Y007631D01*
X003472Y008631D02*
X003722Y008881D01*
X003722Y009381D01*
X003472Y009631D01*
X001972Y009631D01*
X001722Y009881D01*
X001722Y010381D01*
X001972Y010631D01*
X003472Y010631D01*
X003722Y010381D01*
X003722Y009881D01*
X003472Y009631D01*
X003472Y010631D02*
X003722Y010881D01*
X003722Y011381D01*
X003472Y011631D01*
X001972Y011631D01*
X001722Y011381D01*
X001722Y010881D01*
X001972Y010631D01*
X001972Y009631D02*
X001722Y009381D01*
X001722Y008881D01*
X001972Y008631D01*
X001972Y011631D02*
X001722Y011881D01*
X001722Y012381D01*
X001972Y012631D01*
X003472Y012631D01*
X003722Y012381D01*
X003722Y011881D01*
X003472Y011631D01*
X003472Y012631D02*
X003722Y012881D01*
X003722Y013381D01*
X003472Y013631D01*
X001972Y013631D01*
X001722Y013381D01*
X001722Y012881D01*
X001972Y012631D01*
X001972Y013631D02*
X001722Y013881D01*
X001722Y014381D01*
X001972Y014631D01*
X003472Y014631D01*
X003722Y014381D01*
X003722Y013881D01*
X003472Y013631D01*
X003472Y014631D02*
X003722Y014881D01*
X003722Y015381D01*
X003472Y015631D01*
X001972Y015631D01*
X001722Y015381D01*
X001722Y014881D01*
X001972Y014631D01*
X001972Y015631D02*
X001722Y015881D01*
X001722Y016381D01*
X001972Y016631D01*
X003472Y016631D01*
X003722Y016381D01*
X003722Y015881D01*
X003472Y015631D01*
X003472Y016631D02*
X003722Y016881D01*
X003722Y017381D01*
X003472Y017631D01*
X001972Y017631D02*
X001722Y017381D01*
X001722Y016881D01*
X001972Y016631D01*
X006722Y015381D02*
X006722Y011881D01*
X007222Y011881D01*
X007222Y011781D01*
X007722Y011781D01*
X007722Y011881D01*
X011972Y011881D01*
X011972Y011781D01*
X012472Y011781D01*
X012472Y011881D01*
X016722Y011881D01*
X016722Y011781D01*
X017222Y011781D01*
X017222Y011881D01*
X017722Y011881D01*
X017722Y015381D01*
X016022Y015381D01*
X016022Y015331D01*
X015422Y015331D01*
X015422Y015381D01*
X014872Y015381D01*
X014722Y015181D01*
X014522Y015181D01*
X013922Y015181D01*
X013722Y015181D01*
X013572Y015381D01*
X013022Y015381D01*
X013022Y014981D01*
X013022Y014881D01*
X013922Y014881D01*
X014522Y014881D01*
X017222Y014881D01*
X017222Y012381D01*
X007222Y012381D01*
X007222Y014881D01*
X008922Y014881D01*
X009522Y014881D01*
X011422Y014881D01*
X011422Y014981D01*
X011422Y015381D01*
X013022Y015381D01*
X013022Y014881D02*
X013022Y014581D01*
X011422Y014581D01*
X011422Y014881D01*
X011422Y015381D02*
X009872Y015381D01*
X009722Y015181D01*
X009522Y015181D01*
X008922Y015181D01*
X008922Y014981D01*
X008922Y014881D01*
X008922Y015181D02*
X008722Y015181D01*
X008572Y015381D01*
X006722Y015381D01*
X009522Y015181D02*
X009522Y014981D01*
X009522Y014881D01*
X013922Y014881D02*
X013922Y014981D01*
X013922Y015181D01*
X014522Y015181D02*
X014522Y014981D01*
X014522Y014881D01*
X013241Y009951D02*
X012603Y009951D01*
X012603Y009914D01*
X012603Y009597D02*
X012603Y009560D01*
X012603Y009223D02*
X012603Y009186D01*
X012603Y008868D02*
X012603Y008831D01*
X013241Y008831D01*
X013241Y008868D01*
X013241Y009186D02*
X013241Y009597D01*
X013241Y009914D02*
X013241Y009951D01*
X013241Y006951D02*
X012603Y006951D01*
X012603Y006914D01*
X012603Y006597D02*
X012603Y006560D01*
X012603Y006223D02*
X012603Y006186D01*
X012603Y005868D02*
X012603Y005831D01*
X013241Y005831D01*
X013241Y005868D01*
X013241Y006186D02*
X013241Y006597D01*
X013241Y006914D02*
X013241Y006951D01*
X013192Y004108D02*
X013192Y004002D01*
X013192Y003788D02*
X013085Y003788D01*
X013192Y003788D02*
X013192Y003361D01*
X013085Y003361D02*
X013299Y003361D01*
X013515Y003361D02*
X013835Y003361D01*
X013942Y003468D01*
X013942Y003681D01*
X013835Y003788D01*
X013515Y003788D01*
X013515Y004002D02*
X013515Y003361D01*
X012868Y003361D02*
X012868Y003681D01*
X012761Y003788D01*
X012654Y003681D01*
X012654Y003361D01*
X012441Y003361D02*
X012441Y003788D01*
X012548Y003788D01*
X012654Y003681D01*
X012223Y003681D02*
X012223Y003468D01*
X012116Y003361D01*
X011903Y003361D01*
X011796Y003468D01*
X011796Y003681D01*
X011903Y003788D01*
X012116Y003788D01*
X012223Y003681D01*
X011579Y003681D02*
X011472Y003575D01*
X011152Y003575D01*
X011365Y003575D02*
X011579Y003361D01*
X011579Y003681D02*
X011579Y003895D01*
X011472Y004002D01*
X011152Y004002D01*
X011152Y003361D01*
X014160Y003468D02*
X014266Y003361D01*
X014480Y003361D01*
X014587Y003468D01*
X014587Y003681D01*
X014480Y003788D01*
X014266Y003788D01*
X014160Y003681D01*
X014160Y003468D01*
X015449Y003468D02*
X015555Y003361D01*
X015769Y003361D01*
X015876Y003468D01*
X015876Y003575D01*
X015769Y003681D01*
X015555Y003681D01*
X015449Y003788D01*
X015449Y003895D01*
X015555Y004002D01*
X015769Y004002D01*
X015876Y003895D01*
X016093Y004002D02*
X016093Y003361D01*
X016093Y003681D02*
X016200Y003788D01*
X016413Y003788D01*
X016520Y003681D01*
X016520Y003361D01*
X016738Y003361D02*
X016951Y003361D01*
X016844Y003361D02*
X016844Y003788D01*
X016738Y003788D01*
X016844Y004002D02*
X016844Y004108D01*
X017167Y003681D02*
X017274Y003788D01*
X017488Y003788D01*
X017594Y003681D01*
X017594Y003575D01*
X017167Y003575D01*
X017167Y003681D02*
X017167Y003468D01*
X017274Y003361D01*
X017488Y003361D01*
X017812Y003361D02*
X018025Y003361D01*
X017919Y003361D02*
X017919Y004002D01*
X017812Y004002D01*
X018242Y003681D02*
X018348Y003788D01*
X018669Y003788D01*
X018669Y004002D02*
X018669Y003361D01*
X018348Y003361D01*
X018242Y003468D01*
X018242Y003681D01*
X019531Y003575D02*
X019851Y003575D01*
X019958Y003681D01*
X019958Y003895D01*
X019851Y004002D01*
X019531Y004002D01*
X019531Y003361D01*
X019744Y003575D02*
X019958Y003361D01*
X020175Y003468D02*
X020175Y003681D01*
X020282Y003788D01*
X020495Y003788D01*
X020602Y003681D01*
X020602Y003575D01*
X020175Y003575D01*
X020175Y003468D02*
X020282Y003361D01*
X020495Y003361D01*
X020820Y003788D02*
X021033Y003361D01*
X021247Y003788D01*
X022109Y003895D02*
X022215Y004002D01*
X022429Y004002D01*
X022536Y003895D01*
X022536Y003788D01*
X022429Y003681D01*
X022536Y003575D01*
X022536Y003468D01*
X022429Y003361D01*
X022215Y003361D01*
X022109Y003468D01*
X022322Y003681D02*
X022429Y003681D01*
X023252Y005701D02*
X023254Y005764D01*
X023260Y005826D01*
X023270Y005888D01*
X023283Y005950D01*
X023301Y006010D01*
X023322Y006069D01*
X023347Y006127D01*
X023376Y006183D01*
X023408Y006237D01*
X023443Y006289D01*
X023481Y006338D01*
X023523Y006386D01*
X023567Y006430D01*
X023615Y006472D01*
X023664Y006510D01*
X023716Y006545D01*
X023770Y006577D01*
X023826Y006606D01*
X023884Y006631D01*
X023943Y006652D01*
X024003Y006670D01*
X024065Y006683D01*
X024127Y006693D01*
X024189Y006699D01*
X024252Y006701D01*
X024315Y006699D01*
X024377Y006693D01*
X024439Y006683D01*
X024501Y006670D01*
X024561Y006652D01*
X024620Y006631D01*
X024678Y006606D01*
X024734Y006577D01*
X024788Y006545D01*
X024840Y006510D01*
X024889Y006472D01*
X024937Y006430D01*
X024981Y006386D01*
X025023Y006338D01*
X025061Y006289D01*
X025096Y006237D01*
X025128Y006183D01*
X025157Y006127D01*
X025182Y006069D01*
X025203Y006010D01*
X025221Y005950D01*
X025234Y005888D01*
X025244Y005826D01*
X025250Y005764D01*
X025252Y005701D01*
X025250Y005638D01*
X025244Y005576D01*
X025234Y005514D01*
X025221Y005452D01*
X025203Y005392D01*
X025182Y005333D01*
X025157Y005275D01*
X025128Y005219D01*
X025096Y005165D01*
X025061Y005113D01*
X025023Y005064D01*
X024981Y005016D01*
X024937Y004972D01*
X024889Y004930D01*
X024840Y004892D01*
X024788Y004857D01*
X024734Y004825D01*
X024678Y004796D01*
X024620Y004771D01*
X024561Y004750D01*
X024501Y004732D01*
X024439Y004719D01*
X024377Y004709D01*
X024315Y004703D01*
X024252Y004701D01*
X024189Y004703D01*
X024127Y004709D01*
X024065Y004719D01*
X024003Y004732D01*
X023943Y004750D01*
X023884Y004771D01*
X023826Y004796D01*
X023770Y004825D01*
X023716Y004857D01*
X023664Y004892D01*
X023615Y004930D01*
X023567Y004972D01*
X023523Y005016D01*
X023481Y005064D01*
X023443Y005113D01*
X023408Y005165D01*
X023376Y005219D01*
X023347Y005275D01*
X023322Y005333D01*
X023301Y005392D01*
X023283Y005452D01*
X023270Y005514D01*
X023260Y005576D01*
X023254Y005638D01*
X023252Y005701D01*
X024652Y006251D02*
X024752Y006251D01*
X024852Y006251D01*
X024752Y006251D02*
X024752Y006151D01*
X024752Y006251D02*
X024752Y006351D01*
X022982Y007971D02*
X022462Y007971D01*
X022462Y009091D01*
X022982Y009091D01*
X022982Y007971D01*
X022982Y009321D02*
X022462Y009321D01*
X022462Y010441D01*
X022982Y010441D01*
X022982Y009321D01*
X025822Y008381D02*
X025824Y008444D01*
X025830Y008506D01*
X025840Y008568D01*
X025853Y008630D01*
X025871Y008690D01*
X025892Y008749D01*
X025917Y008807D01*
X025946Y008863D01*
X025978Y008917D01*
X026013Y008969D01*
X026051Y009018D01*
X026093Y009066D01*
X026137Y009110D01*
X026185Y009152D01*
X026234Y009190D01*
X026286Y009225D01*
X026340Y009257D01*
X026396Y009286D01*
X026454Y009311D01*
X026513Y009332D01*
X026573Y009350D01*
X026635Y009363D01*
X026697Y009373D01*
X026759Y009379D01*
X026822Y009381D01*
X026885Y009379D01*
X026947Y009373D01*
X027009Y009363D01*
X027071Y009350D01*
X027131Y009332D01*
X027190Y009311D01*
X027248Y009286D01*
X027304Y009257D01*
X027358Y009225D01*
X027410Y009190D01*
X027459Y009152D01*
X027507Y009110D01*
X027551Y009066D01*
X027593Y009018D01*
X027631Y008969D01*
X027666Y008917D01*
X027698Y008863D01*
X027727Y008807D01*
X027752Y008749D01*
X027773Y008690D01*
X027791Y008630D01*
X027804Y008568D01*
X027814Y008506D01*
X027820Y008444D01*
X027822Y008381D01*
X027820Y008318D01*
X027814Y008256D01*
X027804Y008194D01*
X027791Y008132D01*
X027773Y008072D01*
X027752Y008013D01*
X027727Y007955D01*
X027698Y007899D01*
X027666Y007845D01*
X027631Y007793D01*
X027593Y007744D01*
X027551Y007696D01*
X027507Y007652D01*
X027459Y007610D01*
X027410Y007572D01*
X027358Y007537D01*
X027304Y007505D01*
X027248Y007476D01*
X027190Y007451D01*
X027131Y007430D01*
X027071Y007412D01*
X027009Y007399D01*
X026947Y007389D01*
X026885Y007383D01*
X026822Y007381D01*
X026759Y007383D01*
X026697Y007389D01*
X026635Y007399D01*
X026573Y007412D01*
X026513Y007430D01*
X026454Y007451D01*
X026396Y007476D01*
X026340Y007505D01*
X026286Y007537D01*
X026234Y007572D01*
X026185Y007610D01*
X026137Y007652D01*
X026093Y007696D01*
X026051Y007744D01*
X026013Y007793D01*
X025978Y007845D01*
X025946Y007899D01*
X025917Y007955D01*
X025892Y008013D01*
X025871Y008072D01*
X025853Y008132D01*
X025840Y008194D01*
X025830Y008256D01*
X025824Y008318D01*
X025822Y008381D01*
X027222Y008931D02*
X027322Y008931D01*
X027422Y008931D01*
X027322Y008931D02*
X027322Y008831D01*
X027322Y008931D02*
X027322Y009031D01*
X036252Y001052D02*
X036465Y001052D01*
X036358Y001052D02*
X036358Y000411D01*
X036252Y000411D02*
X036465Y000411D01*
X036681Y000411D02*
X036681Y001052D01*
X037002Y001052D01*
X037108Y000945D01*
X037108Y000731D01*
X037002Y000625D01*
X036681Y000625D01*
X036895Y000625D02*
X037108Y000411D01*
X036372Y025131D02*
X036222Y025331D01*
X036022Y025331D01*
X035422Y025331D01*
X035222Y025331D01*
X035072Y025131D01*
X033522Y025131D01*
X033522Y025531D01*
X033522Y025631D01*
X035422Y025631D01*
X036022Y025631D01*
X036022Y025531D01*
X036022Y025331D01*
X036022Y025631D02*
X037722Y025631D01*
X037722Y028131D01*
X027722Y028131D01*
X027722Y025631D01*
X030422Y025631D01*
X031022Y025631D01*
X031022Y025531D01*
X031022Y025331D01*
X031222Y025331D01*
X031372Y025131D01*
X031922Y025131D01*
X031922Y025531D01*
X031922Y025631D01*
X031022Y025631D01*
X031022Y025331D02*
X030422Y025331D01*
X030222Y025331D01*
X030072Y025131D01*
X029522Y025131D01*
X029522Y025181D01*
X028922Y025181D01*
X028922Y025131D01*
X027222Y025131D01*
X027222Y028631D01*
X027722Y028631D01*
X027722Y028731D01*
X028222Y028731D01*
X028222Y028631D01*
X032472Y028631D01*
X032472Y028731D01*
X032972Y028731D01*
X032972Y028631D01*
X037222Y028631D01*
X037222Y028731D01*
X037722Y028731D01*
X037722Y028631D01*
X038222Y028631D01*
X038222Y025131D01*
X036372Y025131D01*
X035422Y025331D02*
X035422Y025531D01*
X035422Y025631D01*
X033522Y025631D02*
X033522Y025931D01*
X031922Y025931D01*
X031922Y025631D01*
X031922Y025131D02*
X033522Y025131D01*
X030422Y025331D02*
X030422Y025531D01*
X030422Y025631D01*
X006592Y003893D02*
X006592Y003680D01*
X006592Y003786D02*
X006165Y003786D01*
X006165Y003680D01*
X005951Y003786D02*
X005844Y003786D01*
X005951Y003462D02*
X005951Y003035D01*
X006592Y003035D01*
X006592Y002819D02*
X006592Y002606D01*
X006592Y002712D02*
X006165Y002712D01*
X006165Y002606D01*
X005951Y002712D02*
X005844Y002712D01*
X005951Y002388D02*
X006592Y002388D01*
X006378Y002175D01*
X006592Y001961D01*
X005951Y001961D01*
X006271Y003035D02*
X006271Y003249D01*
X001722Y026481D02*
X001722Y026581D01*
X001622Y026581D01*
X001722Y026581D02*
X001722Y026681D01*
X001722Y026581D02*
X001822Y026581D01*
X001222Y027131D02*
X001224Y027194D01*
X001230Y027256D01*
X001240Y027318D01*
X001253Y027380D01*
X001271Y027440D01*
X001292Y027499D01*
X001317Y027557D01*
X001346Y027613D01*
X001378Y027667D01*
X001413Y027719D01*
X001451Y027768D01*
X001493Y027816D01*
X001537Y027860D01*
X001585Y027902D01*
X001634Y027940D01*
X001686Y027975D01*
X001740Y028007D01*
X001796Y028036D01*
X001854Y028061D01*
X001913Y028082D01*
X001973Y028100D01*
X002035Y028113D01*
X002097Y028123D01*
X002159Y028129D01*
X002222Y028131D01*
X002285Y028129D01*
X002347Y028123D01*
X002409Y028113D01*
X002471Y028100D01*
X002531Y028082D01*
X002590Y028061D01*
X002648Y028036D01*
X002704Y028007D01*
X002758Y027975D01*
X002810Y027940D01*
X002859Y027902D01*
X002907Y027860D01*
X002951Y027816D01*
X002993Y027768D01*
X003031Y027719D01*
X003066Y027667D01*
X003098Y027613D01*
X003127Y027557D01*
X003152Y027499D01*
X003173Y027440D01*
X003191Y027380D01*
X003204Y027318D01*
X003214Y027256D01*
X003220Y027194D01*
X003222Y027131D01*
X003220Y027068D01*
X003214Y027006D01*
X003204Y026944D01*
X003191Y026882D01*
X003173Y026822D01*
X003152Y026763D01*
X003127Y026705D01*
X003098Y026649D01*
X003066Y026595D01*
X003031Y026543D01*
X002993Y026494D01*
X002951Y026446D01*
X002907Y026402D01*
X002859Y026360D01*
X002810Y026322D01*
X002758Y026287D01*
X002704Y026255D01*
X002648Y026226D01*
X002590Y026201D01*
X002531Y026180D01*
X002471Y026162D01*
X002409Y026149D01*
X002347Y026139D01*
X002285Y026133D01*
X002222Y026131D01*
X002159Y026133D01*
X002097Y026139D01*
X002035Y026149D01*
X001973Y026162D01*
X001913Y026180D01*
X001854Y026201D01*
X001796Y026226D01*
X001740Y026255D01*
X001686Y026287D01*
X001634Y026322D01*
X001585Y026360D01*
X001537Y026402D01*
X001493Y026446D01*
X001451Y026494D01*
X001413Y026543D01*
X001378Y026595D01*
X001346Y026649D01*
X001317Y026705D01*
X001292Y026763D01*
X001271Y026822D01*
X001253Y026882D01*
X001240Y026944D01*
X001230Y027006D01*
X001224Y027068D01*
X001222Y027131D01*
D13*
X003946Y027080D02*
X004261Y027080D01*
X003946Y027080D02*
X003946Y027316D01*
X003946Y027946D02*
X003946Y028182D01*
X004261Y028182D01*
X004472Y020631D02*
X003972Y020631D01*
X003722Y020381D01*
X003722Y019881D01*
X003972Y019631D01*
X004472Y019631D01*
X004722Y019881D01*
X004972Y019631D01*
X005472Y019631D01*
X005722Y019881D01*
X005972Y019631D01*
X006472Y019631D01*
X006722Y019881D01*
X006972Y019631D01*
X007472Y019631D01*
X007722Y019881D01*
X007972Y019631D01*
X008472Y019631D01*
X008722Y019881D01*
X008972Y019631D01*
X009472Y019631D01*
X009722Y019881D01*
X009972Y019631D01*
X010472Y019631D01*
X010722Y019881D01*
X010972Y019631D01*
X011472Y019631D01*
X011722Y019881D01*
X011722Y020381D01*
X011472Y020631D01*
X010972Y020631D01*
X010722Y020381D01*
X010472Y020631D01*
X009972Y020631D01*
X009722Y020381D01*
X009472Y020631D01*
X008972Y020631D01*
X008722Y020381D01*
X008472Y020631D01*
X007972Y020631D01*
X007722Y020381D01*
X007472Y020631D01*
X006972Y020631D01*
X006722Y020381D01*
X006472Y020631D01*
X005972Y020631D01*
X005722Y020381D01*
X005472Y020631D01*
X004972Y020631D01*
X004722Y020381D01*
X004472Y020631D01*
X003472Y018631D02*
X001972Y018631D01*
X001722Y018381D01*
X001722Y017881D01*
X001972Y017631D01*
X003472Y017631D01*
X003722Y017881D01*
X003722Y018381D01*
X003472Y018631D01*
X012722Y019881D02*
X012722Y020381D01*
X012972Y020631D01*
X013472Y020631D01*
X013722Y020381D01*
X013972Y020631D01*
X014472Y020631D01*
X014722Y020381D01*
X014972Y020631D01*
X015472Y020631D01*
X015722Y020381D01*
X015972Y020631D01*
X016472Y020631D01*
X016722Y020381D01*
X016972Y020631D01*
X017472Y020631D01*
X017722Y020381D01*
X017972Y020631D01*
X018472Y020631D01*
X018722Y020381D01*
X018972Y020631D01*
X019472Y020631D01*
X019722Y020381D01*
X019972Y020631D01*
X020472Y020631D01*
X020722Y020381D01*
X020722Y019881D01*
X020472Y019631D01*
X019972Y019631D01*
X019722Y019881D01*
X019472Y019631D01*
X018972Y019631D01*
X018722Y019881D01*
X018472Y019631D01*
X017972Y019631D01*
X017722Y019881D01*
X017472Y019631D01*
X016972Y019631D01*
X016722Y019881D01*
X016472Y019631D01*
X015972Y019631D01*
X015722Y019881D01*
X015472Y019631D01*
X014972Y019631D01*
X014722Y019881D01*
X014472Y019631D01*
X013972Y019631D01*
X013722Y019881D01*
X013472Y019631D01*
X012972Y019631D01*
X012722Y019881D01*
X013722Y022058D02*
X013722Y031704D01*
X014017Y031704D01*
X014017Y030720D01*
X022088Y030720D01*
X022088Y031704D01*
X014017Y031704D01*
X024352Y029125D02*
X024588Y028850D01*
X024588Y024913D01*
X024352Y024637D01*
X022088Y023042D02*
X014017Y023042D01*
X014017Y022058D01*
X013722Y022058D01*
X014017Y022058D02*
X022088Y022058D01*
X022088Y023042D01*
X021972Y020631D02*
X022472Y020631D01*
X022722Y020381D01*
X022972Y020631D01*
X023472Y020631D01*
X023722Y020381D01*
X023972Y020631D01*
X024472Y020631D01*
X024722Y020381D01*
X024972Y020631D01*
X025472Y020631D01*
X025722Y020381D01*
X025972Y020631D01*
X026472Y020631D01*
X026722Y020381D01*
X026972Y020631D01*
X027472Y020631D01*
X027722Y020381D01*
X027722Y019881D01*
X027472Y019631D01*
X026972Y019631D01*
X026722Y019881D01*
X026472Y019631D01*
X025972Y019631D01*
X025722Y019881D01*
X025472Y019631D01*
X024972Y019631D01*
X024722Y019881D01*
X024472Y019631D01*
X023972Y019631D01*
X023722Y019881D01*
X023472Y019631D01*
X022972Y019631D01*
X022722Y019881D01*
X022472Y019631D01*
X021972Y019631D01*
X021722Y019881D01*
X021722Y020381D01*
X021972Y020631D01*
X024824Y014676D02*
X025021Y014676D01*
X025021Y012786D01*
X024824Y012786D01*
X024824Y014676D01*
X025021Y014676D02*
X026320Y014676D01*
X026320Y012786D01*
X025021Y012786D01*
X018768Y008395D02*
X017075Y008395D01*
X017075Y006387D01*
X018768Y006387D01*
X018768Y008395D01*
X017193Y008159D02*
X017195Y008180D01*
X017201Y008200D01*
X017210Y008220D01*
X017222Y008237D01*
X017237Y008251D01*
X017255Y008263D01*
X017275Y008271D01*
X017295Y008276D01*
X017316Y008277D01*
X017337Y008274D01*
X017357Y008268D01*
X017376Y008257D01*
X017393Y008244D01*
X017406Y008228D01*
X017417Y008210D01*
X017425Y008190D01*
X017429Y008170D01*
X017429Y008148D01*
X017425Y008128D01*
X017417Y008108D01*
X017406Y008090D01*
X017393Y008074D01*
X017376Y008061D01*
X017357Y008050D01*
X017337Y008044D01*
X017316Y008041D01*
X017295Y008042D01*
X017275Y008047D01*
X017255Y008055D01*
X017237Y008067D01*
X017222Y008081D01*
X017210Y008098D01*
X017201Y008118D01*
X017195Y008138D01*
X017193Y008159D01*
X016972Y001631D02*
X016722Y001381D01*
X016472Y001631D01*
X015972Y001631D01*
X015722Y001381D01*
X015472Y001631D01*
X014972Y001631D01*
X014722Y001381D01*
X014722Y000881D01*
X014972Y000631D01*
X015472Y000631D01*
X015722Y000881D01*
X015972Y000631D01*
X016472Y000631D01*
X016722Y000881D01*
X016972Y000631D01*
X017472Y000631D01*
X017722Y000881D01*
X017972Y000631D01*
X018472Y000631D01*
X018722Y000881D01*
X018972Y000631D01*
X019472Y000631D01*
X019722Y000881D01*
X019972Y000631D01*
X020472Y000631D01*
X020722Y000881D01*
X020972Y000631D01*
X021472Y000631D01*
X021722Y000881D01*
X021972Y000631D01*
X022472Y000631D01*
X022722Y000881D01*
X022722Y001381D01*
X022472Y001631D01*
X021972Y001631D01*
X021722Y001381D01*
X021472Y001631D01*
X020972Y001631D01*
X020722Y001381D01*
X020472Y001631D01*
X019972Y001631D01*
X019722Y001381D01*
X019472Y001631D01*
X018972Y001631D01*
X018722Y001381D01*
X018472Y001631D01*
X017972Y001631D01*
X017722Y001381D01*
X017472Y001631D01*
X016972Y001631D01*
X013722Y001381D02*
X013722Y000881D01*
X013472Y000631D01*
X012972Y000631D01*
X012722Y000881D01*
X012472Y000631D01*
X011972Y000631D01*
X011722Y000881D01*
X011472Y000631D01*
X010972Y000631D01*
X010722Y000881D01*
X010472Y000631D01*
X009972Y000631D01*
X009722Y000881D01*
X009472Y000631D01*
X008972Y000631D01*
X008722Y000881D01*
X008472Y000631D01*
X007972Y000631D01*
X007722Y000881D01*
X007472Y000631D01*
X006972Y000631D01*
X006722Y000881D01*
X006472Y000631D01*
X005972Y000631D01*
X005722Y000881D01*
X005722Y001381D01*
X005972Y001631D01*
X006472Y001631D01*
X006722Y001381D01*
X006972Y001631D01*
X007472Y001631D01*
X007722Y001381D01*
X007972Y001631D01*
X008472Y001631D01*
X008722Y001381D01*
X008972Y001631D01*
X009472Y001631D01*
X009722Y001381D01*
X009972Y001631D01*
X010472Y001631D01*
X010722Y001381D01*
X010972Y001631D01*
X011472Y001631D01*
X011722Y001381D01*
X011972Y001631D01*
X012472Y001631D01*
X012722Y001381D01*
X012972Y001631D01*
X013472Y001631D01*
X013722Y001381D01*
X023322Y001381D02*
X023322Y000881D01*
X023572Y000631D01*
X024072Y000631D01*
X024322Y000881D01*
X024572Y000631D01*
X025072Y000631D01*
X025322Y000881D01*
X025572Y000631D01*
X026072Y000631D01*
X026322Y000881D01*
X026572Y000631D01*
X027072Y000631D01*
X027322Y000881D01*
X027572Y000631D01*
X028072Y000631D01*
X028322Y000881D01*
X028572Y000631D01*
X029072Y000631D01*
X029322Y000881D01*
X029572Y000631D01*
X030072Y000631D01*
X030322Y000881D01*
X030572Y000631D01*
X031072Y000631D01*
X031322Y000881D01*
X031322Y001381D01*
X031072Y001631D01*
X030572Y001631D01*
X030322Y001381D01*
X030072Y001631D01*
X029572Y001631D01*
X029322Y001381D01*
X029072Y001631D01*
X028572Y001631D01*
X028322Y001381D01*
X028072Y001631D01*
X027572Y001631D01*
X027322Y001381D01*
X027072Y001631D01*
X026572Y001631D01*
X026322Y001381D01*
X026072Y001631D01*
X025572Y001631D01*
X025322Y001381D01*
X025072Y001631D01*
X024572Y001631D01*
X024322Y001381D01*
X024072Y001631D01*
X023572Y001631D01*
X023322Y001381D01*
X003722Y001381D02*
X003722Y000881D01*
X003472Y000631D01*
X001972Y000631D01*
X001722Y000881D01*
X001722Y001381D01*
X001972Y001631D01*
X003472Y001631D01*
X003722Y001381D01*
D14*
X004818Y004233D02*
X004911Y004233D01*
X004865Y004233D02*
X004865Y004513D01*
X004911Y004513D02*
X004818Y004513D01*
X005033Y004467D02*
X005033Y004280D01*
X005080Y004233D01*
X005173Y004233D01*
X005220Y004280D01*
X005355Y004280D02*
X005402Y004233D01*
X005496Y004233D01*
X005543Y004280D01*
X005543Y004326D01*
X005496Y004373D01*
X005449Y004373D01*
X005496Y004373D02*
X005543Y004420D01*
X005543Y004467D01*
X005496Y004513D01*
X005402Y004513D01*
X005355Y004467D01*
X005220Y004467D02*
X005173Y004513D01*
X005080Y004513D01*
X005033Y004467D01*
X006061Y011916D02*
X006166Y011916D01*
X006271Y012021D01*
X006271Y012231D01*
X006377Y012336D01*
X006482Y012336D01*
X006587Y012231D01*
X006587Y012021D01*
X006482Y011916D01*
X006061Y011916D02*
X005956Y012021D01*
X005956Y012231D01*
X006061Y012336D01*
X005956Y012561D02*
X006377Y012561D01*
X006587Y012771D01*
X006377Y012981D01*
X005956Y012981D01*
X006166Y013205D02*
X005956Y013415D01*
X006587Y013415D01*
X006587Y013205D02*
X006587Y013625D01*
X026331Y003972D02*
X026331Y003910D01*
X026331Y003972D02*
X026590Y003972D01*
X027254Y003972D02*
X027512Y003972D01*
X027512Y003910D01*
X027512Y002852D02*
X027512Y002790D01*
X027254Y002790D01*
X026590Y002790D02*
X026331Y002790D01*
X026331Y002852D01*
X038631Y024590D02*
X038890Y024590D01*
X038631Y024590D02*
X038631Y024652D01*
X039554Y024590D02*
X039812Y024590D01*
X039812Y024652D01*
X039812Y025710D02*
X039812Y025772D01*
X039554Y025772D01*
X038890Y025772D02*
X038631Y025772D01*
X038631Y025710D01*
X028137Y026171D02*
X028032Y026066D01*
X028137Y026171D02*
X028137Y026381D01*
X028032Y026486D01*
X027927Y026486D01*
X027821Y026381D01*
X027821Y026171D01*
X027716Y026066D01*
X027611Y026066D01*
X027506Y026171D01*
X027506Y026381D01*
X027611Y026486D01*
X027506Y026711D02*
X027927Y026711D01*
X028137Y026921D01*
X027927Y027131D01*
X027506Y027131D01*
X027611Y027355D02*
X027506Y027460D01*
X027506Y027670D01*
X027611Y027775D01*
X027716Y027775D01*
X028137Y027355D01*
X028137Y027775D01*
D15*
X038656Y026084D02*
X038706Y026084D01*
X038681Y026084D02*
X038681Y025934D01*
X038656Y025934D02*
X038706Y025934D01*
X038754Y025959D02*
X038779Y025934D01*
X038829Y025934D01*
X038854Y025959D01*
X038901Y025934D02*
X039001Y025934D01*
X039049Y025934D02*
X039149Y026034D01*
X039149Y026059D01*
X039124Y026084D01*
X039074Y026084D01*
X039049Y026059D01*
X038951Y026084D02*
X038951Y025934D01*
X039049Y025934D02*
X039149Y025934D01*
X038951Y026084D02*
X038901Y026034D01*
X038854Y026059D02*
X038829Y026084D01*
X038779Y026084D01*
X038754Y026059D01*
X038754Y025959D01*
X014877Y030116D02*
X014877Y030166D01*
X014852Y030191D01*
X014727Y030191D01*
X014752Y030239D02*
X014727Y030264D01*
X014727Y030314D01*
X014752Y030339D01*
X014777Y030339D01*
X014802Y030314D01*
X014827Y030339D01*
X014852Y030339D01*
X014877Y030314D01*
X014877Y030264D01*
X014852Y030239D01*
X014802Y030289D02*
X014802Y030314D01*
X014877Y030116D02*
X014852Y030091D01*
X014727Y030091D01*
X003517Y027558D02*
X003517Y027458D01*
X003517Y027411D02*
X003467Y027361D01*
X003517Y027336D02*
X003492Y027311D01*
X003392Y027311D01*
X003367Y027336D01*
X003367Y027386D01*
X003392Y027411D01*
X003492Y027411D01*
X003517Y027386D01*
X003517Y027336D01*
X003417Y027458D02*
X003367Y027508D01*
X003517Y027508D01*
X026156Y004184D02*
X026206Y004184D01*
X026181Y004184D02*
X026181Y004034D01*
X026156Y004034D02*
X026206Y004034D01*
X026254Y004059D02*
X026279Y004034D01*
X026329Y004034D01*
X026354Y004059D01*
X026401Y004034D02*
X026501Y004134D01*
X026501Y004159D01*
X026476Y004184D01*
X026426Y004184D01*
X026401Y004159D01*
X026354Y004159D02*
X026329Y004184D01*
X026279Y004184D01*
X026254Y004159D01*
X026254Y004059D01*
X026401Y004034D02*
X026501Y004034D01*
D16*
X022992Y006221D02*
X022992Y006841D01*
X021952Y006841D01*
X021952Y006221D01*
X022992Y006221D01*
X021782Y007861D02*
X021162Y007861D01*
X021162Y008901D01*
X021782Y008901D01*
X021782Y007861D01*
X020992Y009321D02*
X019952Y009321D01*
X019952Y009941D01*
X020992Y009941D01*
X020992Y009321D01*
X025062Y009661D02*
X025682Y009661D01*
X025682Y010701D01*
X025062Y010701D01*
X025062Y009661D01*
D17*
X025175Y010181D02*
X025372Y010575D01*
X025569Y010181D01*
X025175Y010181D01*
X025175Y010575D02*
X025569Y010575D01*
X021669Y008381D02*
X021472Y007987D01*
X021275Y008381D01*
X021669Y008381D01*
X021669Y007987D02*
X021275Y007987D01*
X022078Y006728D02*
X022078Y006334D01*
X022078Y006531D02*
X022472Y006334D01*
X022472Y006728D01*
X022078Y006531D01*
X020865Y009434D02*
X020865Y009828D01*
X020865Y009631D02*
X020472Y009828D01*
X020472Y009434D01*
X020865Y009631D01*
D18*
X020295Y012041D02*
X020048Y012041D01*
X019986Y012103D01*
X019986Y012226D01*
X020048Y012288D01*
X020172Y012288D02*
X020172Y012165D01*
X020172Y012288D02*
X020295Y012288D01*
X020357Y012226D01*
X020357Y012103D01*
X020295Y012041D01*
X020357Y012409D02*
X019986Y012409D01*
X020357Y012656D01*
X019986Y012656D01*
X019986Y012778D02*
X019986Y012963D01*
X020048Y013025D01*
X020295Y013025D01*
X020357Y012963D01*
X020357Y012778D01*
X019986Y012778D01*
X020048Y014164D02*
X020110Y014164D01*
X020172Y014226D01*
X020172Y014349D01*
X020233Y014411D01*
X020295Y014411D01*
X020357Y014349D01*
X020357Y014226D01*
X020295Y014164D01*
X020048Y014164D02*
X019986Y014226D01*
X019986Y014349D01*
X020048Y014411D01*
X019986Y014532D02*
X019986Y014656D01*
X019986Y014594D02*
X020357Y014594D01*
X020357Y014532D02*
X020357Y014656D01*
X020295Y014778D02*
X020357Y014839D01*
X020357Y014963D01*
X020295Y015025D01*
X020172Y015025D01*
X020172Y014901D01*
X020295Y014778D02*
X020048Y014778D01*
X019986Y014839D01*
X019986Y014963D01*
X020048Y015025D01*
X021486Y014963D02*
X021486Y014839D01*
X021548Y014778D01*
X021795Y014778D01*
X021857Y014839D01*
X021857Y014963D01*
X021795Y015025D01*
X021672Y015025D01*
X021672Y014901D01*
X021548Y015025D02*
X021486Y014963D01*
X021486Y014656D02*
X021486Y014532D01*
X021486Y014594D02*
X021857Y014594D01*
X021857Y014532D02*
X021857Y014656D01*
X021795Y014411D02*
X021857Y014349D01*
X021857Y014226D01*
X021795Y014164D01*
X021672Y014226D02*
X021610Y014164D01*
X021548Y014164D01*
X021486Y014226D01*
X021486Y014349D01*
X021548Y014411D01*
X021672Y014349D02*
X021733Y014411D01*
X021795Y014411D01*
X021672Y014349D02*
X021672Y014226D01*
X021795Y013025D02*
X021548Y013025D01*
X021486Y012963D01*
X021486Y012778D01*
X021857Y012778D01*
X021857Y012963D01*
X021795Y013025D01*
X021857Y012656D02*
X021486Y012656D01*
X021486Y012409D02*
X021857Y012656D01*
X021857Y012409D02*
X021486Y012409D01*
X021548Y012288D02*
X021486Y012226D01*
X021486Y012103D01*
X021548Y012041D01*
X021795Y012041D01*
X021857Y012103D01*
X021857Y012226D01*
X021795Y012288D01*
X021672Y012288D01*
X021672Y012165D01*
X025398Y024896D02*
X025460Y024896D01*
X025522Y024958D01*
X025522Y025081D01*
X025583Y025143D01*
X025645Y025143D01*
X025707Y025081D01*
X025707Y024958D01*
X025645Y024896D01*
X025398Y024896D02*
X025336Y024958D01*
X025336Y025081D01*
X025398Y025143D01*
X025336Y025264D02*
X025336Y025388D01*
X025336Y025326D02*
X025707Y025326D01*
X025707Y025264D02*
X025707Y025388D01*
X025645Y025510D02*
X025398Y025510D01*
X025336Y025572D01*
X025336Y025695D01*
X025398Y025757D01*
X025522Y025757D02*
X025522Y025633D01*
X025522Y025757D02*
X025645Y025757D01*
X025707Y025695D01*
X025707Y025572D01*
X025645Y025510D01*
X025645Y026896D02*
X025398Y026896D01*
X025336Y026958D01*
X025336Y027081D01*
X025398Y027143D01*
X025522Y027143D02*
X025522Y027019D01*
X025522Y027143D02*
X025645Y027143D01*
X025707Y027081D01*
X025707Y026958D01*
X025645Y026896D01*
X025707Y027264D02*
X025336Y027264D01*
X025707Y027511D01*
X025336Y027511D01*
X025336Y027633D02*
X025336Y027818D01*
X025398Y027879D01*
X025645Y027879D01*
X025707Y027818D01*
X025707Y027633D01*
X025336Y027633D01*
D19*
X027222Y024256D02*
X027222Y022006D01*
X027347Y022006D01*
X027347Y021631D01*
X030097Y021631D01*
X030097Y022006D01*
X030222Y022006D01*
X030222Y024256D01*
X027222Y024256D01*
X030222Y024256D02*
X030222Y022006D01*
X030347Y022006D01*
X030347Y021631D01*
X033097Y021631D01*
X033097Y022006D01*
X033222Y022006D01*
X033222Y024256D01*
X030222Y024256D01*
X033222Y024256D02*
X033222Y022006D01*
X033347Y022006D01*
X033347Y021631D01*
X036097Y021631D01*
X036097Y022006D01*
X036222Y022006D01*
X036222Y024256D01*
X033222Y024256D01*
X036222Y024256D02*
X036222Y022006D01*
X036347Y022006D01*
X036347Y021631D01*
X039097Y021631D01*
X039097Y022006D01*
X039222Y022006D01*
X039222Y024256D01*
X036222Y024256D01*
X035597Y029381D02*
X032847Y029381D01*
X032847Y029756D01*
X032722Y029756D01*
X032722Y032006D01*
X035722Y032006D01*
X035722Y029756D01*
X035597Y029756D01*
X035597Y029381D01*
X032722Y029756D02*
X032722Y032006D01*
X029722Y032006D01*
X029722Y029756D01*
X029847Y029756D01*
X029847Y029381D01*
X032597Y029381D01*
X032597Y029756D01*
X032722Y029756D01*
X030497Y018931D02*
X028247Y018931D01*
X028247Y015931D01*
X030497Y015931D01*
X030497Y016056D01*
X030872Y016056D01*
X030872Y018806D01*
X030497Y018806D01*
X030497Y018931D01*
X021222Y018256D02*
X021222Y016006D01*
X017222Y016006D01*
X017222Y018256D01*
X017847Y018256D01*
X017847Y018631D01*
X020597Y018631D01*
X020597Y018256D01*
X021222Y018256D01*
X014222Y018556D02*
X014222Y016306D01*
X011222Y016306D01*
X011222Y018556D01*
X011347Y018556D01*
X011347Y018931D01*
X014097Y018931D01*
X014097Y018556D01*
X014222Y018556D01*
X009222Y018456D02*
X009222Y016206D01*
X006222Y016206D01*
X006222Y018456D01*
X006347Y018456D01*
X006347Y018831D01*
X009097Y018831D01*
X009097Y018456D01*
X009222Y018456D01*
X016347Y011131D02*
X016347Y010756D01*
X016222Y010756D01*
X016222Y008506D01*
X019222Y008506D01*
X019222Y010756D01*
X019097Y010756D01*
X019097Y011131D01*
X016347Y011131D01*
X010922Y008756D02*
X010547Y008756D01*
X010547Y009881D01*
X008297Y009881D01*
X008297Y004881D01*
X010547Y004881D01*
X010547Y006006D01*
X010922Y006006D01*
X010922Y008756D01*
X005722Y028506D02*
X002722Y028506D01*
X002722Y030756D01*
X002847Y030756D01*
X002847Y031131D01*
X005597Y031131D01*
X005597Y030756D01*
X005722Y030756D01*
X005722Y028506D01*
D20*
X005547Y005825D02*
X004996Y005825D01*
X005036Y005643D02*
X005050Y005643D01*
X005050Y005628D01*
X005036Y005628D01*
X005036Y005643D01*
X004996Y005037D02*
X005547Y005037D01*
D21*
X007122Y012281D02*
X017322Y012281D01*
X017322Y014981D01*
X014522Y014981D01*
X013922Y014981D02*
X013022Y014981D01*
X011422Y014981D02*
X009522Y014981D01*
X008922Y014981D02*
X007122Y014981D01*
X007122Y012281D01*
X027622Y025531D02*
X030422Y025531D01*
X031022Y025531D02*
X031922Y025531D01*
X033522Y025531D02*
X035422Y025531D01*
X036022Y025531D02*
X037822Y025531D01*
X037822Y028231D01*
X027622Y028231D01*
X027622Y025531D01*
M02*
