%
M48
M72
T01C0.0200
T02C0.0236
T03C0.0315
T04C0.0320
T05C0.0360
T06C0.0400
T07C0.0433
T08C0.0450
T09C0.0630
T10C0.1250
T11C0.1260
%
T01
X972Y2481
X4722Y4731
X5172Y4781
X5822Y4631
X6222Y4281
X7222Y4031
X7622Y4431
X9222Y4331
X11022Y5131
X11922Y5431
X12922Y6331
X12922Y7031
X13822Y8231
X12922Y9331
X11822Y9431
X10722Y9431
X11522Y10331
X11422Y11531
X9422Y11131
X8822Y9631
X6222Y8831
X5572Y7881
X4922Y7731
X6322Y7431
X7522Y7431
X7922Y6681
X8522Y7431
X5172Y5981
X5372Y2781
X5022Y2331
X7122Y1931
X13822Y1931
X14322Y1731
X13822Y5231
X17622Y6531
X18222Y6931
X17622Y7381
X18222Y7731
X17622Y8131
X18622Y8731
X19122Y8631
X19622Y8331
X18822Y5854
X18622Y5331
X18222Y4931
X24122Y3581
X25872Y2831
X26922Y2431
X27922Y3631
X28272Y4581
X26322Y4531
X31222Y7231
X31222Y9831
X31822Y13731
X31122Y17731
X28622Y19831
X36222Y23881
X36972Y25931
X36972Y26831
X38172Y25931
X39572Y27231
X38572Y24381
X38922Y23481
X39522Y24031
X38722Y22131
X32222Y29831
X29522Y29831
X29022Y31331
X16472Y29881
X1622Y18631
X1022Y18531
X1322Y18131
X4122Y17631
X4222Y16231
X4922Y13631
X5522Y12481
X6522Y11131
X10722Y14731
X9222Y15131
X15622Y15231
X16422Y15131
X18322Y15631
X16522Y17131
X17122Y17531
X23672Y12881
X22622Y12131
X23872Y11181
X23856Y9716
X19822Y11681
X12022Y8431
X38822Y4531
T02
X28772Y14131
X26522Y15131
X25422Y14131
X25722Y12931
X24222Y15131
X24622Y15731
X24272Y16331
X25722Y16331
X28272Y17431
X32022Y19631
X33722Y19131
X35472Y18381
X33722Y16131
X33972Y15631
X24822Y9531
X23722Y8131
X21322Y5631
X15272Y6941
X15272Y9831
X20372Y11031
X22722Y11631
X7622Y14431
T03
X13822Y11231
X16422Y11231
X16084Y22550
X16871Y22550
X17659Y22550
X18446Y22550
X19234Y22550
X20021Y22550
X20808Y22550
X21596Y22550
X15297Y22550
X14509Y22550
X14509Y31212
X15297Y31212
X16084Y31212
X16871Y31212
X17659Y31212
X18446Y31212
X19234Y31212
X20021Y31212
X20808Y31212
X21596Y31212
X26372Y31012
X26872Y30250
X27472Y31012
X28072Y30250
X37372Y31012
X37872Y30250
X38472Y31012
X39072Y30250
X38407Y17255
X38407Y16507
X39722Y2631
X39722Y1631
X39722Y631
T04
X26822Y7881
X26822Y8881
X24252Y6201
X24252Y5201
X23122Y18931
X2222Y26631
X2222Y27631
T05
X8722Y14131
X9722Y14131
X10722Y14131
X11722Y14131
X12722Y14131
X13722Y14131
X14722Y14131
X15722Y14131
X15722Y13131
X14722Y13131
X13722Y13131
X12722Y13131
X11722Y13131
X10722Y13131
X9722Y13131
X8722Y13131
X29222Y26381
X30222Y26381
X31222Y26381
X32222Y26381
X33222Y26381
X34222Y26381
X35222Y26381
X36222Y26381
X36222Y27381
X35222Y27381
X34222Y27381
X33222Y27381
X32222Y27381
X31222Y27381
X30222Y27381
X29222Y27381
T06
X2222Y1131
X3222Y1131
X3222Y2131
X2222Y2131
X2222Y3131
X3222Y3131
X3222Y4131
X2222Y4131
X2222Y5131
X3222Y5131
X3222Y6131
X2222Y6131
X2222Y7131
X3222Y7131
X3222Y8131
X2222Y8131
X2222Y9131
X3222Y9131
X3222Y10131
X2222Y10131
X2222Y11131
X3222Y11131
X3222Y12131
X2222Y12131
X2222Y13131
X3222Y13131
X3222Y14131
X2222Y14131
X2222Y15131
X3222Y15131
X3222Y16131
X2222Y16131
X2222Y17131
X3222Y17131
X3222Y18131
X2222Y18131
X4222Y20131
X5222Y20131
X6222Y20131
X7222Y20131
X8222Y20131
X9222Y20131
X10222Y20131
X11222Y20131
X13222Y20131
X14222Y20131
X15222Y20131
X16222Y20131
X17222Y20131
X18222Y20131
X19222Y20131
X20222Y20131
X22222Y20131
X23222Y20131
X24222Y20131
X25222Y20131
X26222Y20131
X27222Y20131
X29372Y17931
X29372Y16931
X29222Y23131
X28222Y23131
X31222Y23131
X32222Y23131
X34222Y23131
X35222Y23131
X37222Y23131
X38222Y23131
X34722Y30881
X33722Y30881
X31722Y30881
X30722Y30881
X20222Y17131
X19222Y17131
X18222Y17131
X13222Y17431
X12222Y17431
X8222Y17331
X7222Y17331
X17222Y9631
X18222Y9631
X9422Y8881
X9422Y7881
X9422Y6881
X9422Y5881
X9222Y1131
X10222Y1131
X11222Y1131
X12222Y1131
X13222Y1131
X15222Y1131
X16222Y1131
X17222Y1131
X18222Y1131
X19222Y1131
X20222Y1131
X21222Y1131
X22222Y1131
X23822Y1131
X24822Y1131
X25822Y1131
X26822Y1131
X27822Y1131
X28822Y1131
X29822Y1131
X30822Y1131
X8222Y1131
X7222Y1131
X6222Y1131
X4722Y29631
X3722Y29631
T07
X31049Y4614
T08
X20722Y12631
X20722Y13631
X20722Y14631
X19222Y14631
X19222Y13631
X19222Y12631
X10222Y3131
X9222Y3131
X8222Y3131
X7222Y3131
X5222Y23131
X4222Y23131
X3222Y23131
X9722Y25631
X9722Y26631
X9722Y27631
X9722Y28631
X26472Y27381
X26472Y26381
X26472Y25381
T09
X31049Y12921
T10
X26222Y22631
X23622Y31031
X9322Y22731
X39222Y28531
T11
X34722Y20131
X34222Y1131
X4722Y1131
X2222Y20131
M30
