G75*
G70*
%OFA0B0*%
%FSLAX24Y24*%
%IPPOS*%
%LPD*%
%AMOC8*
5,1,8,0,0,1.08239X$1,22.5*
%
%ADD10C,0.1330*%
%ADD11C,0.1340*%
%ADD12C,0.0820*%
%ADD13OC8,0.0820*%
%ADD14R,0.0513X0.0474*%
%ADD15R,0.0474X0.0513*%
%ADD16R,0.0671X0.0592*%
%ADD17C,0.0513*%
%ADD18C,0.0710*%
%ADD19R,0.1182X0.0867*%
%ADD20R,0.1655X0.0356*%
%ADD21R,0.1655X0.0552*%
%ADD22R,0.0592X0.0671*%
%ADD23OC8,0.0710*%
%ADD24C,0.0710*%
%ADD25R,0.0946X0.0316*%
%ADD26C,0.0740*%
%ADD27OC8,0.0740*%
%ADD28R,0.0472X0.0106*%
%ADD29R,0.1024X0.1488*%
%ADD30R,0.1143X0.0710*%
%ADD31R,0.0552X0.0297*%
%ADD32R,0.0196X0.0395*%
%ADD33R,0.0395X0.0196*%
%ADD34R,0.0631X0.0474*%
%ADD35R,0.0710X0.0395*%
%ADD36R,0.0395X0.0710*%
%ADD37C,0.0780*%
%ADD38C,0.0595*%
%ADD39R,0.0631X0.0631*%
%ADD40C,0.0680*%
%ADD41C,0.0680*%
%ADD42R,0.0375X0.0196*%
%ADD43R,0.0375X0.0236*%
%ADD44OC8,0.0640*%
%ADD45R,0.0482X0.0194*%
%ADD46OC8,0.0780*%
%ADD47R,0.0434X0.0395*%
%ADD48C,0.0476*%
%ADD49C,0.0440*%
%ADD50C,0.0555*%
%ADD51C,0.0560*%
D10*
X009322Y022731D03*
X023622Y031031D03*
X026222Y022631D03*
X039222Y028531D03*
D11*
X034722Y020131D03*
X034222Y001131D03*
X004722Y001131D03*
X002222Y020131D03*
D12*
X004222Y020131D03*
X005222Y020131D03*
X006222Y020131D03*
X007222Y020131D03*
X008222Y020131D03*
X009222Y020131D03*
X010222Y020131D03*
X011222Y020131D03*
X013222Y020131D03*
X014222Y020131D03*
X015222Y020131D03*
X016222Y020131D03*
X017222Y020131D03*
X018222Y020131D03*
X019222Y020131D03*
X020222Y020131D03*
X022222Y020131D03*
X023222Y020131D03*
X024222Y020131D03*
X025222Y020131D03*
X026222Y020131D03*
X027222Y020131D03*
X026822Y001131D03*
X027822Y001131D03*
X028822Y001131D03*
X029822Y001131D03*
X030822Y001131D03*
X025822Y001131D03*
X024822Y001131D03*
X023822Y001131D03*
X022222Y001131D03*
X021222Y001131D03*
X020222Y001131D03*
X019222Y001131D03*
X018222Y001131D03*
X017222Y001131D03*
X016222Y001131D03*
X015222Y001131D03*
X013222Y001131D03*
X012222Y001131D03*
X011222Y001131D03*
X010222Y001131D03*
X009222Y001131D03*
X008222Y001131D03*
X007222Y001131D03*
X006222Y001131D03*
X003222Y001131D03*
X002222Y001131D03*
X002222Y018131D03*
X003222Y018131D03*
D13*
X003222Y017131D03*
X002222Y017131D03*
X002222Y016131D03*
X003222Y016131D03*
X003222Y015131D03*
X002222Y015131D03*
X002222Y014131D03*
X003222Y014131D03*
X003222Y013131D03*
X002222Y013131D03*
X002222Y012131D03*
X003222Y012131D03*
X003222Y011131D03*
X002222Y011131D03*
X002222Y010131D03*
X003222Y010131D03*
X003222Y009131D03*
X002222Y009131D03*
X002222Y008131D03*
X003222Y008131D03*
X003222Y007131D03*
X002222Y007131D03*
X002222Y006131D03*
X003222Y006131D03*
X003222Y005131D03*
X002222Y005131D03*
X002222Y004131D03*
X003222Y004131D03*
X003222Y003131D03*
X002222Y003131D03*
X002222Y002131D03*
X003222Y002131D03*
D14*
X001222Y010396D03*
X001222Y011066D03*
X001222Y016546D03*
X001222Y017216D03*
X009722Y017496D03*
X009722Y018166D03*
X014722Y018166D03*
X014722Y017496D03*
X021972Y012466D03*
X021972Y011796D03*
X022722Y017096D03*
X022722Y017766D03*
X030472Y019646D03*
X030472Y020316D03*
X036772Y019766D03*
X036772Y019096D03*
X025722Y029046D03*
X025722Y029716D03*
X025722Y031046D03*
X025722Y031716D03*
X028972Y030466D03*
X028972Y029796D03*
X036472Y030796D03*
X036472Y031466D03*
X039722Y031466D03*
X039722Y030796D03*
X010922Y010966D03*
X010922Y010296D03*
X010222Y010296D03*
X010222Y010966D03*
D15*
X005556Y007181D03*
X005556Y006531D03*
X004887Y006531D03*
X004887Y007181D03*
X006487Y006231D03*
X007156Y006231D03*
X007156Y005531D03*
X006487Y005531D03*
X006487Y004831D03*
X007156Y004831D03*
X020387Y011681D03*
X021056Y011681D03*
X027437Y013131D03*
X028106Y013131D03*
X028106Y015131D03*
X027437Y015131D03*
X031387Y016631D03*
X032056Y016631D03*
X036387Y015881D03*
X037056Y015881D03*
X037056Y017881D03*
X036387Y017881D03*
X037937Y019881D03*
X038606Y019881D03*
X037956Y024731D03*
X037287Y024731D03*
X034956Y024731D03*
X034287Y024731D03*
X031956Y024731D03*
X031287Y024731D03*
X028956Y024731D03*
X028287Y024731D03*
X030887Y028981D03*
X031556Y028981D03*
X033887Y028981D03*
X034556Y028981D03*
X036187Y029381D03*
X036856Y029381D03*
X037887Y001631D03*
X038556Y001631D03*
D16*
X000922Y001196D03*
X000922Y001866D03*
X011422Y006056D03*
X011422Y006726D03*
X011422Y008056D03*
X011422Y008726D03*
X005822Y014296D03*
X005822Y014966D03*
X004222Y025296D03*
X004222Y025966D03*
X005222Y027296D03*
X005222Y027966D03*
X009722Y029757D03*
X009722Y030505D03*
X023522Y017766D03*
X023522Y017096D03*
X021222Y010966D03*
X021222Y010296D03*
X019722Y010296D03*
X019722Y010966D03*
X020422Y008426D03*
X020422Y007756D03*
X020422Y006726D03*
X020422Y006056D03*
X024422Y008196D03*
X024422Y008866D03*
X028422Y008866D03*
X028422Y008196D03*
X034222Y017796D03*
X034222Y018466D03*
X031372Y019646D03*
X031372Y020316D03*
X039722Y022096D03*
X039722Y022766D03*
D17*
X031049Y004614D03*
D18*
X031049Y012921D03*
D19*
X030576Y013787D03*
X038804Y014732D03*
X038804Y003748D03*
X030615Y003709D03*
D20*
X029867Y004378D03*
X029867Y004850D03*
X029867Y005362D03*
D21*
X029867Y005992D03*
X029867Y006976D03*
X029867Y007961D03*
X029867Y008945D03*
X029867Y009929D03*
X029867Y010913D03*
X029867Y011898D03*
X029867Y012882D03*
D22*
X028106Y014131D03*
X027437Y014131D03*
X025956Y015131D03*
X025287Y015131D03*
X026337Y016331D03*
X027006Y016331D03*
X025006Y016931D03*
X024337Y016931D03*
X024337Y017831D03*
X025006Y017831D03*
X025206Y019031D03*
X024537Y019031D03*
X021056Y015631D03*
X020387Y015631D03*
X019556Y015631D03*
X018887Y015631D03*
X022037Y011031D03*
X022706Y011031D03*
X023887Y010381D03*
X024556Y010381D03*
X023706Y007381D03*
X023037Y007381D03*
X022576Y005651D03*
X021907Y005651D03*
X024687Y003581D03*
X025356Y003581D03*
X026987Y004581D03*
X027656Y004581D03*
X037887Y002631D03*
X038556Y002631D03*
X032056Y015881D03*
X031387Y015881D03*
X036387Y016881D03*
X037056Y016881D03*
X037937Y018881D03*
X038606Y018881D03*
X038887Y026631D03*
X039556Y026631D03*
X013256Y008391D03*
X012587Y008391D03*
X009456Y010431D03*
X008787Y010431D03*
X012187Y011231D03*
X012856Y011231D03*
X012587Y005391D03*
X013256Y005391D03*
D23*
X024252Y005201D03*
X026822Y007881D03*
X002222Y027631D03*
D24*
X002222Y026631D03*
X026822Y008881D03*
X024252Y006201D03*
D25*
X024548Y012981D03*
X024548Y013481D03*
X024548Y013981D03*
X024548Y014481D03*
X026595Y014481D03*
X026595Y013981D03*
X026595Y013481D03*
X026595Y012981D03*
X032948Y015631D03*
X032948Y016131D03*
X032948Y016631D03*
X032948Y017131D03*
X034995Y017131D03*
X034995Y016631D03*
X034995Y016131D03*
X034995Y015631D03*
D26*
X039722Y002631D03*
X039722Y001631D03*
X039072Y030250D03*
X037872Y030250D03*
X037372Y031012D03*
X028072Y030250D03*
X026872Y030250D03*
X026372Y031012D03*
D27*
X027472Y031012D03*
X038472Y031012D03*
X039722Y000631D03*
D28*
X019063Y006495D03*
X019063Y006751D03*
X019063Y007007D03*
X019063Y007263D03*
X019063Y007519D03*
X019063Y007775D03*
X019063Y008031D03*
X019063Y008287D03*
X016780Y008287D03*
X016780Y008031D03*
X016780Y007775D03*
X016780Y007519D03*
X016780Y007263D03*
X016780Y007007D03*
X016780Y006751D03*
X016780Y006495D03*
D29*
X017922Y007391D03*
D30*
X014422Y006942D03*
X014422Y005840D03*
X014422Y008840D03*
X014422Y009942D03*
D31*
X013434Y009765D03*
X013434Y009017D03*
X012410Y009017D03*
X012410Y009391D03*
X012410Y009765D03*
X012410Y006765D03*
X012410Y006391D03*
X012410Y006017D03*
X013434Y006017D03*
X013434Y006765D03*
D32*
X026725Y003883D03*
X026922Y003883D03*
X027119Y003883D03*
X027119Y002879D03*
X026922Y002879D03*
X026725Y002879D03*
X039025Y024679D03*
X039222Y024679D03*
X039419Y024679D03*
X039419Y025683D03*
X039222Y025683D03*
X039025Y025683D03*
D33*
X038720Y025575D03*
X038720Y025378D03*
X038720Y025181D03*
X038720Y024984D03*
X038720Y024787D03*
X039724Y024787D03*
X039724Y024984D03*
X039724Y025181D03*
X039724Y025378D03*
X039724Y025575D03*
X027424Y003775D03*
X027424Y003578D03*
X027424Y003381D03*
X027424Y003184D03*
X027424Y002987D03*
X026420Y002987D03*
X026420Y003184D03*
X026420Y003381D03*
X026420Y003578D03*
X026420Y003775D03*
D34*
X023155Y008157D03*
X023155Y008905D03*
X023155Y009507D03*
X022289Y009881D03*
X023155Y010255D03*
X022289Y008531D03*
D35*
X021141Y009631D03*
X019802Y009631D03*
X021802Y006531D03*
X023141Y006531D03*
D36*
X021472Y007712D03*
X021472Y009050D03*
X025372Y009512D03*
X025372Y010850D03*
X003222Y024962D03*
X003222Y026300D03*
D37*
X004222Y023131D03*
X005222Y023131D03*
X009722Y025631D03*
X009722Y026631D03*
X009722Y027631D03*
X019222Y014631D03*
X019222Y013631D03*
X019222Y012631D03*
X020722Y012631D03*
X020722Y013631D03*
X020722Y014631D03*
X026472Y025381D03*
X026472Y026381D03*
X026472Y027381D03*
X009222Y003131D03*
X008222Y003131D03*
X007222Y003131D03*
D38*
X038407Y016507D03*
X038407Y017255D03*
D39*
X032722Y017883D03*
X032722Y019379D03*
D40*
X021596Y022550D03*
X020808Y022550D03*
X020021Y022550D03*
X019234Y022550D03*
X018446Y022550D03*
X017659Y022550D03*
X016871Y022550D03*
X016084Y022550D03*
X015297Y022550D03*
X014509Y022550D03*
X014509Y031212D03*
X015297Y031212D03*
X016084Y031212D03*
X016871Y031212D03*
X017659Y031212D03*
X018446Y031212D03*
X019234Y031212D03*
X020021Y031212D03*
X020808Y031212D03*
X021596Y031212D03*
D41*
X030722Y031181D02*
X030722Y030581D01*
X031722Y030581D02*
X031722Y031181D01*
X033722Y031181D02*
X033722Y030581D01*
X034722Y030581D02*
X034722Y031181D01*
X035222Y023431D02*
X035222Y022831D01*
X034222Y022831D02*
X034222Y023431D01*
X032222Y023431D02*
X032222Y022831D01*
X031222Y022831D02*
X031222Y023431D01*
X029222Y023431D02*
X029222Y022831D01*
X028222Y022831D02*
X028222Y023431D01*
X029072Y017931D02*
X029672Y017931D01*
X029672Y016931D02*
X029072Y016931D01*
X037222Y022831D02*
X037222Y023431D01*
X038222Y023431D02*
X038222Y022831D01*
X020222Y017431D02*
X020222Y016831D01*
X019222Y016831D02*
X019222Y017431D01*
X018222Y017431D02*
X018222Y016831D01*
X013222Y017131D02*
X013222Y017731D01*
X012222Y017731D02*
X012222Y017131D01*
X008222Y017031D02*
X008222Y017631D01*
X007222Y017631D02*
X007222Y017031D01*
X017222Y009931D02*
X017222Y009331D01*
X018222Y009331D02*
X018222Y009931D01*
X009722Y008881D02*
X009122Y008881D01*
X009122Y007881D02*
X009722Y007881D01*
X009722Y006881D02*
X009122Y006881D01*
X009122Y005881D02*
X009722Y005881D01*
X004722Y029331D02*
X004722Y029931D01*
X003722Y029931D02*
X003722Y029331D01*
D42*
X004730Y005529D03*
X004730Y005333D03*
X005813Y005333D03*
X005813Y005529D03*
D43*
X005813Y005746D03*
X005813Y005116D03*
X004730Y005116D03*
X004730Y005746D03*
D44*
X008722Y013131D03*
X009722Y013131D03*
X010722Y013131D03*
X011722Y013131D03*
X012722Y013131D03*
X013722Y013131D03*
X014722Y013131D03*
X015722Y013131D03*
X015722Y014131D03*
X014722Y014131D03*
X013722Y014131D03*
X012722Y014131D03*
X011722Y014131D03*
X010722Y014131D03*
X009722Y014131D03*
X008722Y014131D03*
X029222Y026381D03*
X030222Y026381D03*
X031222Y026381D03*
X032222Y026381D03*
X033222Y026381D03*
X034222Y026381D03*
X035222Y026381D03*
X036222Y026381D03*
X036222Y027381D03*
X035222Y027381D03*
X034222Y027381D03*
X033222Y027381D03*
X032222Y027381D03*
X031222Y027381D03*
X030222Y027381D03*
X029222Y027381D03*
D45*
X027717Y017825D03*
X027717Y017628D03*
X027717Y017431D03*
X027717Y017234D03*
X027717Y017037D03*
X025827Y017037D03*
X025827Y017234D03*
X025827Y017431D03*
X025827Y017628D03*
X025827Y017825D03*
D46*
X009722Y028631D03*
X003222Y023131D03*
X010222Y003131D03*
D47*
X004615Y027257D03*
X004615Y028005D03*
X003789Y027631D03*
D48*
X007622Y014431D03*
X015272Y009831D03*
X015272Y006941D03*
X020372Y011031D03*
X022722Y011631D03*
X024822Y009531D03*
X023722Y008131D03*
X021322Y005631D03*
X025722Y012931D03*
X025422Y014131D03*
X026522Y015131D03*
X025722Y016331D03*
X024622Y015731D03*
X024272Y016331D03*
X024222Y015131D03*
X028272Y017431D03*
X032022Y019631D03*
X033722Y019131D03*
X035472Y018381D03*
X033722Y016131D03*
X033972Y015631D03*
X028772Y014131D03*
D49*
X031822Y013731D03*
X031222Y009831D03*
X031222Y007231D03*
X028272Y004581D03*
X027922Y003631D03*
X026922Y002431D03*
X025872Y002831D03*
X024122Y003581D03*
X026322Y004531D03*
X023856Y009716D03*
X023872Y011181D03*
X022622Y012131D03*
X023672Y012881D03*
X019822Y011681D03*
X019122Y008631D03*
X018622Y008731D03*
X019622Y008331D03*
X018222Y007731D03*
X017622Y007381D03*
X018222Y006931D03*
X017622Y006531D03*
X018822Y005854D03*
X018622Y005331D03*
X018222Y004931D03*
X017622Y008131D03*
X013822Y008231D03*
X012922Y007031D03*
X012922Y006331D03*
X011922Y005431D03*
X011022Y005131D03*
X009222Y004331D03*
X007622Y004431D03*
X007222Y004031D03*
X006222Y004281D03*
X005822Y004631D03*
X005172Y004781D03*
X004722Y004731D03*
X005172Y005981D03*
X006322Y007431D03*
X005572Y007881D03*
X004922Y007731D03*
X006222Y008831D03*
X007522Y007431D03*
X007922Y006681D03*
X008522Y007431D03*
X010722Y009431D03*
X011822Y009431D03*
X011522Y010331D03*
X011422Y011531D03*
X009422Y011131D03*
X008822Y009631D03*
X006522Y011131D03*
X005522Y012481D03*
X004922Y013631D03*
X004222Y016231D03*
X004122Y017631D03*
X001622Y018631D03*
X001022Y018531D03*
X001322Y018131D03*
X009222Y015131D03*
X010722Y014731D03*
X015622Y015231D03*
X016422Y015131D03*
X018322Y015631D03*
X016522Y017131D03*
X017122Y017531D03*
X012922Y009331D03*
X012022Y008431D03*
X013822Y005231D03*
X013822Y001931D03*
X014322Y001731D03*
X007122Y001931D03*
X005372Y002781D03*
X005022Y002331D03*
X000972Y002481D03*
X028622Y019831D03*
X031122Y017731D03*
X038722Y022131D03*
X038922Y023481D03*
X039522Y024031D03*
X038572Y024381D03*
X038172Y025931D03*
X036972Y025931D03*
X036972Y026831D03*
X039572Y027231D03*
X036222Y023881D03*
X032222Y029831D03*
X029522Y029831D03*
X029022Y031331D03*
X016472Y029881D03*
X038822Y004531D03*
D50*
X016422Y011231D03*
X013822Y011231D03*
D51*
X023122Y018931D03*
M02*
